{
.appVersion = "895";
copyright = "SIL OPEN FONT LICENSE Version 1.1";
date = "2017-02-17 20:36:56 +0000";
designer = "Trevor Bullock";
familyName = "KA New Stathis Archaia";
fontMaster = (
{
ascender = 800;
capHeight = 700;
descender = -200;
id = "54030A0A-E51B-4EE4-A223-77D7BA97D65F";
xHeight = 500;
}
);
glyphs = (
{
glyphname = A;
lastChange = "2017-11-07 01:44:14 +0000";
layers = (
{
layerId = "54030A0A-E51B-4EE4-A223-77D7BA97D65F";
paths = (
{
closed = 1;
nodes = (
"-536 -244 OFFCURVE",
"-597 -228 OFFCURVE",
"-657 -202 CURVE",
"-688 -188 OFFCURVE",
"-703 -180 OFFCURVE",
"-713 -171 CURVE",
"-721 -164 OFFCURVE",
"-721 -164 OFFCURVE",
"-718 -160 CURVE",
"-716 -158 OFFCURVE",
"-712 -156 OFFCURVE",
"-710 -156 CURVE",
"-708 -156 OFFCURVE",
"-691 -163 OFFCURVE",
"-673 -172 CURVE",
"-599 -208 OFFCURVE",
"-559 -219 OFFCURVE",
"-495 -219 CURVE",
"-462 -219 OFFCURVE",
"-447 -217 OFFCURVE",
"-437 -211 CURVE",
"-425 -204 OFFCURVE",
"-425 -203 OFFCURVE",
"-440 -184 CURVE",
"-447 -175 OFFCURVE",
"-454 -166 OFFCURVE",
"-454 -164 CURVE",
"-454 -159 OFFCURVE",
"-443 -156 OFFCURVE",
"-428 -157 CURVE",
"-400 -159 OFFCURVE",
"-374 -170 OFFCURVE",
"-355 -186 CURVE",
"-346 -194 LINE",
"-347 -203 LINE",
"-349 -214 OFFCURVE",
"-351 -220 OFFCURVE",
"-359 -227 CURVE",
"-377 -245 OFFCURVE",
"-428 -254 OFFCURVE",
"-481 -249 CURVE"
);
}
);
width = 0;
}
);
unicode = 0041;
},
{
glyphname = B;
lastChange = "2017-11-07 01:44:14 +0000";
layers = (
{
layerId = "54030A0A-E51B-4EE4-A223-77D7BA97D65F";
paths = (
{
closed = 1;
nodes = (
"-632 -281 OFFCURVE",
"-813 -248 OFFCURVE",
"-1086 -188 CURVE",
"-1210 -162 OFFCURVE",
"-1220 -159 OFFCURVE",
"-1241 -145 CURVE",
"-1252 -138 OFFCURVE",
"-1259 -129 OFFCURVE",
"-1259 -124 CURVE",
"-1259 -118 OFFCURVE",
"-1250 -112 OFFCURVE",
"-1243 -112 CURVE",
"-1225 -112 OFFCURVE",
"-1096 -137 OFFCURVE",
"-842 -188 CURVE",
"-772 -203 OFFCURVE",
"-687 -219 OFFCURVE",
"-653 -225 CURVE",
"-590 -236 LINE",
"-573 -233 LINE",
"-537 -227 OFFCURVE",
"-480 -208 OFFCURVE",
"-397 -173 CURVE",
"-366 -160 OFFCURVE",
"-317 -142 OFFCURVE",
"-278 -129 CURVE",
"-199 -102 OFFCURVE",
"-188 -99 OFFCURVE",
"-166 -95 CURVE",
"-143 -92 OFFCURVE",
"-126 -92 OFFCURVE",
"-104 -96 CURVE",
"-94 -98 OFFCURVE",
"-57 -104 OFFCURVE",
"-23 -109 CURVE",
"11 -114 OFFCURVE",
"48 -120 OFFCURVE",
"58 -122 CURVE",
"117 -135 OFFCURVE",
"113 -134 OFFCURVE",
"113 -139 CURVE",
"113 -142 OFFCURVE",
"111 -145 OFFCURVE",
"105 -147 CURVE",
"95 -152 OFFCURVE",
"47 -166 OFFCURVE",
"-20 -183 CURVE",
"-51 -191 OFFCURVE",
"-94 -204 OFFCURVE",
"-126 -215 CURVE",
"-156 -225 OFFCURVE",
"-197 -238 OFFCURVE",
"-218 -243 CURVE",
"-238 -249 OFFCURVE",
"-293 -266 OFFCURVE",
"-338 -282 CURVE",
"-384 -297 OFFCURVE",
"-422 -309 OFFCURVE",
"-424 -309 CURVE",
"-426 -309 OFFCURVE",
"-441 -307 OFFCURVE",
"-459 -305 CURVE"
);
}
);
width = 0;
}
);
unicode = 0042;
},
{
glyphname = C;
lastChange = "2017-11-15 05:04:37 +0000";
layers = (
{
layerId = "54030A0A-E51B-4EE4-A223-77D7BA97D65F";
paths = (
{
closed = 1;
nodes = (
"342 216 OFFCURVE",
"338 217 OFFCURVE",
"338 220 CURVE",
"338 220 OFFCURVE",
"341 226 OFFCURVE",
"344 231 CURVE",
"360 249 OFFCURVE",
"362 263 OFFCURVE",
"355 277 CURVE",
"347 297 OFFCURVE",
"324 313 OFFCURVE",
"280 326 CURVE",
"249 335 OFFCURVE",
"222 340 OFFCURVE",
"136 357 CURVE",
"124 359 OFFCURVE",
"123 361 OFFCURVE",
"130 367 CURVE",
"135 373 OFFCURVE",
"143 375 OFFCURVE",
"161 379 CURVE",
"180 382 OFFCURVE",
"245 382 OFFCURVE",
"261 379 CURVE",
"288 374 OFFCURVE",
"320 362 OFFCURVE",
"351 349 CURVE",
"379 337 OFFCURVE",
"403 321 OFFCURVE",
"419 303 CURVE",
"442 280 OFFCURVE",
"449 263 OFFCURVE",
"449 236 CURVE",
"449 216 OFFCURVE",
"445 206 OFFCURVE",
"433 200 CURVE",
"424 195 OFFCURVE",
"416 196 OFFCURVE",
"376 207 CURVE"
);
},
{
closed = 1;
nodes = (
"522 267 OFFCURVE",
"492 272 OFFCURVE",
"486 280 CURVE",
"482 280 OFFCURVE",
"482 286 OFFCURVE",
"481 291 CURVE",
"477 311 OFFCURVE",
"469 326 OFFCURVE",
"449 347 CURVE",
"435 360 LINE",
"408 374 LINE",
"355 400 OFFCURVE",
"307 416 OFFCURVE",
"262 424 CURVE",
"235 428 OFFCURVE",
"181 434 OFFCURVE",
"166 433 CURVE",
"134 430 OFFCURVE",
"100 422 OFFCURVE",
"85 412 CURVE",
"80 407 OFFCURVE",
"71 395 OFFCURVE",
"69 387 CURVE",
"67 381 OFFCURVE",
"68 368 OFFCURVE",
"69 364 CURVE",
"74 355 OFFCURVE",
"89 341 OFFCURVE",
"111 325 CURVE",
"119 319 OFFCURVE",
"125 314 OFFCURVE",
"124 313 CURVE",
"124 313 OFFCURVE",
"115 313 OFFCURVE",
"101 313 CURVE",
"82 313 OFFCURVE",
"76 313 OFFCURVE",
"58 316 CURVE",
"36 320 OFFCURVE",
"8 326 OFFCURVE",
"-4 331 CURVE",
"-8 333 OFFCURVE",
"-13 336 OFFCURVE",
"-17 340 CURVE",
"-20 343 OFFCURVE",
"-27 349 OFFCURVE",
"-32 354 CURVE",
"-46 367 OFFCURVE",
"-54 381 OFFCURVE",
"-56 401 CURVE",
"-59 438 OFFCURVE",
"-39 458 OFFCURVE",
"12 469 CURVE",
"20 470 OFFCURVE",
"31 473 OFFCURVE",
"36 475 CURVE",
"45 477 OFFCURVE",
"49 477 OFFCURVE",
"92 477 CURVE",
"151 477 OFFCURVE",
"170 476 OFFCURVE",
"225 466 CURVE",
"258 461 OFFCURVE",
"316 449 OFFCURVE",
"344 443 CURVE",
"384 434 OFFCURVE",
"455 404 OFFCURVE",
"484 385 CURVE",
"489 382 OFFCURVE",
"502 375 OFFCURVE",
"514 367 CURVE",
"583 328 OFFCURVE",
"623 293 OFFCURVE",
"623 274 CURVE",
"623 267 OFFCURVE",
"620 266 OFFCURVE",
"613 263 CURVE",
"606 260 OFFCURVE",
"602 260 OFFCURVE",
"577 262 CURVE"
);
},
{
closed = 1;
nodes = (
"995 219 OFFCURVE",
"965 228 OFFCURVE",
"944 243 CURVE",
"931 252 OFFCURVE",
"913 287 OFFCURVE",
"900 326 CURVE",
"892 350 OFFCURVE",
"889 354 OFFCURVE",
"878 356 CURVE",
"871 358 OFFCURVE",
"868 360 OFFCURVE",
"868 365 CURVE",
"868 372 OFFCURVE",
"872 372 OFFCURVE",
"906 371 CURVE",
"965 367 OFFCURVE",
"992 362 OFFCURVE",
"1009 349 CURVE",
"1038 329 OFFCURVE",
"1049 311 OFFCURVE",
"1062 265 CURVE",
"1068 245 OFFCURVE",
"1069 245 OFFCURVE",
"1095 239 CURVE",
"1112 235 OFFCURVE",
"1113 235 OFFCURVE",
"1113 231 CURVE",
"1113 227 OFFCURVE",
"1111 225 OFFCURVE",
"1101 221 CURVE",
"1089 215 LINE",
"1064 214 LINE",
"1051 214 OFFCURVE",
"1036 214 OFFCURVE",
"1033 215 CURVE"
);
},
{
closed = 1;
nodes = (
"767 228 OFFCURVE",
"731 243 OFFCURVE",
"718 260 CURVE",
"708 273 OFFCURVE",
"696 299 OFFCURVE",
"688 326 CURVE",
"679 351 OFFCURVE",
"679 351 OFFCURVE",
"672 355 CURVE",
"668 357 OFFCURVE",
"663 359 OFFCURVE",
"662 359 CURVE",
"660 359 OFFCURVE",
"658 360 OFFCURVE",
"656 362 CURVE",
"653 366 OFFCURVE",
"653 366 OFFCURVE",
"657 369 CURVE",
"660 372 OFFCURVE",
"663 372 OFFCURVE",
"681 371 CURVE",
"729 369 OFFCURVE",
"767 364 OFFCURVE",
"786 357 CURVE",
"796 353 OFFCURVE",
"812 340 OFFCURVE",
"821 329 CURVE",
"830 317 OFFCURVE",
"840 296 OFFCURVE",
"848 273 CURVE",
"856 250 OFFCURVE",
"857 250 OFFCURVE",
"882 244 CURVE",
"891 243 OFFCURVE",
"899 240 OFFCURVE",
"900 239 CURVE",
"902 236 OFFCURVE",
"899 232 OFFCURVE",
"888 227 CURVE",
"878 221 OFFCURVE",
"878 221 OFFCURVE",
"848 221 CURVE",
"831 221 OFFCURVE",
"813 222 OFFCURVE",
"806 222 CURVE"
);
},
{
closed = 1;
nodes = (
"1331 77 OFFCURVE",
"1311 76 OFFCURVE",
"1291 75 CURVE",
"1271 72 OFFCURVE",
"1218 70 OFFCURVE",
"1173 67 CURVE",
"1129 65 OFFCURVE",
"1068 60 OFFCURVE",
"1038 57 CURVE",
"978 49 OFFCURVE",
"862 30 OFFCURVE",
"820 20 CURVE",
"777 10 OFFCURVE",
"445 -29 OFFCURVE",
"369 -33 CURVE",
"226 -41 OFFCURVE",
"163 -39 OFFCURVE",
"143 -28 CURVE",
"140 -25 OFFCURVE",
"128 -20 OFFCURVE",
"119 -16 CURVE",
"110 -11 OFFCURVE",
"91 1 OFFCURVE",
"77 10 CURVE",
"53 28 OFFCURVE",
"52 27 OFFCURVE",
"51 38 CURVE",
"50 53 OFFCURVE",
"54 56 OFFCURVE",
"84 54 CURVE",
"147 49 OFFCURVE",
"149 49 OFFCURVE",
"343 70 CURVE",
"488 86 OFFCURVE",
"565 96 OFFCURVE",
"677 111 CURVE",
"756 123 OFFCURVE",
"883 140 OFFCURVE",
"958 148 CURVE",
"1107 165 OFFCURVE",
"1108 165 OFFCURVE",
"1175 154 CURVE",
"1225 145 OFFCURVE",
"1312 120 OFFCURVE",
"1327 109 CURVE",
"1335 103 OFFCURVE",
"1347 81 OFFCURVE",
"1343 77 CURVE",
"1342 76 OFFCURVE",
"1338 76 OFFCURVE",
"1335 76 CURVE"
);
}
);
width = 1374;
}
);
unicode = 0043;
},
{
glyphname = D;
lastChange = "2017-11-07 01:44:14 +0000";
layers = (
{
layerId = "54030A0A-E51B-4EE4-A223-77D7BA97D65F";
paths = (
{
closed = 1;
nodes = (
"-150 -310 OFFCURVE",
"-165 -305 OFFCURVE",
"-175 -302 CURVE",
"-200 -294 OFFCURVE",
"-221 -284 OFFCURVE",
"-225 -278 CURVE",
"-229 -272 OFFCURVE",
"-229 -269 OFFCURVE",
"-226 -259 CURVE",
"-223 -252 OFFCURVE",
"-220 -249 OFFCURVE",
"-201 -233 CURVE",
"-180 -215 LINE",
"-169 -215 LINE",
"-151 -215 OFFCURVE",
"-135 -219 OFFCURVE",
"-107 -232 CURVE",
"-81 -242 OFFCURVE",
"-79 -243 OFFCURVE",
"-72 -252 CURVE",
"-66 -260 OFFCURVE",
"-65 -261 OFFCURVE",
"-66 -268 CURVE",
"-66 -273 OFFCURVE",
"-68 -277 OFFCURVE",
"-69 -280 CURVE",
"-71 -285 OFFCURVE",
"-110 -314 OFFCURVE",
"-116 -316 CURVE",
"-124 -317 OFFCURVE",
"-127 -317 OFFCURVE",
"-143 -312 CURVE"
);
}
);
width = 0;
}
);
unicode = 0044;
},
{
glyphname = F;
lastChange = "2017-11-07 01:44:14 +0000";
layers = (
{
layerId = "54030A0A-E51B-4EE4-A223-77D7BA97D65F";
paths = (
{
closed = 1;
nodes = (
"-296 -310 OFFCURVE",
"-311 -305 OFFCURVE",
"-321 -302 CURVE",
"-346 -294 OFFCURVE",
"-367 -284 OFFCURVE",
"-371 -278 CURVE",
"-375 -272 OFFCURVE",
"-375 -269 OFFCURVE",
"-372 -259 CURVE",
"-369 -252 OFFCURVE",
"-366 -249 OFFCURVE",
"-347 -233 CURVE",
"-326 -215 LINE",
"-315 -215 LINE",
"-297 -215 OFFCURVE",
"-281 -219 OFFCURVE",
"-253 -232 CURVE",
"-227 -242 OFFCURVE",
"-225 -243 OFFCURVE",
"-218 -252 CURVE",
"-212 -260 OFFCURVE",
"-211 -261 OFFCURVE",
"-212 -268 CURVE",
"-212 -273 OFFCURVE",
"-214 -277 OFFCURVE",
"-215 -280 CURVE",
"-217 -285 OFFCURVE",
"-256 -314 OFFCURVE",
"-262 -316 CURVE",
"-270 -317 OFFCURVE",
"-273 -317 OFFCURVE",
"-289 -312 CURVE"
);
},
{
closed = 1;
nodes = (
"-86 -310 OFFCURVE",
"-101 -305 OFFCURVE",
"-111 -302 CURVE",
"-136 -294 OFFCURVE",
"-157 -284 OFFCURVE",
"-161 -278 CURVE",
"-165 -272 OFFCURVE",
"-165 -269 OFFCURVE",
"-162 -259 CURVE",
"-159 -252 OFFCURVE",
"-156 -249 OFFCURVE",
"-137 -233 CURVE",
"-116 -215 LINE",
"-105 -215 LINE",
"-87 -215 OFFCURVE",
"-71 -219 OFFCURVE",
"-43 -232 CURVE",
"-17 -242 OFFCURVE",
"-15 -243 OFFCURVE",
"-8 -252 CURVE",
"-2 -260 OFFCURVE",
"-1 -261 OFFCURVE",
"-2 -268 CURVE",
"-2 -273 OFFCURVE",
"-4 -277 OFFCURVE",
"-5 -280 CURVE",
"-7 -285 OFFCURVE",
"-46 -314 OFFCURVE",
"-52 -316 CURVE",
"-60 -317 OFFCURVE",
"-63 -317 OFFCURVE",
"-79 -312 CURVE"
);
}
);
width = 0;
}
);
unicode = 0046;
},
{
glyphname = G;
lastChange = "2017-11-07 01:44:14 +0000";
layers = (
{
layerId = "54030A0A-E51B-4EE4-A223-77D7BA97D65F";
paths = (
{
closed = 1;
nodes = (
"-332 -294 OFFCURVE",
"-345 -290 OFFCURVE",
"-354 -287 CURVE",
"-375 -280 OFFCURVE",
"-393 -272 OFFCURVE",
"-397 -266 CURVE",
"-400 -261 OFFCURVE",
"-400 -259 OFFCURVE",
"-398 -250 CURVE",
"-395 -244 OFFCURVE",
"-392 -241 OFFCURVE",
"-376 -227 CURVE",
"-358 -212 LINE",
"-348 -212 LINE",
"-333 -212 OFFCURVE",
"-319 -215 OFFCURVE",
"-295 -227 CURVE",
"-272 -235 OFFCURVE",
"-271 -236 OFFCURVE",
"-265 -244 CURVE",
"-259 -251 OFFCURVE",
"-259 -252 OFFCURVE",
"-259 -258 CURVE",
"-259 -262 OFFCURVE",
"-261 -265 OFFCURVE",
"-262 -268 CURVE",
"-264 -272 OFFCURVE",
"-297 -297 OFFCURVE",
"-303 -299 CURVE",
"-310 -300 OFFCURVE",
"-312 -300 OFFCURVE",
"-326 -296 CURVE"
);
},
{
closed = 1;
nodes = (
"-151 -294 OFFCURVE",
"-164 -290 OFFCURVE",
"-172 -287 CURVE",
"-194 -280 OFFCURVE",
"-212 -272 OFFCURVE",
"-215 -266 CURVE",
"-219 -261 OFFCURVE",
"-219 -259 OFFCURVE",
"-216 -250 CURVE",
"-214 -244 OFFCURVE",
"-211 -241 OFFCURVE",
"-195 -227 CURVE",
"-176 -212 LINE",
"-167 -212 LINE",
"-151 -212 OFFCURVE",
"-138 -215 OFFCURVE",
"-113 -227 CURVE",
"-91 -235 OFFCURVE",
"-89 -236 OFFCURVE",
"-83 -244 CURVE",
"-78 -251 OFFCURVE",
"-77 -252 OFFCURVE",
"-78 -258 CURVE",
"-78 -262 OFFCURVE",
"-80 -265 OFFCURVE",
"-81 -268 CURVE",
"-82 -272 OFFCURVE",
"-116 -297 OFFCURVE",
"-121 -299 CURVE",
"-128 -300 OFFCURVE",
"-131 -300 OFFCURVE",
"-145 -296 CURVE"
);
},
{
closed = 1;
nodes = (
"31 -294 OFFCURVE",
"18 -290 OFFCURVE",
"9 -287 CURVE",
"-12 -280 OFFCURVE",
"-31 -272 OFFCURVE",
"-34 -266 CURVE",
"-37 -261 OFFCURVE",
"-37 -259 OFFCURVE",
"-35 -250 CURVE",
"-32 -244 OFFCURVE",
"-30 -241 OFFCURVE",
"-13 -227 CURVE",
"5 -212 LINE",
"14 -212 LINE",
"30 -212 OFFCURVE",
"44 -215 OFFCURVE",
"68 -227 CURVE",
"90 -235 OFFCURVE",
"92 -236 OFFCURVE",
"98 -244 CURVE",
"103 -251 OFFCURVE",
"104 -252 OFFCURVE",
"103 -258 CURVE",
"103 -262 OFFCURVE",
"102 -265 OFFCURVE",
"101 -268 CURVE",
"99 -272 OFFCURVE",
"65 -297 OFFCURVE",
"60 -299 CURVE",
"53 -300 OFFCURVE",
"51 -300 OFFCURVE",
"37 -296 CURVE"
);
}
);
width = 0;
}
);
unicode = 0047;
},
{
glyphname = H;
lastChange = "2017-11-07 01:44:14 +0000";
layers = (
{
layerId = "54030A0A-E51B-4EE4-A223-77D7BA97D65F";
paths = (
{
closed = 1;
nodes = (
"-386 -279 OFFCURVE",
"-397 -275 OFFCURVE",
"-404 -273 CURVE",
"-423 -267 OFFCURVE",
"-438 -260 OFFCURVE",
"-441 -255 CURVE",
"-444 -250 OFFCURVE",
"-444 -249 OFFCURVE",
"-442 -241 CURVE",
"-440 -236 OFFCURVE",
"-437 -233 OFFCURVE",
"-424 -221 CURVE",
"-408 -208 LINE",
"-399 -208 LINE",
"-386 -208 OFFCURVE",
"-374 -211 OFFCURVE",
"-354 -221 CURVE",
"-334 -228 OFFCURVE",
"-332 -229 OFFCURVE",
"-327 -236 CURVE",
"-322 -242 OFFCURVE",
"-322 -243 OFFCURVE",
"-322 -248 CURVE",
"-322 -251 OFFCURVE",
"-324 -254 OFFCURVE",
"-325 -256 CURVE",
"-326 -260 OFFCURVE",
"-355 -281 OFFCURVE",
"-360 -283 CURVE",
"-366 -284 OFFCURVE",
"-368 -284 OFFCURVE",
"-380 -281 CURVE"
);
},
{
closed = 1;
nodes = (
"-228 -279 OFFCURVE",
"-240 -275 OFFCURVE",
"-247 -273 CURVE",
"-265 -267 OFFCURVE",
"-282 -260 OFFCURVE",
"-284 -255 CURVE",
"-288 -250 OFFCURVE",
"-288 -249 OFFCURVE",
"-285 -241 CURVE",
"-283 -236 OFFCURVE",
"-281 -233 OFFCURVE",
"-266 -221 CURVE",
"-251 -208 LINE",
"-243 -208 LINE",
"-229 -208 OFFCURVE",
"-217 -211 OFFCURVE",
"-196 -221 CURVE",
"-177 -228 OFFCURVE",
"-176 -229 OFFCURVE",
"-170 -236 CURVE",
"-166 -242 OFFCURVE",
"-165 -243 OFFCURVE",
"-166 -248 CURVE",
"-166 -251 OFFCURVE",
"-167 -254 OFFCURVE",
"-168 -256 CURVE",
"-170 -260 OFFCURVE",
"-199 -281 OFFCURVE",
"-203 -283 CURVE",
"-209 -284 OFFCURVE",
"-211 -284 OFFCURVE",
"-223 -281 CURVE"
);
},
{
closed = 1;
nodes = (
"-72 -279 OFFCURVE",
"-83 -275 OFFCURVE",
"-90 -273 CURVE",
"-109 -267 OFFCURVE",
"-125 -260 OFFCURVE",
"-128 -255 CURVE",
"-131 -250 OFFCURVE",
"-131 -249 OFFCURVE",
"-129 -241 CURVE",
"-126 -236 OFFCURVE",
"-124 -233 OFFCURVE",
"-110 -221 CURVE",
"-94 -208 LINE",
"-86 -208 LINE",
"-73 -208 OFFCURVE",
"-61 -211 OFFCURVE",
"-40 -221 CURVE",
"-20 -228 OFFCURVE",
"-19 -229 OFFCURVE",
"-13 -236 CURVE",
"-9 -242 OFFCURVE",
"-8 -243 OFFCURVE",
"-9 -248 CURVE",
"-9 -251 OFFCURVE",
"-11 -254 OFFCURVE",
"-11 -256 CURVE",
"-13 -260 OFFCURVE",
"-42 -281 OFFCURVE",
"-47 -283 CURVE",
"-52 -284 OFFCURVE",
"-55 -284 OFFCURVE",
"-67 -281 CURVE"
);
},
{
closed = 1;
nodes = (
"85 -279 OFFCURVE",
"74 -275 OFFCURVE",
"66 -273 CURVE",
"47 -267 OFFCURVE",
"32 -260 OFFCURVE",
"29 -255 CURVE",
"26 -250 OFFCURVE",
"26 -249 OFFCURVE",
"28 -241 CURVE",
"30 -236 OFFCURVE",
"33 -233 OFFCURVE",
"46 -221 CURVE",
"63 -208 LINE",
"71 -208 LINE",
"84 -208 OFFCURVE",
"96 -211 OFFCURVE",
"117 -221 CURVE",
"136 -228 OFFCURVE",
"138 -229 OFFCURVE",
"143 -236 CURVE",
"147 -242 OFFCURVE",
"148 -243 OFFCURVE",
"147 -248 CURVE",
"147 -251 OFFCURVE",
"146 -254 OFFCURVE",
"146 -256 CURVE",
"144 -260 OFFCURVE",
"115 -281 OFFCURVE",
"110 -283 CURVE",
"104 -284 OFFCURVE",
"102 -284 OFFCURVE",
"90 -281 CURVE"
);
}
);
width = 0;
}
);
unicode = 0048;
},
{
glyphname = J;
lastChange = "2017-11-07 01:44:14 +0000";
layers = (
{
layerId = "54030A0A-E51B-4EE4-A223-77D7BA97D65F";
paths = (
{
closed = 1;
nodes = (
"-152 -491 OFFCURVE",
"-183 -486 OFFCURVE",
"-206 -477 CURVE",
"-226 -470 OFFCURVE",
"-240 -465 OFFCURVE",
"-242 -461 CURVE",
"-243 -460 OFFCURVE",
"-240 -457 OFFCURVE",
"-238 -453 CURVE",
"-236 -449 OFFCURVE",
"-230 -442 OFFCURVE",
"-229 -438 CURVE",
"-220 -417 OFFCURVE",
"-226 -388 OFFCURVE",
"-240 -370 CURVE",
"-251 -360 OFFCURVE",
"-261 -355 OFFCURVE",
"-308 -344 CURVE",
"-353 -332 OFFCURVE",
"-385 -327 OFFCURVE",
"-411 -323 CURVE",
"-449 -320 OFFCURVE",
"-546 -316 OFFCURVE",
"-606 -316 CURVE",
"-670 -316 OFFCURVE",
"-806 -318 OFFCURVE",
"-852 -321 CURVE",
"-918 -327 OFFCURVE",
"-957 -328 OFFCURVE",
"-1045 -329 CURVE",
"-1121 -331 LINE",
"-1124 -326 LINE",
"-1127 -320 LINE",
"-1121 -314 LINE",
"-1108 -300 OFFCURVE",
"-1077 -292 OFFCURVE",
"-1016 -291 CURVE",
"-998 -289 OFFCURVE",
"-968 -287 OFFCURVE",
"-948 -286 CURVE",
"-929 -285 OFFCURVE",
"-894 -283 OFFCURVE",
"-873 -282 CURVE",
"-706 -274 OFFCURVE",
"-532 -272 OFFCURVE",
"-457 -278 CURVE",
"-324 -289 OFFCURVE",
"-210 -310 OFFCURVE",
"-159 -333 CURVE",
"-131 -346 OFFCURVE",
"-103 -361 OFFCURVE",
"-87 -371 CURVE",
"-73 -380 OFFCURVE",
"-56 -399 OFFCURVE",
"-49 -414 CURVE",
"-45 -421 OFFCURVE",
"-45 -423 OFFCURVE",
"-45 -440 CURVE",
"-45 -456 OFFCURVE",
"-45 -460 OFFCURVE",
"-48 -467 CURVE",
"-54 -482 OFFCURVE",
"-68 -490 OFFCURVE",
"-86 -494 CURVE",
"-97 -496 OFFCURVE",
"-103 -496 OFFCURVE",
"-127 -494 CURVE"
);
}
);
width = 0;
}
);
unicode = 004A;
},
{
glyphname = K;
lastChange = "2017-11-07 01:44:14 +0000";
layers = (
{
layerId = "54030A0A-E51B-4EE4-A223-77D7BA97D65F";
paths = (
{
closed = 1;
nodes = (
"-152 -491 OFFCURVE",
"-183 -486 OFFCURVE",
"-206 -477 CURVE",
"-226 -470 OFFCURVE",
"-240 -465 OFFCURVE",
"-242 -461 CURVE",
"-243 -460 OFFCURVE",
"-240 -457 OFFCURVE",
"-238 -453 CURVE",
"-236 -449 OFFCURVE",
"-230 -442 OFFCURVE",
"-229 -438 CURVE",
"-220 -417 OFFCURVE",
"-226 -388 OFFCURVE",
"-240 -370 CURVE",
"-251 -360 OFFCURVE",
"-261 -355 OFFCURVE",
"-308 -344 CURVE",
"-353 -332 OFFCURVE",
"-385 -327 OFFCURVE",
"-411 -323 CURVE",
"-449 -320 OFFCURVE",
"-546 -316 OFFCURVE",
"-606 -316 CURVE",
"-670 -316 OFFCURVE",
"-806 -318 OFFCURVE",
"-852 -321 CURVE",
"-918 -327 OFFCURVE",
"-957 -328 OFFCURVE",
"-1045 -329 CURVE",
"-1121 -331 LINE",
"-1124 -326 LINE",
"-1127 -320 LINE",
"-1121 -314 LINE",
"-1108 -300 OFFCURVE",
"-1077 -292 OFFCURVE",
"-1016 -291 CURVE",
"-998 -289 OFFCURVE",
"-968 -287 OFFCURVE",
"-948 -286 CURVE",
"-929 -285 OFFCURVE",
"-894 -283 OFFCURVE",
"-873 -282 CURVE",
"-706 -274 OFFCURVE",
"-532 -272 OFFCURVE",
"-457 -278 CURVE",
"-324 -289 OFFCURVE",
"-210 -310 OFFCURVE",
"-159 -333 CURVE",
"-131 -346 OFFCURVE",
"-103 -361 OFFCURVE",
"-87 -371 CURVE",
"-73 -380 OFFCURVE",
"-56 -399 OFFCURVE",
"-49 -414 CURVE",
"-45 -421 OFFCURVE",
"-45 -423 OFFCURVE",
"-45 -440 CURVE",
"-45 -456 OFFCURVE",
"-45 -460 OFFCURVE",
"-48 -467 CURVE",
"-54 -482 OFFCURVE",
"-68 -490 OFFCURVE",
"-86 -494 CURVE",
"-97 -496 OFFCURVE",
"-103 -496 OFFCURVE",
"-127 -494 CURVE"
);
},
{
closed = 1;
nodes = (
"-598 -446 OFFCURVE",
"-611 -441 OFFCURVE",
"-618 -439 CURVE",
"-639 -432 OFFCURVE",
"-657 -424 OFFCURVE",
"-660 -419 CURVE",
"-663 -414 OFFCURVE",
"-663 -413 OFFCURVE",
"-661 -404 CURVE",
"-658 -397 OFFCURVE",
"-656 -395 OFFCURVE",
"-640 -382 CURVE",
"-623 -368 LINE",
"-615 -368 LINE",
"-599 -368 OFFCURVE",
"-586 -371 OFFCURVE",
"-563 -381 CURVE",
"-541 -390 OFFCURVE",
"-539 -391 OFFCURVE",
"-535 -397 CURVE",
"-530 -405 OFFCURVE",
"-529 -406 OFFCURVE",
"-530 -412 CURVE",
"-530 -414 OFFCURVE",
"-531 -418 OFFCURVE",
"-532 -421 CURVE",
"-534 -425 OFFCURVE",
"-565 -450 OFFCURVE",
"-571 -451 CURVE",
"-577 -451 OFFCURVE",
"-579 -451 OFFCURVE",
"-593 -448 CURVE"
);
}
);
width = 0;
}
);
unicode = 004B;
},
{
glyphname = L;
lastChange = "2017-11-07 01:44:14 +0000";
layers = (
{
layerId = "54030A0A-E51B-4EE4-A223-77D7BA97D65F";
paths = (
{
closed = 1;
nodes = (
"627 59 OFFCURVE",
"589 64 OFFCURVE",
"566 67 CURVE",
"512 76 OFFCURVE",
"514 75 OFFCURVE",
"538 96 CURVE",
"564 120 OFFCURVE",
"573 130 OFFCURVE",
"570 146 CURVE",
"569 158 OFFCURVE",
"562 171 OFFCURVE",
"551 180 CURVE",
"529 200 OFFCURVE",
"469 223 OFFCURVE",
"395 237 CURVE",
"380 240 OFFCURVE",
"362 246 OFFCURVE",
"351 248 CURVE",
"330 251 OFFCURVE",
"274 261 OFFCURVE",
"203 269 CURVE",
"169 274 OFFCURVE",
"132 278 OFFCURVE",
"115 281 CURVE",
"97 283 OFFCURVE",
"73 286 OFFCURVE",
"60 288 CURVE",
"47 289 OFFCURVE",
"34 289 OFFCURVE",
"33 290 CURVE",
"25 297 OFFCURVE",
"36 305 OFFCURVE",
"55 310 CURVE",
"88 320 OFFCURVE",
"139 324 OFFCURVE",
"233 324 CURVE",
"300 324 OFFCURVE",
"316 324 OFFCURVE",
"333 320 CURVE",
"431 307 OFFCURVE",
"565 276 OFFCURVE",
"625 251 CURVE",
"728 210 OFFCURVE",
"780 162 OFFCURVE",
"780 105 CURVE",
"780 85 OFFCURVE",
"774 72 OFFCURVE",
"764 63 CURVE",
"751 50 OFFCURVE",
"743 47 OFFCURVE",
"717 47 CURVE",
"698 46 OFFCURVE",
"689 48 OFFCURVE",
"651 53 CURVE"
);
},
{
closed = 1;
nodes = (
"1267 -271 OFFCURVE",
"1229 -266 OFFCURVE",
"1206 -263 CURVE",
"1152 -254 OFFCURVE",
"1154 -255 OFFCURVE",
"1178 -234 CURVE",
"1204 -210 OFFCURVE",
"1213 -200 OFFCURVE",
"1210 -184 CURVE",
"1209 -172 OFFCURVE",
"1202 -159 OFFCURVE",
"1191 -150 CURVE",
"1169 -130 OFFCURVE",
"1109 -107 OFFCURVE",
"1035 -93 CURVE",
"1020 -90 OFFCURVE",
"1002 -84 OFFCURVE",
"991 -82 CURVE",
"970 -79 OFFCURVE",
"914 -69 OFFCURVE",
"843 -61 CURVE",
"809 -56 OFFCURVE",
"772 -52 OFFCURVE",
"755 -49 CURVE",
"737 -47 OFFCURVE",
"713 -44 OFFCURVE",
"700 -42 CURVE",
"687 -41 OFFCURVE",
"674 -41 OFFCURVE",
"673 -40 CURVE",
"665 -33 OFFCURVE",
"676 -25 OFFCURVE",
"695 -20 CURVE",
"728 -10 OFFCURVE",
"779 -6 OFFCURVE",
"873 -6 CURVE",
"940 -6 OFFCURVE",
"956 -6 OFFCURVE",
"973 -10 CURVE",
"1071 -23 OFFCURVE",
"1205 -54 OFFCURVE",
"1265 -79 CURVE",
"1368 -120 OFFCURVE",
"1420 -168 OFFCURVE",
"1420 -225 CURVE",
"1420 -245 OFFCURVE",
"1414 -258 OFFCURVE",
"1404 -267 CURVE",
"1391 -280 OFFCURVE",
"1383 -283 OFFCURVE",
"1357 -283 CURVE",
"1338 -284 OFFCURVE",
"1329 -282 OFFCURVE",
"1291 -277 CURVE"
);
}
);
width = 1450;
}
);
unicode = 004C;
},
{
glyphname = M;
lastChange = "2017-11-07 01:44:14 +0000";
layers = (
{
layerId = "54030A0A-E51B-4EE4-A223-77D7BA97D65F";
paths = (
{
closed = 1;
nodes = (
"-523 -371 OFFCURVE",
"-678 -338 OFFCURVE",
"-911 -278 CURVE",
"-1017 -252 OFFCURVE",
"-1026 -249 OFFCURVE",
"-1044 -235 CURVE",
"-1053 -228 OFFCURVE",
"-1059 -219 OFFCURVE",
"-1059 -214 CURVE",
"-1059 -208 OFFCURVE",
"-1051 -202 OFFCURVE",
"-1045 -202 CURVE",
"-1030 -202 OFFCURVE",
"-920 -227 OFFCURVE",
"-703 -278 CURVE",
"-643 -293 OFFCURVE",
"-570 -309 OFFCURVE",
"-541 -315 CURVE",
"-487 -326 LINE",
"-473 -323 LINE",
"-442 -317 OFFCURVE",
"-393 -298 OFFCURVE",
"-322 -263 CURVE",
"-296 -250 OFFCURVE",
"-254 -232 OFFCURVE",
"-221 -219 CURVE",
"-153 -192 OFFCURVE",
"-144 -189 OFFCURVE",
"-125 -185 CURVE",
"-105 -182 OFFCURVE",
"-91 -182 OFFCURVE",
"-72 -186 CURVE",
"-63 -188 OFFCURVE",
"-32 -194 OFFCURVE",
"-3 -199 CURVE",
"26 -204 OFFCURVE",
"58 -210 OFFCURVE",
"67 -212 CURVE",
"117 -225 OFFCURVE",
"114 -224 OFFCURVE",
"114 -229 CURVE",
"114 -232 OFFCURVE",
"112 -235 OFFCURVE",
"107 -237 CURVE",
"98 -242 OFFCURVE",
"57 -256 OFFCURVE",
"0 -273 CURVE",
"-27 -281 OFFCURVE",
"-63 -294 OFFCURVE",
"-91 -305 CURVE",
"-116 -315 OFFCURVE",
"-151 -328 OFFCURVE",
"-169 -333 CURVE",
"-186 -339 OFFCURVE",
"-233 -356 OFFCURVE",
"-272 -372 CURVE",
"-311 -387 OFFCURVE",
"-344 -399 OFFCURVE",
"-345 -399 CURVE",
"-347 -399 OFFCURVE",
"-360 -397 OFFCURVE",
"-375 -395 CURVE"
);
},
{
closed = 1;
nodes = (
"-536 -254 OFFCURVE",
"-597 -238 OFFCURVE",
"-657 -212 CURVE",
"-688 -198 OFFCURVE",
"-703 -190 OFFCURVE",
"-713 -181 CURVE",
"-721 -174 OFFCURVE",
"-721 -174 OFFCURVE",
"-718 -170 CURVE",
"-716 -168 OFFCURVE",
"-712 -166 OFFCURVE",
"-710 -166 CURVE",
"-708 -166 OFFCURVE",
"-691 -173 OFFCURVE",
"-673 -182 CURVE",
"-599 -218 OFFCURVE",
"-559 -229 OFFCURVE",
"-495 -229 CURVE",
"-462 -229 OFFCURVE",
"-447 -227 OFFCURVE",
"-437 -221 CURVE",
"-425 -214 OFFCURVE",
"-425 -213 OFFCURVE",
"-440 -194 CURVE",
"-447 -185 OFFCURVE",
"-454 -176 OFFCURVE",
"-454 -174 CURVE",
"-454 -169 OFFCURVE",
"-443 -166 OFFCURVE",
"-428 -167 CURVE",
"-400 -169 OFFCURVE",
"-374 -180 OFFCURVE",
"-355 -196 CURVE",
"-346 -204 LINE",
"-347 -213 LINE",
"-349 -224 OFFCURVE",
"-351 -230 OFFCURVE",
"-359 -237 CURVE",
"-377 -255 OFFCURVE",
"-428 -264 OFFCURVE",
"-481 -259 CURVE"
);
}
);
width = 0;
}
);
unicode = 004D;
},
{
glyphname = N;
lastChange = "2017-11-07 01:44:14 +0000";
layers = (
{
layerId = "54030A0A-E51B-4EE4-A223-77D7BA97D65F";
paths = (
{
closed = 1;
nodes = (
"-623 -321 OFFCURVE",
"-778 -288 OFFCURVE",
"-1011 -228 CURVE",
"-1117 -202 OFFCURVE",
"-1126 -199 OFFCURVE",
"-1144 -185 CURVE",
"-1153 -178 OFFCURVE",
"-1159 -169 OFFCURVE",
"-1159 -164 CURVE",
"-1159 -158 OFFCURVE",
"-1151 -152 OFFCURVE",
"-1145 -152 CURVE",
"-1130 -152 OFFCURVE",
"-1020 -177 OFFCURVE",
"-803 -228 CURVE",
"-743 -243 OFFCURVE",
"-670 -259 OFFCURVE",
"-641 -265 CURVE",
"-587 -276 LINE",
"-573 -273 LINE",
"-542 -267 OFFCURVE",
"-493 -248 OFFCURVE",
"-422 -213 CURVE",
"-396 -200 OFFCURVE",
"-354 -182 OFFCURVE",
"-321 -169 CURVE",
"-253 -142 OFFCURVE",
"-244 -139 OFFCURVE",
"-225 -135 CURVE",
"-205 -132 OFFCURVE",
"-191 -132 OFFCURVE",
"-172 -136 CURVE",
"-163 -138 OFFCURVE",
"-132 -144 OFFCURVE",
"-103 -149 CURVE",
"-74 -154 OFFCURVE",
"-42 -160 OFFCURVE",
"-33 -162 CURVE",
"17 -175 OFFCURVE",
"14 -174 OFFCURVE",
"14 -179 CURVE",
"14 -182 OFFCURVE",
"12 -185 OFFCURVE",
"7 -187 CURVE",
"-2 -192 OFFCURVE",
"-43 -206 OFFCURVE",
"-100 -223 CURVE",
"-127 -231 OFFCURVE",
"-163 -244 OFFCURVE",
"-191 -255 CURVE",
"-216 -265 OFFCURVE",
"-251 -278 OFFCURVE",
"-269 -283 CURVE",
"-286 -289 OFFCURVE",
"-333 -306 OFFCURVE",
"-372 -322 CURVE",
"-411 -337 OFFCURVE",
"-444 -349 OFFCURVE",
"-445 -349 CURVE",
"-447 -349 OFFCURVE",
"-460 -347 OFFCURVE",
"-475 -345 CURVE"
);
}
);
width = 0;
}
);
unicode = 004E;
},
{
glyphname = O;
lastChange = "2017-11-07 01:44:14 +0000";
layers = (
{
layerId = "54030A0A-E51B-4EE4-A223-77D7BA97D65F";
paths = (
{
closed = 1;
nodes = (
"459 53 OFFCURVE",
"458 55 OFFCURVE",
"458 59 CURVE",
"459 60 OFFCURVE",
"465 78 OFFCURVE",
"474 98 CURVE",
"483 117 OFFCURVE",
"490 135 OFFCURVE",
"490 138 CURVE",
"490 141 LINE",
"463 144 LINE",
"401 151 OFFCURVE",
"334 162 OFFCURVE",
"291 174 CURVE",
"247 186 OFFCURVE",
"210 209 OFFCURVE",
"161 253 CURVE",
"107 301 OFFCURVE",
"68 356 OFFCURVE",
"62 392 CURVE",
"61 399 OFFCURVE",
"58 411 OFFCURVE",
"55 421 CURVE",
"50 444 OFFCURVE",
"46 481 OFFCURVE",
"49 482 CURVE",
"56 485 OFFCURVE",
"94 490 OFFCURVE",
"120 492 CURVE",
"175 495 OFFCURVE",
"203 491 OFFCURVE",
"214 479 CURVE",
"224 469 OFFCURVE",
"224 467 OFFCURVE",
"222 430 CURVE",
"220 398 LINE",
"227 385 LINE",
"253 341 OFFCURVE",
"288 307 OFFCURVE",
"330 284 CURVE",
"339 280 OFFCURVE",
"351 273 OFFCURVE",
"358 269 CURVE",
"383 254 OFFCURVE",
"460 226 OFFCURVE",
"487 223 CURVE",
"496 222 OFFCURVE",
"504 221 OFFCURVE",
"506 221 CURVE",
"510 220 OFFCURVE",
"511 221 OFFCURVE",
"513 229 CURVE",
"520 247 OFFCURVE",
"530 267 OFFCURVE",
"539 275 CURVE",
"543 279 OFFCURVE",
"548 282 OFFCURVE",
"550 282 CURVE",
"553 283 OFFCURVE",
"572 282 OFFCURVE",
"594 280 CURVE",
"637 277 OFFCURVE",
"645 275 OFFCURVE",
"650 268 CURVE",
"652 264 OFFCURVE",
"652 263 OFFCURVE",
"647 249 CURVE",
"643 235 OFFCURVE",
"638 214 OFFCURVE",
"638 206 CURVE",
"638 202 OFFCURVE",
"638 202 OFFCURVE",
"660 202 CURVE",
"738 202 OFFCURVE",
"833 195 OFFCURVE",
"892 183 CURVE",
"942 173 OFFCURVE",
"962 166 OFFCURVE",
"974 155 CURVE",
"980 151 OFFCURVE",
"981 149 OFFCURVE",
"980 144 CURVE",
"980 139 LINE",
"925 138 LINE",
"892 138 OFFCURVE",
"847 138 OFFCURVE",
"810 139 CURVE",
"778 140 OFFCURVE",
"724 141 OFFCURVE",
"690 141 CURVE",
"621 141 OFFCURVE",
"623 141 OFFCURVE",
"616 127 CURVE",
"613 122 OFFCURVE",
"612 118 OFFCURVE",
"612 117 CURVE",
"612 116 OFFCURVE",
"606 107 OFFCURVE",
"601 98 CURVE",
"587 78 OFFCURVE",
"567 57 OFFCURVE",
"554 51 CURVE",
"544 46 LINE",
"504 45 LINE",
"464 45 LINE",
"461 49 LINE"
);
},
{
closed = 1;
nodes = (
"459 373 OFFCURVE",
"458 375 OFFCURVE",
"458 379 CURVE",
"459 380 OFFCURVE",
"465 398 OFFCURVE",
"474 418 CURVE",
"483 437 OFFCURVE",
"490 455 OFFCURVE",
"490 458 CURVE",
"490 461 LINE",
"463 464 LINE",
"401 471 OFFCURVE",
"334 482 OFFCURVE",
"291 494 CURVE",
"247 506 OFFCURVE",
"210 529 OFFCURVE",
"161 573 CURVE",
"107 621 OFFCURVE",
"68 676 OFFCURVE",
"62 712 CURVE",
"61 719 OFFCURVE",
"58 731 OFFCURVE",
"55 741 CURVE",
"50 764 OFFCURVE",
"46 801 OFFCURVE",
"49 802 CURVE",
"56 805 OFFCURVE",
"94 810 OFFCURVE",
"120 812 CURVE",
"175 815 OFFCURVE",
"203 811 OFFCURVE",
"214 799 CURVE",
"224 789 OFFCURVE",
"224 787 OFFCURVE",
"222 750 CURVE",
"220 718 LINE",
"227 705 LINE",
"253 661 OFFCURVE",
"288 627 OFFCURVE",
"330 604 CURVE",
"339 600 OFFCURVE",
"351 593 OFFCURVE",
"358 589 CURVE",
"383 574 OFFCURVE",
"460 546 OFFCURVE",
"487 543 CURVE",
"496 542 OFFCURVE",
"504 541 OFFCURVE",
"506 541 CURVE",
"510 540 OFFCURVE",
"511 541 OFFCURVE",
"513 549 CURVE",
"520 567 OFFCURVE",
"530 587 OFFCURVE",
"539 595 CURVE",
"543 599 OFFCURVE",
"548 602 OFFCURVE",
"550 602 CURVE",
"553 603 OFFCURVE",
"572 602 OFFCURVE",
"594 600 CURVE",
"637 597 OFFCURVE",
"645 595 OFFCURVE",
"650 588 CURVE",
"652 584 OFFCURVE",
"652 583 OFFCURVE",
"647 569 CURVE",
"643 555 OFFCURVE",
"638 534 OFFCURVE",
"638 526 CURVE",
"638 522 OFFCURVE",
"638 522 OFFCURVE",
"660 522 CURVE",
"738 522 OFFCURVE",
"833 515 OFFCURVE",
"892 503 CURVE",
"942 493 OFFCURVE",
"962 486 OFFCURVE",
"974 475 CURVE",
"980 471 OFFCURVE",
"981 469 OFFCURVE",
"980 464 CURVE",
"980 459 LINE",
"925 458 LINE",
"892 458 OFFCURVE",
"847 458 OFFCURVE",
"810 459 CURVE",
"778 460 OFFCURVE",
"724 461 OFFCURVE",
"690 461 CURVE",
"621 461 OFFCURVE",
"623 461 OFFCURVE",
"616 447 CURVE",
"613 442 OFFCURVE",
"612 438 OFFCURVE",
"612 437 CURVE",
"612 436 OFFCURVE",
"606 427 OFFCURVE",
"601 418 CURVE",
"587 398 OFFCURVE",
"567 377 OFFCURVE",
"554 371 CURVE",
"544 366 LINE",
"504 365 LINE",
"464 365 LINE",
"461 369 LINE"
);
},
{
closed = 1;
nodes = (
"642 -155 OFFCURVE",
"582 -145 OFFCURVE",
"502 -128 CURVE",
"450 -120 OFFCURVE",
"440 -117 OFFCURVE",
"407 -105 CURVE",
"262 -53 OFFCURVE",
"174 -11 OFFCURVE",
"140 25 CURVE",
"110 55 OFFCURVE",
"115 77 OFFCURVE",
"157 85 CURVE",
"180 88 OFFCURVE",
"275 88 OFFCURVE",
"316 83 CURVE",
"372 78 OFFCURVE",
"395 73 OFFCURVE",
"405 65 CURVE",
"412 59 OFFCURVE",
"412 53 OFFCURVE",
"406 48 CURVE",
"404 46 OFFCURVE",
"399 46 OFFCURVE",
"376 44 CURVE",
"349 42 OFFCURVE",
"337 40 OFFCURVE",
"335 36 CURVE",
"333 33 OFFCURVE",
"340 21 OFFCURVE",
"350 11 CURVE",
"363 -7 OFFCURVE",
"389 -25 OFFCURVE",
"420 -38 CURVE",
"428 -42 OFFCURVE",
"442 -47 OFFCURVE",
"450 -51 CURVE",
"473 -62 OFFCURVE",
"507 -73 OFFCURVE",
"551 -85 CURVE",
"642 -107 OFFCURVE",
"705 -114 OFFCURVE",
"792 -112 CURVE",
"847 -112 OFFCURVE",
"874 -107 OFFCURVE",
"905 -93 CURVE",
"922 -85 OFFCURVE",
"930 -76 OFFCURVE",
"937 -62 CURVE",
"943 -50 OFFCURVE",
"944 -48 OFFCURVE",
"944 -35 CURVE",
"944 -26 OFFCURVE",
"942 -15 OFFCURVE",
"941 -9 CURVE",
"933 13 OFFCURVE",
"912 34 OFFCURVE",
"882 50 CURVE",
"867 55 OFFCURVE",
"856 67 OFFCURVE",
"856 72 CURVE",
"856 76 OFFCURVE",
"864 80 OFFCURVE",
"876 82 CURVE",
"888 85 OFFCURVE",
"900 86 OFFCURVE",
"947 86 CURVE",
"1005 86 LINE",
"1022 82 LINE",
"1060 69 OFFCURVE",
"1085 51 OFFCURVE",
"1097 30 CURVE",
"1102 19 OFFCURVE",
"1104 -19 OFFCURVE",
"1102 -37 CURVE",
"1097 -70 OFFCURVE",
"1071 -101 OFFCURVE",
"1031 -121 CURVE",
"1022 -124 OFFCURVE",
"1015 -128 OFFCURVE",
"1014 -130 CURVE",
"1008 -138 OFFCURVE",
"959 -147 OFFCURVE",
"882 -157 CURVE",
"850 -161 OFFCURVE",
"842 -162 OFFCURVE",
"778 -161 CURVE",
"741 -161 OFFCURVE",
"703 -161 OFFCURVE",
"696 -160 CURVE"
);
}
);
width = 1170;
}
);
unicode = 004F;
},
{
glyphname = S;
lastChange = "2017-11-07 01:44:14 +0000";
layers = (
{
layerId = "54030A0A-E51B-4EE4-A223-77D7BA97D65F";
paths = (
{
closed = 1;
nodes = (
"-306 -284 OFFCURVE",
"-367 -268 OFFCURVE",
"-427 -242 CURVE",
"-458 -228 OFFCURVE",
"-473 -220 OFFCURVE",
"-483 -211 CURVE",
"-491 -204 OFFCURVE",
"-491 -204 OFFCURVE",
"-488 -200 CURVE",
"-486 -198 OFFCURVE",
"-482 -196 OFFCURVE",
"-480 -196 CURVE",
"-478 -196 OFFCURVE",
"-461 -203 OFFCURVE",
"-443 -212 CURVE",
"-369 -248 OFFCURVE",
"-329 -259 OFFCURVE",
"-265 -259 CURVE",
"-232 -259 OFFCURVE",
"-217 -257 OFFCURVE",
"-207 -251 CURVE",
"-195 -244 OFFCURVE",
"-195 -243 OFFCURVE",
"-210 -224 CURVE",
"-217 -215 OFFCURVE",
"-224 -206 OFFCURVE",
"-224 -204 CURVE",
"-224 -199 OFFCURVE",
"-213 -196 OFFCURVE",
"-198 -197 CURVE",
"-170 -199 OFFCURVE",
"-144 -210 OFFCURVE",
"-125 -226 CURVE",
"-116 -234 LINE",
"-117 -243 LINE",
"-119 -254 OFFCURVE",
"-121 -260 OFFCURVE",
"-129 -267 CURVE",
"-147 -285 OFFCURVE",
"-198 -294 OFFCURVE",
"-251 -289 CURVE"
);
}
);
width = 0;
}
);
unicode = 0053;
},
{
glyphname = V;
lastChange = "2017-11-15 05:03:48 +0000";
layers = (
{
layerId = "54030A0A-E51B-4EE4-A223-77D7BA97D65F";
paths = (
{
closed = 1;
nodes = (
"128 257 OFFCURVE",
"105 259 OFFCURVE",
"91 262 CURVE",
"61 271 OFFCURVE",
"61 269 OFFCURVE",
"76 288 CURVE",
"89 308 OFFCURVE",
"94 317 OFFCURVE",
"94 331 CURVE",
"92 342 OFFCURVE",
"89 352 OFFCURVE",
"83 362 CURVE",
"72 377 OFFCURVE",
"36 398 OFFCURVE",
"-5 409 CURVE",
"-16 412 OFFCURVE",
"-23 417 OFFCURVE",
"-30 418 CURVE",
"-44 421 OFFCURVE",
"-74 429 OFFCURVE",
"-116 437 CURVE",
"-137 439 OFFCURVE",
"-156 446 OFFCURVE",
"-166 447 CURVE",
"-177 448 OFFCURVE",
"-192 451 OFFCURVE",
"-198 452 CURVE",
"-206 452 OFFCURVE",
"-215 452 OFFCURVE",
"-215 453 CURVE",
"-219 462 OFFCURVE",
"-215 469 OFFCURVE",
"-199 472 CURVE",
"-182 482 OFFCURVE",
"-153 483 OFFCURVE",
"-100 483 CURVE",
"-57 483 OFFCURVE",
"-52 483 OFFCURVE",
"-41 482 CURVE",
"15 471 OFFCURVE",
"91 444 OFFCURVE",
"126 421 CURVE",
"186 386 OFFCURVE",
"214 344 OFFCURVE",
"214 297 CURVE",
"214 277 OFFCURVE",
"213 267 OFFCURVE",
"205 259 CURVE",
"198 248 OFFCURVE",
"194 244 OFFCURVE",
"180 244 CURVE",
"168 243 OFFCURVE",
"161 244 OFFCURVE",
"141 253 CURVE"
);
},
{
closed = 1;
nodes = (
"801 227 OFFCURVE",
"770 229 OFFCURVE",
"757 233 CURVE",
"735 237 OFFCURVE",
"727 241 OFFCURVE",
"727 249 CURVE",
"727 267 OFFCURVE",
"717 289 OFFCURVE",
"704 308 CURVE",
"691 329 OFFCURVE",
"680 339 OFFCURVE",
"639 362 CURVE",
"577 398 OFFCURVE",
"508 417 OFFCURVE",
"446 417 CURVE",
"410 417 OFFCURVE",
"374 408 OFFCURVE",
"359 396 CURVE",
"352 389 OFFCURVE",
"342 377 OFFCURVE",
"339 367 CURVE",
"339 362 OFFCURVE",
"339 344 OFFCURVE",
"339 341 CURVE",
"344 329 OFFCURVE",
"363 312 OFFCURVE",
"385 294 CURVE",
"391 289 OFFCURVE",
"394 286 OFFCURVE",
"392 284 CURVE",
"392 284 OFFCURVE",
"383 284 OFFCURVE",
"366 284 CURVE",
"342 284 OFFCURVE",
"339 284 OFFCURVE",
"320 289 CURVE",
"295 297 OFFCURVE",
"281 299 OFFCURVE",
"271 303 CURVE",
"262 308 OFFCURVE",
"244 331 OFFCURVE",
"236 344 CURVE",
"229 356 OFFCURVE",
"229 367 OFFCURVE",
"229 389 CURVE",
"229 407 OFFCURVE",
"229 408 OFFCURVE",
"229 417 CURVE",
"233 423 OFFCURVE",
"244 437 OFFCURVE",
"251 442 CURVE",
"262 449 OFFCURVE",
"276 457 OFFCURVE",
"302 463 CURVE",
"319 468 LINE",
"365 468 LINE",
"416 468 OFFCURVE",
"434 466 OFFCURVE",
"476 458 CURVE",
"530 448 OFFCURVE",
"605 429 OFFCURVE",
"632 417 CURVE",
"669 402 OFFCURVE",
"704 382 OFFCURVE",
"724 366 CURVE",
"729 362 OFFCURVE",
"742 352 OFFCURVE",
"753 344 CURVE",
"792 318 OFFCURVE",
"819 297 OFFCURVE",
"837 271 CURVE",
"860 243 OFFCURVE",
"861 229 OFFCURVE",
"845 223 CURVE",
"842 223 OFFCURVE",
"838 223 OFFCURVE",
"837 223 CURVE",
"837 223 OFFCURVE",
"831 223 OFFCURVE",
"823 223 CURVE"
);
},
{
closed = 1;
nodes = (
"1102 239 OFFCURVE",
"1078 246 OFFCURVE",
"1061 258 CURVE",
"1050 265 OFFCURVE",
"1036 293 OFFCURVE",
"1026 324 CURVE",
"1019 344 OFFCURVE",
"1017 347 OFFCURVE",
"1008 348 CURVE",
"1002 350 OFFCURVE",
"1000 352 OFFCURVE",
"1000 356 CURVE",
"1000 361 OFFCURVE",
"1003 361 OFFCURVE",
"1030 360 CURVE",
"1078 357 OFFCURVE",
"1099 353 OFFCURVE",
"1113 343 CURVE",
"1136 327 OFFCURVE",
"1145 312 OFFCURVE",
"1155 276 CURVE",
"1160 260 OFFCURVE",
"1161 260 OFFCURVE",
"1182 255 CURVE",
"1195 252 OFFCURVE",
"1196 252 OFFCURVE",
"1196 248 CURVE",
"1196 245 OFFCURVE",
"1194 244 OFFCURVE",
"1186 240 CURVE",
"1177 236 LINE",
"1157 235 LINE",
"1146 235 OFFCURVE",
"1134 235 OFFCURVE",
"1132 236 CURVE"
);
},
{
closed = 1;
nodes = (
"919 246 OFFCURVE",
"890 258 OFFCURVE",
"880 272 CURVE",
"872 282 OFFCURVE",
"862 303 OFFCURVE",
"856 324 CURVE",
"849 344 OFFCURVE",
"849 344 OFFCURVE",
"843 348 CURVE",
"840 349 OFFCURVE",
"836 351 OFFCURVE",
"835 351 CURVE",
"834 351 OFFCURVE",
"832 352 OFFCURVE",
"830 353 CURVE",
"828 356 OFFCURVE",
"828 356 OFFCURVE",
"831 359 CURVE",
"834 361 OFFCURVE",
"836 361 OFFCURVE",
"850 360 CURVE",
"898 358 OFFCURVE",
"915 356 OFFCURVE",
"934 349 CURVE",
"942 346 OFFCURVE",
"955 336 OFFCURVE",
"962 327 CURVE",
"970 317 OFFCURVE",
"978 300 OFFCURVE",
"984 282 CURVE",
"990 264 OFFCURVE",
"991 264 OFFCURVE",
"1011 259 CURVE",
"1018 258 OFFCURVE",
"1025 256 OFFCURVE",
"1026 255 CURVE",
"1027 252 OFFCURVE",
"1025 249 OFFCURVE",
"1016 245 CURVE",
"1008 240 OFFCURVE",
"1008 240 OFFCURVE",
"984 240 CURVE",
"970 240 OFFCURVE",
"956 241 OFFCURVE",
"950 241 CURVE"
);
},
{
closed = 1;
nodes = (
"1333 87 OFFCURVE",
"1313 86 OFFCURVE",
"1293 85 CURVE",
"1273 82 OFFCURVE",
"1220 80 OFFCURVE",
"1175 77 CURVE",
"1131 75 OFFCURVE",
"1070 69 OFFCURVE",
"1040 67 CURVE",
"979 59 OFFCURVE",
"864 40 OFFCURVE",
"822 30 CURVE",
"779 19 OFFCURVE",
"447 -19 OFFCURVE",
"371 -24 CURVE",
"228 -31 OFFCURVE",
"164 -29 OFFCURVE",
"145 -18 CURVE",
"141 -15 OFFCURVE",
"130 -10 OFFCURVE",
"121 -6 CURVE",
"111 -1 OFFCURVE",
"93 11 OFFCURVE",
"79 20 CURVE",
"54 37 OFFCURVE",
"53 37 OFFCURVE",
"53 48 CURVE",
"52 63 OFFCURVE",
"56 66 OFFCURVE",
"85 63 CURVE",
"148 59 OFFCURVE",
"150 59 OFFCURVE",
"344 80 CURVE",
"489 96 OFFCURVE",
"567 105 OFFCURVE",
"679 121 CURVE",
"758 133 OFFCURVE",
"885 149 OFFCURVE",
"959 158 CURVE",
"1108 175 OFFCURVE",
"1109 175 OFFCURVE",
"1176 164 CURVE",
"1227 155 OFFCURVE",
"1313 129 OFFCURVE",
"1329 119 CURVE",
"1337 113 OFFCURVE",
"1348 90 OFFCURVE",
"1345 87 CURVE",
"1344 86 OFFCURVE",
"1340 85 OFFCURVE",
"1337 86 CURVE"
);
}
);
width = 1376;
}
);
unicode = 0056;
},
{
glyphname = X;
lastChange = "2017-11-15 05:03:07 +0000";
layers = (
{
layerId = "54030A0A-E51B-4EE4-A223-77D7BA97D65F";
paths = (
{
closed = 1;
nodes = (
"442 218 OFFCURVE",
"414 221 OFFCURVE",
"399 223 CURVE",
"361 233 OFFCURVE",
"362 231 OFFCURVE",
"379 249 CURVE",
"396 269 OFFCURVE",
"401 277 OFFCURVE",
"401 292 CURVE",
"400 301 OFFCURVE",
"396 311 OFFCURVE",
"390 322 CURVE",
"373 335 OFFCURVE",
"330 357 OFFCURVE",
"279 367 CURVE",
"267 370 OFFCURVE",
"256 375 OFFCURVE",
"247 376 CURVE",
"231 379 OFFCURVE",
"194 387 OFFCURVE",
"142 394 CURVE",
"118 397 OFFCURVE",
"94 403 OFFCURVE",
"80 404 CURVE",
"67 405 OFFCURVE",
"50 409 OFFCURVE",
"40 410 CURVE",
"33 410 OFFCURVE",
"23 410 OFFCURVE",
"21 411 CURVE",
"17 418 OFFCURVE",
"23 425 OFFCURVE",
"39 428 CURVE",
"62 438 OFFCURVE",
"96 440 OFFCURVE",
"163 440 CURVE",
"211 440 OFFCURVE",
"222 440 OFFCURVE",
"234 438 CURVE",
"303 426 OFFCURVE",
"397 402 OFFCURVE",
"440 379 CURVE",
"513 345 OFFCURVE",
"550 303 OFFCURVE",
"550 258 CURVE",
"550 238 OFFCURVE",
"546 228 OFFCURVE",
"539 221 CURVE",
"529 211 OFFCURVE",
"524 207 OFFCURVE",
"506 207 CURVE",
"492 206 OFFCURVE",
"485 207 OFFCURVE",
"459 213 CURVE"
);
},
{
closed = 1;
nodes = (
"958 207 OFFCURVE",
"928 216 OFFCURVE",
"907 231 CURVE",
"894 240 OFFCURVE",
"876 275 OFFCURVE",
"863 314 CURVE",
"855 338 OFFCURVE",
"852 342 OFFCURVE",
"841 344 CURVE",
"834 346 OFFCURVE",
"831 348 OFFCURVE",
"831 353 CURVE",
"831 360 OFFCURVE",
"835 360 OFFCURVE",
"869 359 CURVE",
"928 355 OFFCURVE",
"955 350 OFFCURVE",
"972 337 CURVE",
"1001 317 OFFCURVE",
"1012 299 OFFCURVE",
"1025 253 CURVE",
"1031 233 OFFCURVE",
"1032 233 OFFCURVE",
"1058 227 CURVE",
"1075 223 OFFCURVE",
"1076 223 OFFCURVE",
"1076 219 CURVE",
"1076 215 OFFCURVE",
"1074 213 OFFCURVE",
"1064 209 CURVE",
"1052 203 LINE",
"1027 202 LINE",
"1014 202 OFFCURVE",
"999 202 OFFCURVE",
"996 203 CURVE"
);
},
{
closed = 1;
nodes = (
"730 216 OFFCURVE",
"694 231 OFFCURVE",
"681 248 CURVE",
"671 261 OFFCURVE",
"659 287 OFFCURVE",
"651 314 CURVE",
"642 339 OFFCURVE",
"642 339 OFFCURVE",
"635 343 CURVE",
"631 345 OFFCURVE",
"626 347 OFFCURVE",
"625 347 CURVE",
"623 347 OFFCURVE",
"621 348 OFFCURVE",
"619 350 CURVE",
"616 354 OFFCURVE",
"616 354 OFFCURVE",
"620 357 CURVE",
"623 360 OFFCURVE",
"626 360 OFFCURVE",
"644 359 CURVE",
"692 357 OFFCURVE",
"730 352 OFFCURVE",
"749 345 CURVE",
"759 341 OFFCURVE",
"775 328 OFFCURVE",
"784 317 CURVE",
"793 305 OFFCURVE",
"803 284 OFFCURVE",
"811 261 CURVE",
"819 238 OFFCURVE",
"820 238 OFFCURVE",
"845 232 CURVE",
"854 231 OFFCURVE",
"862 228 OFFCURVE",
"863 227 CURVE",
"865 224 OFFCURVE",
"862 220 OFFCURVE",
"851 215 CURVE",
"841 209 OFFCURVE",
"841 209 OFFCURVE",
"811 209 CURVE",
"794 209 OFFCURVE",
"776 210 OFFCURVE",
"769 210 CURVE"
);
},
{
closed = 1;
nodes = (
"1332 72 OFFCURVE",
"1312 72 OFFCURVE",
"1292 70 CURVE",
"1272 68 OFFCURVE",
"1219 65 OFFCURVE",
"1174 63 CURVE",
"1130 60 OFFCURVE",
"1069 55 OFFCURVE",
"1039 52 CURVE",
"979 45 OFFCURVE",
"863 26 OFFCURVE",
"821 15 CURVE",
"778 5 OFFCURVE",
"446 -34 OFFCURVE",
"370 -38 CURVE",
"227 -46 OFFCURVE",
"163 -43 OFFCURVE",
"144 -33 CURVE",
"140 -30 OFFCURVE",
"129 -24 OFFCURVE",
"120 -20 CURVE",
"110 -15 OFFCURVE",
"92 -4 OFFCURVE",
"78 6 CURVE",
"53 23 OFFCURVE",
"52 23 OFFCURVE",
"52 34 CURVE",
"51 49 OFFCURVE",
"55 51 OFFCURVE",
"84 49 CURVE",
"147 44 OFFCURVE",
"149 45 OFFCURVE",
"343 65 CURVE",
"488 81 OFFCURVE",
"566 91 OFFCURVE",
"678 107 CURVE",
"757 118 OFFCURVE",
"884 135 OFFCURVE",
"958 143 CURVE",
"1107 160 OFFCURVE",
"1108 160 OFFCURVE",
"1175 150 CURVE",
"1226 141 OFFCURVE",
"1312 115 OFFCURVE",
"1328 105 CURVE",
"1336 99 OFFCURVE",
"1347 76 OFFCURVE",
"1344 72 CURVE",
"1343 71 OFFCURVE",
"1339 71 OFFCURVE",
"1336 72 CURVE"
);
}
);
width = 1374;
}
);
unicode = 0058;
},
{
glyphname = Z;
lastChange = "2017-11-08 04:35:11 +0000";
layers = (
{
layerId = "54030A0A-E51B-4EE4-A223-77D7BA97D65F";
paths = (
{
closed = 1;
nodes = (
"688 192 OFFCURVE",
"658 201 OFFCURVE",
"637 216 CURVE",
"624 225 OFFCURVE",
"606 260 OFFCURVE",
"593 299 CURVE",
"585 323 OFFCURVE",
"582 327 OFFCURVE",
"571 329 CURVE",
"564 331 OFFCURVE",
"561 333 OFFCURVE",
"561 338 CURVE",
"561 345 OFFCURVE",
"565 345 OFFCURVE",
"599 344 CURVE",
"658 340 OFFCURVE",
"685 335 OFFCURVE",
"702 322 CURVE",
"731 302 OFFCURVE",
"742 284 OFFCURVE",
"755 238 CURVE",
"761 218 OFFCURVE",
"762 218 OFFCURVE",
"788 212 CURVE",
"805 208 OFFCURVE",
"806 208 OFFCURVE",
"806 204 CURVE",
"806 200 OFFCURVE",
"804 198 OFFCURVE",
"794 194 CURVE",
"782 188 LINE",
"757 187 LINE",
"744 187 OFFCURVE",
"729 187 OFFCURVE",
"726 188 CURVE"
);
},
{
closed = 1;
nodes = (
"460 201 OFFCURVE",
"424 216 OFFCURVE",
"411 233 CURVE",
"401 246 OFFCURVE",
"389 272 OFFCURVE",
"381 299 CURVE",
"372 324 OFFCURVE",
"372 324 OFFCURVE",
"365 328 CURVE",
"361 330 OFFCURVE",
"356 332 OFFCURVE",
"355 332 CURVE",
"353 332 OFFCURVE",
"351 333 OFFCURVE",
"349 335 CURVE",
"346 339 OFFCURVE",
"346 339 OFFCURVE",
"350 342 CURVE",
"353 345 OFFCURVE",
"356 345 OFFCURVE",
"374 344 CURVE",
"422 342 OFFCURVE",
"460 337 OFFCURVE",
"479 330 CURVE",
"489 326 OFFCURVE",
"505 313 OFFCURVE",
"514 302 CURVE",
"523 290 OFFCURVE",
"533 269 OFFCURVE",
"541 246 CURVE",
"549 223 OFFCURVE",
"550 223 OFFCURVE",
"575 217 CURVE",
"584 216 OFFCURVE",
"592 213 OFFCURVE",
"593 212 CURVE",
"595 209 OFFCURVE",
"592 205 OFFCURVE",
"581 200 CURVE",
"571 194 OFFCURVE",
"571 194 OFFCURVE",
"541 194 CURVE",
"524 194 OFFCURVE",
"506 195 OFFCURVE",
"499 195 CURVE"
);
},
{
closed = 1;
nodes = (
"1310 71 OFFCURVE",
"1290 71 OFFCURVE",
"1270 69 CURVE",
"1250 67 OFFCURVE",
"1197 64 OFFCURVE",
"1152 62 CURVE",
"1108 60 OFFCURVE",
"1047 54 OFFCURVE",
"1017 51 CURVE",
"957 44 OFFCURVE",
"841 25 OFFCURVE",
"799 15 CURVE",
"756 4 OFFCURVE",
"425 -34 OFFCURVE",
"348 -39 CURVE",
"205 -46 OFFCURVE",
"142 -44 OFFCURVE",
"122 -33 CURVE",
"119 -31 OFFCURVE",
"107 -25 OFFCURVE",
"98 -21 CURVE",
"89 -16 OFFCURVE",
"70 -4 OFFCURVE",
"56 5 CURVE",
"32 22 OFFCURVE",
"31 22 OFFCURVE",
"30 33 CURVE",
"30 48 OFFCURVE",
"33 50 OFFCURVE",
"63 48 CURVE",
"126 44 OFFCURVE",
"128 44 OFFCURVE",
"322 65 CURVE",
"467 81 OFFCURVE",
"544 90 OFFCURVE",
"656 106 CURVE",
"735 118 OFFCURVE",
"862 134 OFFCURVE",
"937 142 CURVE",
"1086 160 OFFCURVE",
"1087 160 OFFCURVE",
"1154 149 CURVE",
"1204 140 OFFCURVE",
"1291 114 OFFCURVE",
"1306 104 CURVE",
"1314 98 OFFCURVE",
"1326 75 OFFCURVE",
"1322 72 CURVE",
"1321 71 OFFCURVE",
"1317 70 OFFCURVE",
"1314 71 CURVE"
);
}
);
width = 1353;
}
);
unicode = 005A;
},
{
glyphname = a;
lastChange = "2017-11-07 01:44:14 +0000";
layers = (
{
layerId = "54030A0A-E51B-4EE4-A223-77D7BA97D65F";
paths = (
{
closed = 1;
nodes = (
"-676 196 OFFCURVE",
"-737 212 OFFCURVE",
"-797 238 CURVE",
"-828 252 OFFCURVE",
"-843 260 OFFCURVE",
"-853 269 CURVE",
"-861 276 OFFCURVE",
"-861 276 OFFCURVE",
"-858 280 CURVE",
"-856 282 OFFCURVE",
"-852 284 OFFCURVE",
"-850 284 CURVE",
"-848 284 OFFCURVE",
"-831 277 OFFCURVE",
"-813 268 CURVE",
"-739 232 OFFCURVE",
"-699 221 OFFCURVE",
"-635 221 CURVE",
"-602 221 OFFCURVE",
"-587 223 OFFCURVE",
"-577 229 CURVE",
"-565 236 OFFCURVE",
"-565 237 OFFCURVE",
"-580 256 CURVE",
"-587 265 OFFCURVE",
"-594 274 OFFCURVE",
"-594 276 CURVE",
"-594 281 OFFCURVE",
"-583 284 OFFCURVE",
"-568 283 CURVE",
"-540 281 OFFCURVE",
"-514 270 OFFCURVE",
"-495 254 CURVE",
"-486 246 LINE",
"-487 237 LINE",
"-489 226 OFFCURVE",
"-491 220 OFFCURVE",
"-499 213 CURVE",
"-517 195 OFFCURVE",
"-568 186 OFFCURVE",
"-621 191 CURVE"
);
}
);
width = 0;
}
);
unicode = 0061;
},
{
glyphname = aring;
lastChange = "2017-11-07 01:44:14 +0000";
layers = (
{
layerId = "54030A0A-E51B-4EE4-A223-77D7BA97D65F";
paths = (
{
closed = 1;
nodes = (
"-1026 196 OFFCURVE",
"-1087 212 OFFCURVE",
"-1147 238 CURVE",
"-1178 252 OFFCURVE",
"-1193 260 OFFCURVE",
"-1203 269 CURVE",
"-1211 276 OFFCURVE",
"-1211 276 OFFCURVE",
"-1208 280 CURVE",
"-1206 282 OFFCURVE",
"-1202 284 OFFCURVE",
"-1200 284 CURVE",
"-1198 284 OFFCURVE",
"-1181 277 OFFCURVE",
"-1163 268 CURVE",
"-1089 232 OFFCURVE",
"-1049 221 OFFCURVE",
"-985 221 CURVE",
"-952 221 OFFCURVE",
"-937 223 OFFCURVE",
"-927 229 CURVE",
"-915 236 OFFCURVE",
"-915 237 OFFCURVE",
"-930 256 CURVE",
"-937 265 OFFCURVE",
"-944 274 OFFCURVE",
"-944 276 CURVE",
"-944 281 OFFCURVE",
"-933 284 OFFCURVE",
"-918 283 CURVE",
"-890 281 OFFCURVE",
"-864 270 OFFCURVE",
"-845 254 CURVE",
"-836 246 LINE",
"-837 237 LINE",
"-839 226 OFFCURVE",
"-841 220 OFFCURVE",
"-849 213 CURVE",
"-867 195 OFFCURVE",
"-918 186 OFFCURVE",
"-971 191 CURVE"
);
}
);
width = 0;
}
);
unicode = 00E5;
},
{
glyphname = b;
lastChange = "2017-11-15 05:02:25 +0000";
layers = (
{
layerId = "54030A0A-E51B-4EE4-A223-77D7BA97D65F";
paths = (
{
closed = 1;
nodes = (
"262 200 OFFCURVE",
"261 202 OFFCURVE",
"261 205 CURVE",
"262 205 OFFCURVE",
"266 218 OFFCURVE",
"273 232 CURVE",
"279 246 OFFCURVE",
"284 259 OFFCURVE",
"284 261 CURVE",
"284 263 LINE",
"265 265 LINE",
"221 270 OFFCURVE",
"173 278 OFFCURVE",
"143 286 CURVE",
"111 295 OFFCURVE",
"85 311 OFFCURVE",
"50 343 CURVE",
"12 377 OFFCURVE",
"-16 416 OFFCURVE",
"-20 441 CURVE",
"-21 446 OFFCURVE",
"-23 455 OFFCURVE",
"-25 462 CURVE",
"-29 478 OFFCURVE",
"-32 505 OFFCURVE",
"-29 505 CURVE",
"-24 507 OFFCURVE",
"3 511 OFFCURVE",
"21 512 CURVE",
"60 515 OFFCURVE",
"80 512 OFFCURVE",
"88 503 CURVE",
"95 496 OFFCURVE",
"95 495 OFFCURVE",
"94 468 CURVE",
"92 446 LINE",
"97 436 LINE",
"116 405 OFFCURVE",
"140 381 OFFCURVE",
"170 365 CURVE",
"177 362 OFFCURVE",
"185 357 OFFCURVE",
"190 354 CURVE",
"208 343 OFFCURVE",
"263 323 OFFCURVE",
"282 321 CURVE",
"288 321 OFFCURVE",
"294 320 OFFCURVE",
"295 320 CURVE",
"298 319 OFFCURVE",
"299 320 OFFCURVE",
"300 326 CURVE",
"305 338 OFFCURVE",
"312 353 OFFCURVE",
"319 358 CURVE",
"322 361 OFFCURVE",
"325 363 OFFCURVE",
"327 363 CURVE",
"329 364 OFFCURVE",
"342 363 OFFCURVE",
"358 362 CURVE",
"388 360 OFFCURVE",
"394 358 OFFCURVE",
"398 353 CURVE",
"399 350 OFFCURVE",
"399 350 OFFCURVE",
"396 340 CURVE",
"393 330 OFFCURVE",
"389 315 OFFCURVE",
"389 309 CURVE",
"389 306 OFFCURVE",
"389 306 OFFCURVE",
"405 306 CURVE",
"460 306 OFFCURVE",
"528 301 OFFCURVE",
"570 293 CURVE",
"605 286 OFFCURVE",
"619 281 OFFCURVE",
"628 273 CURVE",
"632 270 OFFCURVE",
"633 269 OFFCURVE",
"632 265 CURVE",
"632 262 LINE",
"593 261 LINE",
"570 261 OFFCURVE",
"538 261 OFFCURVE",
"511 262 CURVE",
"489 262 OFFCURVE",
"450 263 OFFCURVE",
"426 263 CURVE",
"377 263 OFFCURVE",
"379 263 OFFCURVE",
"374 253 CURVE",
"371 250 OFFCURVE",
"371 247 OFFCURVE",
"371 246 CURVE",
"371 245 OFFCURVE",
"366 239 OFFCURVE",
"363 232 CURVE",
"353 218 OFFCURVE",
"339 203 OFFCURVE",
"329 199 CURVE",
"322 196 LINE",
"294 195 LINE",
"266 195 LINE",
"263 198 LINE"
);
},
{
closed = 1;
nodes = (
"974 207 OFFCURVE",
"944 216 OFFCURVE",
"923 231 CURVE",
"910 240 OFFCURVE",
"892 275 OFFCURVE",
"879 314 CURVE",
"871 338 OFFCURVE",
"868 342 OFFCURVE",
"857 344 CURVE",
"850 346 OFFCURVE",
"847 348 OFFCURVE",
"847 353 CURVE",
"847 360 OFFCURVE",
"851 360 OFFCURVE",
"885 359 CURVE",
"944 355 OFFCURVE",
"971 350 OFFCURVE",
"988 337 CURVE",
"1017 317 OFFCURVE",
"1028 299 OFFCURVE",
"1041 253 CURVE",
"1047 233 OFFCURVE",
"1048 233 OFFCURVE",
"1074 227 CURVE",
"1091 223 OFFCURVE",
"1092 223 OFFCURVE",
"1092 219 CURVE",
"1092 215 OFFCURVE",
"1090 213 OFFCURVE",
"1080 209 CURVE",
"1068 203 LINE",
"1043 202 LINE",
"1030 202 OFFCURVE",
"1015 202 OFFCURVE",
"1012 203 CURVE"
);
},
{
closed = 1;
nodes = (
"746 216 OFFCURVE",
"710 231 OFFCURVE",
"697 248 CURVE",
"687 261 OFFCURVE",
"675 287 OFFCURVE",
"667 314 CURVE",
"658 339 OFFCURVE",
"658 339 OFFCURVE",
"651 343 CURVE",
"647 345 OFFCURVE",
"642 347 OFFCURVE",
"641 347 CURVE",
"639 347 OFFCURVE",
"637 348 OFFCURVE",
"635 350 CURVE",
"632 354 OFFCURVE",
"632 354 OFFCURVE",
"636 357 CURVE",
"639 360 OFFCURVE",
"642 360 OFFCURVE",
"660 359 CURVE",
"708 357 OFFCURVE",
"746 352 OFFCURVE",
"765 345 CURVE",
"775 341 OFFCURVE",
"791 328 OFFCURVE",
"800 317 CURVE",
"809 305 OFFCURVE",
"819 284 OFFCURVE",
"827 261 CURVE",
"835 238 OFFCURVE",
"836 238 OFFCURVE",
"861 232 CURVE",
"870 231 OFFCURVE",
"878 228 OFFCURVE",
"879 227 CURVE",
"881 224 OFFCURVE",
"878 220 OFFCURVE",
"867 215 CURVE",
"857 209 OFFCURVE",
"857 209 OFFCURVE",
"827 209 CURVE",
"810 209 OFFCURVE",
"792 210 OFFCURVE",
"785 210 CURVE"
);
},
{
closed = 1;
nodes = (
"1332 75 OFFCURVE",
"1312 75 OFFCURVE",
"1292 73 CURVE",
"1272 71 OFFCURVE",
"1219 69 OFFCURVE",
"1174 66 CURVE",
"1130 64 OFFCURVE",
"1069 58 OFFCURVE",
"1039 56 CURVE",
"979 48 OFFCURVE",
"863 29 OFFCURVE",
"821 19 CURVE",
"778 8 OFFCURVE",
"446 -30 OFFCURVE",
"370 -35 CURVE",
"227 -42 OFFCURVE",
"163 -40 OFFCURVE",
"144 -29 CURVE",
"141 -27 OFFCURVE",
"129 -21 OFFCURVE",
"120 -17 CURVE",
"111 -12 OFFCURVE",
"92 0 OFFCURVE",
"78 9 CURVE",
"54 26 OFFCURVE",
"53 26 OFFCURVE",
"52 37 CURVE",
"51 52 OFFCURVE",
"55 55 OFFCURVE",
"85 52 CURVE",
"148 48 OFFCURVE",
"150 48 OFFCURVE",
"344 69 CURVE",
"489 85 OFFCURVE",
"566 94 OFFCURVE",
"678 110 CURVE",
"757 122 OFFCURVE",
"884 138 OFFCURVE",
"959 146 CURVE",
"1108 164 OFFCURVE",
"1109 164 OFFCURVE",
"1176 153 CURVE",
"1226 144 OFFCURVE",
"1313 118 OFFCURVE",
"1328 108 CURVE",
"1336 102 OFFCURVE",
"1348 79 OFFCURVE",
"1344 76 CURVE",
"1343 75 OFFCURVE",
"1339 74 OFFCURVE",
"1336 75 CURVE"
);
}
);
width = 1375;
}
);
unicode = 0062;
},
{
glyphname = c;
lastChange = "2017-11-15 05:01:17 +0000";
layers = (
{
layerId = "54030A0A-E51B-4EE4-A223-77D7BA97D65F";
paths = (
{
closed = 1;
nodes = (
"622 212 OFFCURVE",
"585 213 OFFCURVE",
"572 218 CURVE",
"545 224 OFFCURVE",
"536 225 OFFCURVE",
"536 234 CURVE",
"536 249 OFFCURVE",
"526 271 OFFCURVE",
"513 287 CURVE",
"496 309 OFFCURVE",
"485 316 OFFCURVE",
"437 337 CURVE",
"367 372 OFFCURVE",
"291 388 OFFCURVE",
"219 388 CURVE",
"179 388 OFFCURVE",
"139 380 OFFCURVE",
"122 369 CURVE",
"115 362 OFFCURVE",
"103 351 OFFCURVE",
"101 343 CURVE",
"100 337 OFFCURVE",
"100 322 OFFCURVE",
"101 317 CURVE",
"106 309 OFFCURVE",
"125 291 OFFCURVE",
"148 274 CURVE",
"159 271 OFFCURVE",
"160 266 OFFCURVE",
"160 266 CURVE",
"160 266 OFFCURVE",
"148 266 OFFCURVE",
"130 266 CURVE",
"103 266 OFFCURVE",
"100 266 OFFCURVE",
"79 271 CURVE",
"51 278 OFFCURVE",
"31 280 OFFCURVE",
"23 285 CURVE",
"13 287 OFFCURVE",
"-9 309 OFFCURVE",
"-17 322 CURVE",
"-24 331 OFFCURVE",
"-26 343 OFFCURVE",
"-26 362 CURVE",
"-26 379 OFFCURVE",
"-26 380 OFFCURVE",
"-24 388 CURVE",
"-19 395 OFFCURVE",
"-9 406 OFFCURVE",
"1 411 CURVE",
"12 419 OFFCURVE",
"28 425 OFFCURVE",
"58 432 CURVE",
"75 435 LINE",
"129 435 LINE",
"187 435 OFFCURVE",
"206 434 OFFCURVE",
"255 427 CURVE",
"315 418 OFFCURVE",
"396 399 OFFCURVE",
"430 388 CURVE",
"473 374 OFFCURVE",
"513 357 OFFCURVE",
"535 342 CURVE",
"541 337 OFFCURVE",
"554 329 OFFCURVE",
"565 322 CURVE",
"611 298 OFFCURVE",
"640 278 OFFCURVE",
"662 254 CURVE",
"689 228 OFFCURVE",
"690 213 OFFCURVE",
"670 210 CURVE",
"668 210 OFFCURVE",
"664 210 OFFCURVE",
"662 210 CURVE",
"662 210 OFFCURVE",
"655 210 OFFCURVE",
"647 210 CURVE"
);
},
{
closed = 1;
nodes = (
"1016 211 OFFCURVE",
"986 220 OFFCURVE",
"965 235 CURVE",
"952 244 OFFCURVE",
"934 279 OFFCURVE",
"921 318 CURVE",
"913 342 OFFCURVE",
"910 346 OFFCURVE",
"899 348 CURVE",
"892 350 OFFCURVE",
"889 352 OFFCURVE",
"889 357 CURVE",
"889 364 OFFCURVE",
"893 364 OFFCURVE",
"927 363 CURVE",
"986 359 OFFCURVE",
"1013 354 OFFCURVE",
"1030 341 CURVE",
"1059 321 OFFCURVE",
"1070 303 OFFCURVE",
"1083 257 CURVE",
"1089 237 OFFCURVE",
"1090 237 OFFCURVE",
"1116 231 CURVE",
"1133 227 OFFCURVE",
"1134 227 OFFCURVE",
"1134 223 CURVE",
"1134 219 OFFCURVE",
"1132 217 OFFCURVE",
"1122 213 CURVE",
"1110 207 LINE",
"1085 206 LINE",
"1072 206 OFFCURVE",
"1057 206 OFFCURVE",
"1054 207 CURVE"
);
},
{
closed = 1;
nodes = (
"788 220 OFFCURVE",
"752 235 OFFCURVE",
"739 252 CURVE",
"729 265 OFFCURVE",
"717 291 OFFCURVE",
"709 318 CURVE",
"700 343 OFFCURVE",
"700 343 OFFCURVE",
"693 347 CURVE",
"689 349 OFFCURVE",
"684 351 OFFCURVE",
"683 351 CURVE",
"681 351 OFFCURVE",
"679 352 OFFCURVE",
"677 354 CURVE",
"674 358 OFFCURVE",
"674 358 OFFCURVE",
"678 361 CURVE",
"681 364 OFFCURVE",
"684 364 OFFCURVE",
"702 363 CURVE",
"750 361 OFFCURVE",
"788 356 OFFCURVE",
"807 349 CURVE",
"817 345 OFFCURVE",
"833 332 OFFCURVE",
"842 321 CURVE",
"851 309 OFFCURVE",
"861 288 OFFCURVE",
"869 265 CURVE",
"877 242 OFFCURVE",
"878 242 OFFCURVE",
"903 236 CURVE",
"912 235 OFFCURVE",
"920 232 OFFCURVE",
"921 231 CURVE",
"923 228 OFFCURVE",
"920 224 OFFCURVE",
"909 219 CURVE",
"899 213 OFFCURVE",
"899 213 OFFCURVE",
"869 213 CURVE",
"852 213 OFFCURVE",
"834 214 OFFCURVE",
"827 214 CURVE"
);
},
{
closed = 1;
nodes = (
"1324 74 OFFCURVE",
"1304 74 OFFCURVE",
"1284 72 CURVE",
"1264 70 OFFCURVE",
"1211 67 OFFCURVE",
"1166 65 CURVE",
"1122 63 OFFCURVE",
"1061 57 OFFCURVE",
"1031 54 CURVE",
"971 47 OFFCURVE",
"855 28 OFFCURVE",
"813 18 CURVE",
"770 7 OFFCURVE",
"438 -31 OFFCURVE",
"362 -36 CURVE",
"219 -43 OFFCURVE",
"155 -41 OFFCURVE",
"136 -30 CURVE",
"133 -28 OFFCURVE",
"121 -22 OFFCURVE",
"112 -18 CURVE",
"103 -13 OFFCURVE",
"84 -1 OFFCURVE",
"70 8 CURVE",
"45 25 OFFCURVE",
"44 25 OFFCURVE",
"44 36 CURVE",
"43 51 OFFCURVE",
"47 54 OFFCURVE",
"76 51 CURVE",
"139 47 OFFCURVE",
"141 47 OFFCURVE",
"335 68 CURVE",
"481 84 OFFCURVE",
"558 93 OFFCURVE",
"670 109 CURVE",
"749 121 OFFCURVE",
"876 137 OFFCURVE",
"951 145 CURVE",
"1100 163 OFFCURVE",
"1101 163 OFFCURVE",
"1167 152 CURVE",
"1218 143 OFFCURVE",
"1305 117 OFFCURVE",
"1320 107 CURVE",
"1328 101 OFFCURVE",
"1340 78 OFFCURVE",
"1336 75 CURVE",
"1335 74 OFFCURVE",
"1331 73 OFFCURVE",
"1328 74 CURVE"
);
}
);
width = 1367;
}
);
unicode = 0063;
},
{
glyphname = d;
lastChange = "2017-11-07 01:53:18 +0000";
layers = (
{
layerId = "54030A0A-E51B-4EE4-A223-77D7BA97D65F";
paths = (
{
closed = 1;
nodes = (
"-606 -230 OFFCURVE",
"-621 -225 OFFCURVE",
"-631 -222 CURVE",
"-656 -214 OFFCURVE",
"-677 -204 OFFCURVE",
"-681 -198 CURVE",
"-685 -192 OFFCURVE",
"-685 -189 OFFCURVE",
"-682 -179 CURVE",
"-679 -172 OFFCURVE",
"-676 -169 OFFCURVE",
"-657 -153 CURVE",
"-636 -135 LINE",
"-625 -135 LINE",
"-607 -135 OFFCURVE",
"-591 -139 OFFCURVE",
"-563 -152 CURVE",
"-537 -162 OFFCURVE",
"-535 -163 OFFCURVE",
"-528 -172 CURVE",
"-522 -180 OFFCURVE",
"-521 -181 OFFCURVE",
"-522 -188 CURVE",
"-522 -193 OFFCURVE",
"-524 -197 OFFCURVE",
"-525 -200 CURVE",
"-527 -205 OFFCURVE",
"-566 -234 OFFCURVE",
"-572 -236 CURVE",
"-580 -237 OFFCURVE",
"-583 -237 OFFCURVE",
"-599 -232 CURVE"
);
}
);
width = 0;
}
);
unicode = 0064;
},
{
glyphname = f;
lastChange = "2017-11-07 01:52:56 +0000";
layers = (
{
layerId = "54030A0A-E51B-4EE4-A223-77D7BA97D65F";
paths = (
{
closed = 1;
nodes = (
"-716 -230 OFFCURVE",
"-731 -225 OFFCURVE",
"-741 -222 CURVE",
"-766 -214 OFFCURVE",
"-787 -204 OFFCURVE",
"-791 -198 CURVE",
"-795 -192 OFFCURVE",
"-795 -189 OFFCURVE",
"-792 -179 CURVE",
"-789 -172 OFFCURVE",
"-786 -169 OFFCURVE",
"-767 -153 CURVE",
"-746 -135 LINE",
"-735 -135 LINE",
"-717 -135 OFFCURVE",
"-701 -139 OFFCURVE",
"-673 -152 CURVE",
"-647 -162 OFFCURVE",
"-645 -163 OFFCURVE",
"-638 -172 CURVE",
"-632 -180 OFFCURVE",
"-631 -181 OFFCURVE",
"-632 -188 CURVE",
"-632 -193 OFFCURVE",
"-634 -197 OFFCURVE",
"-635 -200 CURVE",
"-637 -205 OFFCURVE",
"-676 -234 OFFCURVE",
"-682 -236 CURVE",
"-690 -237 OFFCURVE",
"-693 -237 OFFCURVE",
"-709 -232 CURVE"
);
},
{
closed = 1;
nodes = (
"-506 -230 OFFCURVE",
"-521 -225 OFFCURVE",
"-531 -222 CURVE",
"-556 -214 OFFCURVE",
"-577 -204 OFFCURVE",
"-581 -198 CURVE",
"-585 -192 OFFCURVE",
"-585 -189 OFFCURVE",
"-582 -179 CURVE",
"-579 -172 OFFCURVE",
"-576 -169 OFFCURVE",
"-557 -153 CURVE",
"-536 -135 LINE",
"-525 -135 LINE",
"-507 -135 OFFCURVE",
"-491 -139 OFFCURVE",
"-463 -152 CURVE",
"-437 -162 OFFCURVE",
"-435 -163 OFFCURVE",
"-428 -172 CURVE",
"-422 -180 OFFCURVE",
"-421 -181 OFFCURVE",
"-422 -188 CURVE",
"-422 -193 OFFCURVE",
"-424 -197 OFFCURVE",
"-425 -200 CURVE",
"-427 -205 OFFCURVE",
"-466 -234 OFFCURVE",
"-472 -236 CURVE",
"-480 -237 OFFCURVE",
"-483 -237 OFFCURVE",
"-499 -232 CURVE"
);
}
);
width = 0;
}
);
unicode = 0066;
},
{
glyphname = g;
lastChange = "2017-11-07 01:52:47 +0000";
layers = (
{
layerId = "54030A0A-E51B-4EE4-A223-77D7BA97D65F";
paths = (
{
closed = 1;
nodes = (
"-830 -230 OFFCURVE",
"-845 -225 OFFCURVE",
"-855 -222 CURVE",
"-880 -214 OFFCURVE",
"-901 -204 OFFCURVE",
"-905 -198 CURVE",
"-909 -192 OFFCURVE",
"-909 -189 OFFCURVE",
"-906 -179 CURVE",
"-903 -172 OFFCURVE",
"-900 -169 OFFCURVE",
"-881 -153 CURVE",
"-860 -135 LINE",
"-849 -135 LINE",
"-831 -135 OFFCURVE",
"-815 -139 OFFCURVE",
"-787 -152 CURVE",
"-761 -162 OFFCURVE",
"-759 -163 OFFCURVE",
"-752 -172 CURVE",
"-746 -180 OFFCURVE",
"-745 -181 OFFCURVE",
"-746 -188 CURVE",
"-746 -193 OFFCURVE",
"-748 -197 OFFCURVE",
"-749 -200 CURVE",
"-751 -205 OFFCURVE",
"-790 -234 OFFCURVE",
"-796 -236 CURVE",
"-804 -237 OFFCURVE",
"-807 -237 OFFCURVE",
"-823 -232 CURVE"
);
},
{
closed = 1;
nodes = (
"-620 -230 OFFCURVE",
"-635 -225 OFFCURVE",
"-645 -222 CURVE",
"-670 -214 OFFCURVE",
"-691 -204 OFFCURVE",
"-695 -198 CURVE",
"-699 -192 OFFCURVE",
"-699 -189 OFFCURVE",
"-696 -179 CURVE",
"-693 -172 OFFCURVE",
"-690 -169 OFFCURVE",
"-671 -153 CURVE",
"-650 -135 LINE",
"-639 -135 LINE",
"-621 -135 OFFCURVE",
"-605 -139 OFFCURVE",
"-577 -152 CURVE",
"-551 -162 OFFCURVE",
"-549 -163 OFFCURVE",
"-542 -172 CURVE",
"-536 -180 OFFCURVE",
"-535 -181 OFFCURVE",
"-536 -188 CURVE",
"-536 -193 OFFCURVE",
"-538 -197 OFFCURVE",
"-539 -200 CURVE",
"-541 -205 OFFCURVE",
"-580 -234 OFFCURVE",
"-586 -236 CURVE",
"-594 -237 OFFCURVE",
"-597 -237 OFFCURVE",
"-613 -232 CURVE"
);
},
{
closed = 1;
nodes = (
"-410 -230 OFFCURVE",
"-425 -225 OFFCURVE",
"-435 -222 CURVE",
"-460 -214 OFFCURVE",
"-481 -204 OFFCURVE",
"-485 -198 CURVE",
"-489 -192 OFFCURVE",
"-489 -189 OFFCURVE",
"-486 -179 CURVE",
"-483 -172 OFFCURVE",
"-480 -169 OFFCURVE",
"-461 -153 CURVE",
"-440 -135 LINE",
"-429 -135 LINE",
"-411 -135 OFFCURVE",
"-395 -139 OFFCURVE",
"-367 -152 CURVE",
"-341 -162 OFFCURVE",
"-339 -163 OFFCURVE",
"-332 -172 CURVE",
"-326 -180 OFFCURVE",
"-325 -181 OFFCURVE",
"-326 -188 CURVE",
"-326 -193 OFFCURVE",
"-328 -197 OFFCURVE",
"-329 -200 CURVE",
"-331 -205 OFFCURVE",
"-370 -234 OFFCURVE",
"-376 -236 CURVE",
"-384 -237 OFFCURVE",
"-387 -237 OFFCURVE",
"-403 -232 CURVE"
);
}
);
width = 0;
}
);
unicode = 0067;
},
{
glyphname = h;
lastChange = "2017-11-07 01:52:30 +0000";
layers = (
{
layerId = "54030A0A-E51B-4EE4-A223-77D7BA97D65F";
paths = (
{
closed = 1;
nodes = (
"-946 -230 OFFCURVE",
"-961 -225 OFFCURVE",
"-971 -222 CURVE",
"-996 -214 OFFCURVE",
"-1017 -204 OFFCURVE",
"-1021 -198 CURVE",
"-1025 -192 OFFCURVE",
"-1025 -189 OFFCURVE",
"-1022 -179 CURVE",
"-1019 -172 OFFCURVE",
"-1016 -169 OFFCURVE",
"-997 -153 CURVE",
"-976 -135 LINE",
"-965 -135 LINE",
"-947 -135 OFFCURVE",
"-931 -139 OFFCURVE",
"-903 -152 CURVE",
"-877 -162 OFFCURVE",
"-875 -163 OFFCURVE",
"-868 -172 CURVE",
"-862 -180 OFFCURVE",
"-861 -181 OFFCURVE",
"-862 -188 CURVE",
"-862 -193 OFFCURVE",
"-864 -197 OFFCURVE",
"-865 -200 CURVE",
"-867 -205 OFFCURVE",
"-906 -234 OFFCURVE",
"-912 -236 CURVE",
"-920 -237 OFFCURVE",
"-923 -237 OFFCURVE",
"-939 -232 CURVE"
);
},
{
closed = 1;
nodes = (
"-736 -230 OFFCURVE",
"-751 -225 OFFCURVE",
"-761 -222 CURVE",
"-786 -214 OFFCURVE",
"-807 -204 OFFCURVE",
"-811 -198 CURVE",
"-815 -192 OFFCURVE",
"-815 -189 OFFCURVE",
"-812 -179 CURVE",
"-809 -172 OFFCURVE",
"-806 -169 OFFCURVE",
"-787 -153 CURVE",
"-766 -135 LINE",
"-755 -135 LINE",
"-737 -135 OFFCURVE",
"-721 -139 OFFCURVE",
"-693 -152 CURVE",
"-667 -162 OFFCURVE",
"-665 -163 OFFCURVE",
"-658 -172 CURVE",
"-652 -180 OFFCURVE",
"-651 -181 OFFCURVE",
"-652 -188 CURVE",
"-652 -193 OFFCURVE",
"-654 -197 OFFCURVE",
"-655 -200 CURVE",
"-657 -205 OFFCURVE",
"-696 -234 OFFCURVE",
"-702 -236 CURVE",
"-710 -237 OFFCURVE",
"-713 -237 OFFCURVE",
"-729 -232 CURVE"
);
},
{
closed = 1;
nodes = (
"-526 -230 OFFCURVE",
"-541 -225 OFFCURVE",
"-551 -222 CURVE",
"-576 -214 OFFCURVE",
"-597 -204 OFFCURVE",
"-601 -198 CURVE",
"-605 -192 OFFCURVE",
"-605 -189 OFFCURVE",
"-602 -179 CURVE",
"-599 -172 OFFCURVE",
"-596 -169 OFFCURVE",
"-577 -153 CURVE",
"-556 -135 LINE",
"-545 -135 LINE",
"-527 -135 OFFCURVE",
"-511 -139 OFFCURVE",
"-483 -152 CURVE",
"-457 -162 OFFCURVE",
"-455 -163 OFFCURVE",
"-448 -172 CURVE",
"-442 -180 OFFCURVE",
"-441 -181 OFFCURVE",
"-442 -188 CURVE",
"-442 -193 OFFCURVE",
"-444 -197 OFFCURVE",
"-445 -200 CURVE",
"-447 -205 OFFCURVE",
"-486 -234 OFFCURVE",
"-492 -236 CURVE",
"-500 -237 OFFCURVE",
"-503 -237 OFFCURVE",
"-519 -232 CURVE"
);
},
{
closed = 1;
nodes = (
"-316 -230 OFFCURVE",
"-331 -225 OFFCURVE",
"-341 -222 CURVE",
"-366 -214 OFFCURVE",
"-387 -204 OFFCURVE",
"-391 -198 CURVE",
"-395 -192 OFFCURVE",
"-395 -189 OFFCURVE",
"-392 -179 CURVE",
"-389 -172 OFFCURVE",
"-386 -169 OFFCURVE",
"-367 -153 CURVE",
"-346 -135 LINE",
"-335 -135 LINE",
"-317 -135 OFFCURVE",
"-301 -139 OFFCURVE",
"-273 -152 CURVE",
"-247 -162 OFFCURVE",
"-245 -163 OFFCURVE",
"-238 -172 CURVE",
"-232 -180 OFFCURVE",
"-231 -181 OFFCURVE",
"-232 -188 CURVE",
"-232 -193 OFFCURVE",
"-234 -197 OFFCURVE",
"-235 -200 CURVE",
"-237 -205 OFFCURVE",
"-276 -234 OFFCURVE",
"-282 -236 CURVE",
"-290 -237 OFFCURVE",
"-293 -237 OFFCURVE",
"-309 -232 CURVE"
);
}
);
width = 0;
}
);
unicode = 0068;
},
{
glyphname = j;
lastChange = "2017-11-07 01:44:14 +0000";
layers = (
{
layerId = "54030A0A-E51B-4EE4-A223-77D7BA97D65F";
paths = (
{
closed = 1;
nodes = (
"-152 -331 OFFCURVE",
"-183 -326 OFFCURVE",
"-206 -317 CURVE",
"-226 -310 OFFCURVE",
"-240 -305 OFFCURVE",
"-242 -301 CURVE",
"-243 -300 OFFCURVE",
"-240 -297 OFFCURVE",
"-238 -293 CURVE",
"-236 -289 OFFCURVE",
"-230 -282 OFFCURVE",
"-229 -278 CURVE",
"-220 -257 OFFCURVE",
"-226 -228 OFFCURVE",
"-240 -210 CURVE",
"-251 -200 OFFCURVE",
"-261 -195 OFFCURVE",
"-308 -184 CURVE",
"-353 -172 OFFCURVE",
"-385 -167 OFFCURVE",
"-411 -163 CURVE",
"-449 -160 OFFCURVE",
"-546 -156 OFFCURVE",
"-606 -156 CURVE",
"-670 -156 OFFCURVE",
"-806 -158 OFFCURVE",
"-852 -161 CURVE",
"-918 -167 OFFCURVE",
"-957 -168 OFFCURVE",
"-1045 -169 CURVE",
"-1121 -171 LINE",
"-1124 -166 LINE",
"-1127 -160 LINE",
"-1121 -154 LINE",
"-1108 -140 OFFCURVE",
"-1077 -132 OFFCURVE",
"-1016 -131 CURVE",
"-998 -129 OFFCURVE",
"-968 -127 OFFCURVE",
"-948 -126 CURVE",
"-929 -125 OFFCURVE",
"-894 -123 OFFCURVE",
"-873 -122 CURVE",
"-706 -114 OFFCURVE",
"-532 -112 OFFCURVE",
"-457 -118 CURVE",
"-324 -129 OFFCURVE",
"-210 -150 OFFCURVE",
"-159 -173 CURVE",
"-131 -186 OFFCURVE",
"-103 -201 OFFCURVE",
"-87 -211 CURVE",
"-73 -220 OFFCURVE",
"-56 -239 OFFCURVE",
"-49 -254 CURVE",
"-45 -261 OFFCURVE",
"-45 -263 OFFCURVE",
"-45 -280 CURVE",
"-45 -296 OFFCURVE",
"-45 -300 OFFCURVE",
"-48 -307 CURVE",
"-54 -322 OFFCURVE",
"-68 -330 OFFCURVE",
"-86 -334 CURVE",
"-97 -336 OFFCURVE",
"-103 -336 OFFCURVE",
"-127 -334 CURVE"
);
}
);
width = 0;
}
);
unicode = 006A;
},
{
glyphname = k;
lastChange = "2017-11-07 01:44:14 +0000";
layers = (
{
layerId = "54030A0A-E51B-4EE4-A223-77D7BA97D65F";
paths = (
{
closed = 1;
nodes = (
"-152 -331 OFFCURVE",
"-183 -326 OFFCURVE",
"-206 -317 CURVE",
"-226 -310 OFFCURVE",
"-240 -305 OFFCURVE",
"-242 -301 CURVE",
"-243 -300 OFFCURVE",
"-240 -297 OFFCURVE",
"-238 -293 CURVE",
"-236 -289 OFFCURVE",
"-230 -282 OFFCURVE",
"-229 -278 CURVE",
"-220 -257 OFFCURVE",
"-226 -228 OFFCURVE",
"-240 -210 CURVE",
"-251 -200 OFFCURVE",
"-261 -195 OFFCURVE",
"-308 -184 CURVE",
"-353 -172 OFFCURVE",
"-385 -167 OFFCURVE",
"-411 -163 CURVE",
"-449 -160 OFFCURVE",
"-546 -156 OFFCURVE",
"-606 -156 CURVE",
"-670 -156 OFFCURVE",
"-806 -158 OFFCURVE",
"-852 -161 CURVE",
"-918 -167 OFFCURVE",
"-957 -168 OFFCURVE",
"-1045 -169 CURVE",
"-1121 -171 LINE",
"-1124 -166 LINE",
"-1127 -160 LINE",
"-1121 -154 LINE",
"-1108 -140 OFFCURVE",
"-1077 -132 OFFCURVE",
"-1016 -131 CURVE",
"-998 -129 OFFCURVE",
"-968 -127 OFFCURVE",
"-948 -126 CURVE",
"-929 -125 OFFCURVE",
"-894 -123 OFFCURVE",
"-873 -122 CURVE",
"-706 -114 OFFCURVE",
"-532 -112 OFFCURVE",
"-457 -118 CURVE",
"-324 -129 OFFCURVE",
"-210 -150 OFFCURVE",
"-159 -173 CURVE",
"-131 -186 OFFCURVE",
"-103 -201 OFFCURVE",
"-87 -211 CURVE",
"-73 -220 OFFCURVE",
"-56 -239 OFFCURVE",
"-49 -254 CURVE",
"-45 -261 OFFCURVE",
"-45 -263 OFFCURVE",
"-45 -280 CURVE",
"-45 -296 OFFCURVE",
"-45 -300 OFFCURVE",
"-48 -307 CURVE",
"-54 -322 OFFCURVE",
"-68 -330 OFFCURVE",
"-86 -334 CURVE",
"-97 -336 OFFCURVE",
"-103 -336 OFFCURVE",
"-127 -334 CURVE"
);
},
{
closed = 1;
nodes = (
"-598 -286 OFFCURVE",
"-611 -281 OFFCURVE",
"-618 -279 CURVE",
"-639 -272 OFFCURVE",
"-657 -264 OFFCURVE",
"-660 -259 CURVE",
"-663 -254 OFFCURVE",
"-663 -253 OFFCURVE",
"-661 -244 CURVE",
"-658 -237 OFFCURVE",
"-656 -235 OFFCURVE",
"-640 -222 CURVE",
"-623 -208 LINE",
"-615 -208 LINE",
"-599 -208 OFFCURVE",
"-586 -211 OFFCURVE",
"-563 -221 CURVE",
"-541 -230 OFFCURVE",
"-539 -231 OFFCURVE",
"-535 -237 CURVE",
"-530 -245 OFFCURVE",
"-529 -246 OFFCURVE",
"-530 -252 CURVE",
"-530 -254 OFFCURVE",
"-531 -258 OFFCURVE",
"-532 -261 CURVE",
"-534 -265 OFFCURVE",
"-565 -290 OFFCURVE",
"-571 -291 CURVE",
"-577 -291 OFFCURVE",
"-579 -291 OFFCURVE",
"-593 -288 CURVE"
);
}
);
width = 0;
}
);
unicode = 006B;
},
{
glyphname = l;
lastChange = "2019-03-05 21:02:11 +0000";
layers = (
{
layerId = "54030A0A-E51B-4EE4-A223-77D7BA97D65F";
paths = (
{
closed = 1;
nodes = (
"-240 -403 OFFCURVE",
"-212 -346 OFFCURVE",
"-207 -339 CURVE",
"-192 -320 OFFCURVE",
"-196 -307 OFFCURVE",
"-221 -300 CURVE",
"-230 -297 OFFCURVE",
"-236 -297 OFFCURVE",
"-249 -300 CURVE SMOOTH",
"-277 -306 OFFCURVE",
"-296 -323 OFFCURVE",
"-306 -353 CURVE",
"-311 -365 LINE",
"-320 -366 LINE",
"-326 -366 OFFCURVE",
"-342 -366 OFFCURVE",
"-357 -365 CURVE SMOOTH",
"-384 -364 LINE",
"-384 -360 LINE",
"-385 -353 OFFCURVE",
"-379 -333 OFFCURVE",
"-374 -323 CURVE",
"-368 -312 OFFCURVE",
"-357 -299 OFFCURVE",
"-345 -290 CURVE SMOOTH",
"-315 -267 OFFCURVE",
"-265 -253 OFFCURVE",
"-218 -255 CURVE SMOOTH",
"-193 -256 OFFCURVE",
"-182 -259 OFFCURVE",
"-157 -274 CURVE SMOOTH",
"-140 -284 OFFCURVE",
"-132 -296 OFFCURVE",
"-131 -313 CURVE SMOOTH",
"-130 -329 OFFCURVE",
"-132 -338 OFFCURVE",
"-142 -354 CURVE",
"-147 -361 OFFCURVE",
"-151 -368 OFFCURVE",
"-151 -368 CURVE",
"-149 -369 OFFCURVE",
"71 -374 OFFCURVE",
"207 -376 CURVE SMOOTH",
"360 -378 LINE",
"373 -391 LINE SMOOTH",
"380 -398 OFFCURVE",
"386 -405 OFFCURVE",
"385 -405 CURVE",
"384 -407 OFFCURVE",
"-238 -407 OFFCURVE",
"-239 -405 CURVE SMOOTH"
);
}
);
width = 0;
}
);
unicode = 006C;
},
{
glyphname = m;
lastChange = "2017-11-07 01:44:14 +0000";
layers = (
{
layerId = "54030A0A-E51B-4EE4-A223-77D7BA97D65F";
paths = (
{
closed = 1;
nodes = (
"-623 -281 OFFCURVE",
"-778 -248 OFFCURVE",
"-1011 -188 CURVE",
"-1117 -162 OFFCURVE",
"-1126 -159 OFFCURVE",
"-1144 -145 CURVE",
"-1153 -138 OFFCURVE",
"-1159 -129 OFFCURVE",
"-1159 -124 CURVE",
"-1159 -118 OFFCURVE",
"-1151 -112 OFFCURVE",
"-1145 -112 CURVE",
"-1130 -112 OFFCURVE",
"-1020 -137 OFFCURVE",
"-803 -188 CURVE",
"-743 -203 OFFCURVE",
"-670 -219 OFFCURVE",
"-641 -225 CURVE",
"-587 -236 LINE",
"-573 -233 LINE",
"-542 -227 OFFCURVE",
"-493 -208 OFFCURVE",
"-422 -173 CURVE",
"-396 -160 OFFCURVE",
"-354 -142 OFFCURVE",
"-321 -129 CURVE",
"-253 -102 OFFCURVE",
"-244 -99 OFFCURVE",
"-225 -95 CURVE",
"-205 -92 OFFCURVE",
"-191 -92 OFFCURVE",
"-172 -96 CURVE",
"-163 -98 OFFCURVE",
"-132 -104 OFFCURVE",
"-103 -109 CURVE",
"-74 -114 OFFCURVE",
"-42 -120 OFFCURVE",
"-33 -122 CURVE",
"17 -135 OFFCURVE",
"14 -134 OFFCURVE",
"14 -139 CURVE",
"14 -142 OFFCURVE",
"12 -145 OFFCURVE",
"7 -147 CURVE",
"-2 -152 OFFCURVE",
"-43 -166 OFFCURVE",
"-100 -183 CURVE",
"-127 -191 OFFCURVE",
"-163 -204 OFFCURVE",
"-191 -215 CURVE",
"-216 -225 OFFCURVE",
"-251 -238 OFFCURVE",
"-269 -243 CURVE",
"-286 -249 OFFCURVE",
"-333 -266 OFFCURVE",
"-372 -282 CURVE",
"-411 -297 OFFCURVE",
"-444 -309 OFFCURVE",
"-445 -309 CURVE",
"-447 -309 OFFCURVE",
"-460 -307 OFFCURVE",
"-475 -305 CURVE"
);
},
{
closed = 1;
nodes = (
"-636 -164 OFFCURVE",
"-697 -148 OFFCURVE",
"-757 -122 CURVE",
"-788 -108 OFFCURVE",
"-803 -100 OFFCURVE",
"-813 -91 CURVE",
"-821 -84 OFFCURVE",
"-821 -84 OFFCURVE",
"-818 -80 CURVE",
"-816 -78 OFFCURVE",
"-812 -76 OFFCURVE",
"-810 -76 CURVE",
"-808 -76 OFFCURVE",
"-791 -83 OFFCURVE",
"-773 -92 CURVE",
"-699 -128 OFFCURVE",
"-659 -139 OFFCURVE",
"-595 -139 CURVE",
"-562 -139 OFFCURVE",
"-547 -137 OFFCURVE",
"-537 -131 CURVE",
"-525 -124 OFFCURVE",
"-525 -123 OFFCURVE",
"-540 -104 CURVE",
"-547 -95 OFFCURVE",
"-554 -86 OFFCURVE",
"-554 -84 CURVE",
"-554 -79 OFFCURVE",
"-543 -76 OFFCURVE",
"-528 -77 CURVE",
"-500 -79 OFFCURVE",
"-474 -90 OFFCURVE",
"-455 -106 CURVE",
"-446 -114 LINE",
"-447 -123 LINE",
"-449 -134 OFFCURVE",
"-451 -140 OFFCURVE",
"-459 -147 CURVE",
"-477 -165 OFFCURVE",
"-528 -174 OFFCURVE",
"-581 -169 CURVE"
);
}
);
width = 0;
}
);
unicode = 006D;
},
{
glyphname = n;
lastChange = "2017-11-07 01:44:14 +0000";
layers = (
{
layerId = "54030A0A-E51B-4EE4-A223-77D7BA97D65F";
paths = (
{
closed = 1;
nodes = (
"-623 -281 OFFCURVE",
"-778 -248 OFFCURVE",
"-1011 -188 CURVE",
"-1117 -162 OFFCURVE",
"-1126 -159 OFFCURVE",
"-1144 -145 CURVE",
"-1153 -138 OFFCURVE",
"-1159 -129 OFFCURVE",
"-1159 -124 CURVE",
"-1159 -118 OFFCURVE",
"-1151 -112 OFFCURVE",
"-1145 -112 CURVE",
"-1130 -112 OFFCURVE",
"-1020 -137 OFFCURVE",
"-803 -188 CURVE",
"-743 -203 OFFCURVE",
"-670 -219 OFFCURVE",
"-641 -225 CURVE",
"-587 -236 LINE",
"-573 -233 LINE",
"-542 -227 OFFCURVE",
"-493 -208 OFFCURVE",
"-422 -173 CURVE",
"-396 -160 OFFCURVE",
"-354 -142 OFFCURVE",
"-321 -129 CURVE",
"-253 -102 OFFCURVE",
"-244 -99 OFFCURVE",
"-225 -95 CURVE",
"-205 -92 OFFCURVE",
"-191 -92 OFFCURVE",
"-172 -96 CURVE",
"-163 -98 OFFCURVE",
"-132 -104 OFFCURVE",
"-103 -109 CURVE",
"-74 -114 OFFCURVE",
"-42 -120 OFFCURVE",
"-33 -122 CURVE",
"17 -135 OFFCURVE",
"14 -134 OFFCURVE",
"14 -139 CURVE",
"14 -142 OFFCURVE",
"12 -145 OFFCURVE",
"7 -147 CURVE",
"-2 -152 OFFCURVE",
"-43 -166 OFFCURVE",
"-100 -183 CURVE",
"-127 -191 OFFCURVE",
"-163 -204 OFFCURVE",
"-191 -215 CURVE",
"-216 -225 OFFCURVE",
"-251 -238 OFFCURVE",
"-269 -243 CURVE",
"-286 -249 OFFCURVE",
"-333 -266 OFFCURVE",
"-372 -282 CURVE",
"-411 -297 OFFCURVE",
"-444 -309 OFFCURVE",
"-445 -309 CURVE",
"-447 -309 OFFCURVE",
"-460 -307 OFFCURVE",
"-475 -305 CURVE"
);
}
);
width = 0;
}
);
unicode = 006E;
},
{
glyphname = s;
lastChange = "2017-11-07 01:44:14 +0000";
layers = (
{
layerId = "54030A0A-E51B-4EE4-A223-77D7BA97D65F";
paths = (
{
closed = 1;
nodes = (
"-306 196 OFFCURVE",
"-367 212 OFFCURVE",
"-427 238 CURVE",
"-458 252 OFFCURVE",
"-473 260 OFFCURVE",
"-483 269 CURVE",
"-491 276 OFFCURVE",
"-491 276 OFFCURVE",
"-488 280 CURVE",
"-486 282 OFFCURVE",
"-482 284 OFFCURVE",
"-480 284 CURVE",
"-478 284 OFFCURVE",
"-461 277 OFFCURVE",
"-443 268 CURVE",
"-369 232 OFFCURVE",
"-329 221 OFFCURVE",
"-265 221 CURVE",
"-232 221 OFFCURVE",
"-217 223 OFFCURVE",
"-207 229 CURVE",
"-195 236 OFFCURVE",
"-195 237 OFFCURVE",
"-210 256 CURVE",
"-217 265 OFFCURVE",
"-224 274 OFFCURVE",
"-224 276 CURVE",
"-224 281 OFFCURVE",
"-213 284 OFFCURVE",
"-198 283 CURVE",
"-170 281 OFFCURVE",
"-144 270 OFFCURVE",
"-125 254 CURVE",
"-116 246 LINE",
"-117 237 LINE",
"-119 226 OFFCURVE",
"-121 220 OFFCURVE",
"-129 213 CURVE",
"-147 195 OFFCURVE",
"-198 186 OFFCURVE",
"-251 191 CURVE"
);
}
);
width = 0;
}
);
unicode = 0073;
},
{
glyphname = v;
lastChange = "2017-11-15 04:57:48 +0000";
layers = (
{
layerId = "54030A0A-E51B-4EE4-A223-77D7BA97D65F";
paths = (
{
closed = 1;
nodes = (
"295 144 OFFCURVE",
"267 151 OFFCURVE",
"244 163 CURVE",
"228 171 OFFCURVE",
"208 183 OFFCURVE",
"204 189 CURVE",
"200 192 OFFCURVE",
"200 192 OFFCURVE",
"204 195 CURVE",
"206 196 OFFCURVE",
"209 198 OFFCURVE",
"212 199 CURVE",
"213 200 OFFCURVE",
"235 198 OFFCURVE",
"257 196 CURVE",
"282 194 OFFCURVE",
"303 192 OFFCURVE",
"306 192 CURVE",
"311 194 OFFCURVE",
"318 201 OFFCURVE",
"318 205 CURVE",
"318 207 OFFCURVE",
"312 221 OFFCURVE",
"304 239 CURVE",
"285 281 OFFCURVE",
"279 298 OFFCURVE",
"279 309 CURVE",
"279 319 OFFCURVE",
"282 328 OFFCURVE",
"292 335 CURVE",
"305 346 OFFCURVE",
"308 347 OFFCURVE",
"361 347 CURVE",
"423 348 OFFCURVE",
"435 346 OFFCURVE",
"442 335 CURVE",
"447 327 OFFCURVE",
"447 317 OFFCURVE",
"441 309 CURVE",
"439 304 OFFCURVE",
"437 304 OFFCURVE",
"431 304 CURVE",
"428 304 OFFCURVE",
"417 306 OFFCURVE",
"408 307 CURVE",
"400 309 OFFCURVE",
"392 312 OFFCURVE",
"391 311 CURVE",
"389 309 OFFCURVE",
"396 291 OFFCURVE",
"414 255 CURVE",
"434 215 LINE",
"434 196 LINE",
"435 179 OFFCURVE",
"435 178 OFFCURVE",
"431 170 CURVE",
"418 145 OFFCURVE",
"379 133 OFFCURVE",
"324 139 CURVE"
);
},
{
closed = 1;
nodes = (
"950 183 OFFCURVE",
"920 192 OFFCURVE",
"899 207 CURVE",
"886 216 OFFCURVE",
"868 251 OFFCURVE",
"855 290 CURVE",
"847 314 OFFCURVE",
"844 318 OFFCURVE",
"833 320 CURVE",
"826 322 OFFCURVE",
"823 324 OFFCURVE",
"823 329 CURVE",
"823 336 OFFCURVE",
"827 336 OFFCURVE",
"861 335 CURVE",
"920 331 OFFCURVE",
"947 326 OFFCURVE",
"964 313 CURVE",
"993 293 OFFCURVE",
"1004 275 OFFCURVE",
"1017 229 CURVE",
"1023 209 OFFCURVE",
"1024 209 OFFCURVE",
"1050 203 CURVE",
"1067 199 OFFCURVE",
"1068 199 OFFCURVE",
"1068 195 CURVE",
"1068 191 OFFCURVE",
"1066 189 OFFCURVE",
"1056 185 CURVE",
"1044 179 LINE",
"1019 178 LINE",
"1006 178 OFFCURVE",
"991 178 OFFCURVE",
"988 179 CURVE"
);
},
{
closed = 1;
nodes = (
"722 192 OFFCURVE",
"686 207 OFFCURVE",
"673 224 CURVE",
"663 237 OFFCURVE",
"651 263 OFFCURVE",
"643 290 CURVE",
"634 315 OFFCURVE",
"634 315 OFFCURVE",
"627 319 CURVE",
"623 321 OFFCURVE",
"618 323 OFFCURVE",
"617 323 CURVE",
"615 323 OFFCURVE",
"613 324 OFFCURVE",
"611 326 CURVE",
"608 330 OFFCURVE",
"608 330 OFFCURVE",
"612 333 CURVE",
"615 336 OFFCURVE",
"618 336 OFFCURVE",
"636 335 CURVE",
"684 333 OFFCURVE",
"722 328 OFFCURVE",
"741 321 CURVE",
"751 317 OFFCURVE",
"767 304 OFFCURVE",
"776 293 CURVE",
"785 281 OFFCURVE",
"795 260 OFFCURVE",
"803 237 CURVE",
"811 214 OFFCURVE",
"812 214 OFFCURVE",
"837 208 CURVE",
"846 207 OFFCURVE",
"854 204 OFFCURVE",
"855 203 CURVE",
"857 200 OFFCURVE",
"854 196 OFFCURVE",
"843 191 CURVE",
"833 185 OFFCURVE",
"833 185 OFFCURVE",
"803 185 CURVE",
"786 185 OFFCURVE",
"768 186 OFFCURVE",
"761 186 CURVE"
);
},
{
closed = 1;
nodes = (
"1323 71 OFFCURVE",
"1303 71 OFFCURVE",
"1283 69 CURVE",
"1263 67 OFFCURVE",
"1210 64 OFFCURVE",
"1165 62 CURVE",
"1121 60 OFFCURVE",
"1060 54 OFFCURVE",
"1030 51 CURVE",
"970 44 OFFCURVE",
"854 25 OFFCURVE",
"812 15 CURVE",
"769 4 OFFCURVE",
"437 -34 OFFCURVE",
"361 -39 CURVE",
"218 -46 OFFCURVE",
"154 -44 OFFCURVE",
"135 -33 CURVE",
"132 -31 OFFCURVE",
"120 -25 OFFCURVE",
"111 -21 CURVE",
"102 -16 OFFCURVE",
"83 -4 OFFCURVE",
"69 5 CURVE",
"45 22 OFFCURVE",
"44 22 OFFCURVE",
"43 33 CURVE",
"42 48 OFFCURVE",
"46 51 OFFCURVE",
"76 48 CURVE",
"139 44 OFFCURVE",
"141 44 OFFCURVE",
"335 65 CURVE",
"480 81 OFFCURVE",
"557 90 OFFCURVE",
"669 106 CURVE",
"748 118 OFFCURVE",
"875 134 OFFCURVE",
"950 142 CURVE",
"1099 160 OFFCURVE",
"1100 160 OFFCURVE",
"1167 149 CURVE",
"1217 140 OFFCURVE",
"1304 114 OFFCURVE",
"1319 104 CURVE",
"1327 98 OFFCURVE",
"1339 75 OFFCURVE",
"1335 72 CURVE",
"1334 71 OFFCURVE",
"1330 70 OFFCURVE",
"1327 71 CURVE"
);
}
);
width = 1348;
}
);
unicode = 0076;
},
{
glyphname = x;
lastChange = "2017-11-15 04:55:41 +0000";
layers = (
{
layerId = "54030A0A-E51B-4EE4-A223-77D7BA97D65F";
paths = (
{
closed = 1;
nodes = (
"567 221 OFFCURVE",
"498 225 OFFCURVE",
"442 222 CURVE",
"314 214 OFFCURVE",
"324 214 OFFCURVE",
"235 216 CURVE",
"129 218 OFFCURVE",
"104 221 OFFCURVE",
"39 241 CURVE",
"10 250 OFFCURVE",
"0 253 OFFCURVE",
"-38 278 CURVE",
"-95 311 OFFCURVE",
"-126 344 OFFCURVE",
"-131 372 CURVE",
"-131 381 OFFCURVE",
"-131 388 OFFCURVE",
"-124 395 CURVE",
"-114 407 OFFCURVE",
"-96 415 OFFCURVE",
"-69 416 CURVE",
"-5 420 OFFCURVE",
"52 406 OFFCURVE",
"95 377 CURVE",
"109 369 OFFCURVE",
"127 352 OFFCURVE",
"133 345 CURVE",
"141 335 OFFCURVE",
"139 335 OFFCURVE",
"80 338 CURVE",
"26 344 OFFCURVE",
"11 344 OFFCURVE",
"1 336 CURVE",
"-6 332 OFFCURVE",
"-6 329 OFFCURVE",
"-5 315 CURVE",
"-5 305 OFFCURVE",
"3 293 OFFCURVE",
"11 289 CURVE",
"13 288 OFFCURVE",
"34 284 OFFCURVE",
"52 279 CURVE",
"98 267 OFFCURVE",
"106 267 OFFCURVE",
"222 281 CURVE",
"339 293 OFFCURVE",
"346 294 OFFCURVE",
"438 296 CURVE",
"526 301 OFFCURVE",
"534 301 OFFCURVE",
"567 290 CURVE",
"592 283 OFFCURVE",
"611 273 OFFCURVE",
"647 253 CURVE",
"673 238 OFFCURVE",
"679 235 OFFCURVE",
"690 222 CURVE",
"709 200 OFFCURVE",
"707 200 OFFCURVE",
"657 207 CURVE"
);
},
{
closed = 1;
nodes = (
"1039 203 OFFCURVE",
"1009 212 OFFCURVE",
"988 227 CURVE",
"975 236 OFFCURVE",
"957 271 OFFCURVE",
"944 310 CURVE",
"936 334 OFFCURVE",
"933 338 OFFCURVE",
"922 340 CURVE",
"915 342 OFFCURVE",
"912 344 OFFCURVE",
"912 349 CURVE",
"912 356 OFFCURVE",
"916 356 OFFCURVE",
"950 355 CURVE",
"1009 351 OFFCURVE",
"1036 346 OFFCURVE",
"1053 333 CURVE",
"1082 313 OFFCURVE",
"1093 295 OFFCURVE",
"1106 249 CURVE",
"1112 229 OFFCURVE",
"1113 229 OFFCURVE",
"1139 223 CURVE",
"1156 219 OFFCURVE",
"1157 219 OFFCURVE",
"1157 215 CURVE",
"1157 211 OFFCURVE",
"1155 209 OFFCURVE",
"1145 205 CURVE",
"1133 199 LINE",
"1108 198 LINE",
"1095 198 OFFCURVE",
"1080 198 OFFCURVE",
"1077 199 CURVE"
);
},
{
closed = 1;
nodes = (
"811 212 OFFCURVE",
"775 227 OFFCURVE",
"762 244 CURVE",
"752 257 OFFCURVE",
"740 283 OFFCURVE",
"732 310 CURVE",
"723 335 OFFCURVE",
"723 335 OFFCURVE",
"716 339 CURVE",
"712 341 OFFCURVE",
"707 343 OFFCURVE",
"706 343 CURVE",
"704 343 OFFCURVE",
"702 344 OFFCURVE",
"700 346 CURVE",
"697 350 OFFCURVE",
"697 350 OFFCURVE",
"701 353 CURVE",
"704 356 OFFCURVE",
"707 356 OFFCURVE",
"725 355 CURVE",
"773 353 OFFCURVE",
"811 348 OFFCURVE",
"830 341 CURVE",
"840 337 OFFCURVE",
"856 324 OFFCURVE",
"865 313 CURVE",
"874 301 OFFCURVE",
"884 280 OFFCURVE",
"892 257 CURVE",
"900 234 OFFCURVE",
"901 234 OFFCURVE",
"926 228 CURVE",
"935 227 OFFCURVE",
"943 224 OFFCURVE",
"944 223 CURVE",
"946 220 OFFCURVE",
"943 216 OFFCURVE",
"932 211 CURVE",
"922 205 OFFCURVE",
"922 205 OFFCURVE",
"892 205 CURVE",
"875 205 OFFCURVE",
"857 206 OFFCURVE",
"850 206 CURVE"
);
},
{
closed = 1;
nodes = (
"1323 81 OFFCURVE",
"1303 80 OFFCURVE",
"1283 79 CURVE",
"1264 76 OFFCURVE",
"1210 74 OFFCURVE",
"1165 71 CURVE",
"1121 69 OFFCURVE",
"1061 64 OFFCURVE",
"1031 61 CURVE",
"970 54 OFFCURVE",
"855 34 OFFCURVE",
"813 24 CURVE",
"770 14 OFFCURVE",
"438 -25 OFFCURVE",
"362 -29 CURVE",
"219 -37 OFFCURVE",
"155 -34 OFFCURVE",
"135 -24 CURVE",
"132 -21 OFFCURVE",
"120 -16 OFFCURVE",
"112 -12 CURVE",
"102 -7 OFFCURVE",
"83 5 OFFCURVE",
"69 14 CURVE",
"45 32 OFFCURVE",
"44 31 OFFCURVE",
"44 43 CURVE",
"43 58 OFFCURVE",
"46 60 OFFCURVE",
"76 58 CURVE",
"139 53 OFFCURVE",
"141 53 OFFCURVE",
"335 74 CURVE",
"480 90 OFFCURVE",
"557 100 OFFCURVE",
"669 115 CURVE",
"749 127 OFFCURVE",
"875 144 OFFCURVE",
"950 152 CURVE",
"1099 169 OFFCURVE",
"1100 169 OFFCURVE",
"1167 158 CURVE",
"1217 149 OFFCURVE",
"1304 124 OFFCURVE",
"1319 114 CURVE",
"1327 107 OFFCURVE",
"1339 85 OFFCURVE",
"1336 81 CURVE",
"1335 80 OFFCURVE",
"1331 80 OFFCURVE",
"1328 80 CURVE"
);
}
);
width = 1348;
}
);
unicode = 0078;
},
{
glyphname = z;
lastChange = "2017-11-08 04:35:43 +0000";
layers = (
{
layerId = "54030A0A-E51B-4EE4-A223-77D7BA97D65F";
paths = (
{
closed = 1;
nodes = (
"1155 -174 OFFCURVE",
"1125 -165 OFFCURVE",
"1104 -150 CURVE",
"1091 -141 OFFCURVE",
"1073 -106 OFFCURVE",
"1060 -67 CURVE",
"1052 -43 OFFCURVE",
"1049 -39 OFFCURVE",
"1038 -37 CURVE",
"1031 -35 OFFCURVE",
"1028 -33 OFFCURVE",
"1028 -28 CURVE",
"1028 -21 OFFCURVE",
"1032 -21 OFFCURVE",
"1066 -22 CURVE",
"1125 -26 OFFCURVE",
"1152 -31 OFFCURVE",
"1169 -44 CURVE",
"1198 -64 OFFCURVE",
"1209 -82 OFFCURVE",
"1222 -128 CURVE",
"1228 -148 OFFCURVE",
"1229 -148 OFFCURVE",
"1255 -154 CURVE",
"1272 -158 OFFCURVE",
"1273 -158 OFFCURVE",
"1273 -162 CURVE",
"1273 -166 OFFCURVE",
"1271 -168 OFFCURVE",
"1261 -172 CURVE",
"1249 -178 LINE",
"1224 -179 LINE",
"1211 -179 OFFCURVE",
"1196 -179 OFFCURVE",
"1193 -178 CURVE"
);
},
{
closed = 1;
nodes = (
"927 -165 OFFCURVE",
"891 -150 OFFCURVE",
"878 -133 CURVE",
"868 -120 OFFCURVE",
"856 -94 OFFCURVE",
"848 -67 CURVE",
"839 -42 OFFCURVE",
"839 -42 OFFCURVE",
"832 -38 CURVE",
"828 -36 OFFCURVE",
"823 -34 OFFCURVE",
"822 -34 CURVE",
"820 -34 OFFCURVE",
"818 -33 OFFCURVE",
"816 -31 CURVE",
"813 -27 OFFCURVE",
"813 -27 OFFCURVE",
"817 -24 CURVE",
"820 -21 OFFCURVE",
"823 -21 OFFCURVE",
"841 -22 CURVE",
"889 -24 OFFCURVE",
"927 -29 OFFCURVE",
"946 -36 CURVE",
"956 -40 OFFCURVE",
"972 -53 OFFCURVE",
"981 -64 CURVE",
"990 -76 OFFCURVE",
"1000 -97 OFFCURVE",
"1008 -120 CURVE",
"1016 -143 OFFCURVE",
"1017 -143 OFFCURVE",
"1042 -149 CURVE",
"1051 -150 OFFCURVE",
"1059 -153 OFFCURVE",
"1060 -154 CURVE",
"1062 -157 OFFCURVE",
"1059 -161 OFFCURVE",
"1048 -166 CURVE",
"1038 -172 OFFCURVE",
"1038 -172 OFFCURVE",
"1008 -172 CURVE",
"991 -172 OFFCURVE",
"973 -171 OFFCURVE",
"966 -171 CURVE"
);
},
{
closed = 1;
nodes = (
"1310 70 OFFCURVE",
"1290 69 OFFCURVE",
"1270 68 CURVE",
"1250 65 OFFCURVE",
"1197 63 OFFCURVE",
"1152 60 CURVE",
"1108 58 OFFCURVE",
"1047 52 OFFCURVE",
"1017 50 CURVE",
"956 42 OFFCURVE",
"841 23 OFFCURVE",
"799 13 CURVE",
"756 3 OFFCURVE",
"424 -36 OFFCURVE",
"348 -40 CURVE",
"205 -48 OFFCURVE",
"141 -46 OFFCURVE",
"122 -35 CURVE",
"118 -32 OFFCURVE",
"106 -27 OFFCURVE",
"98 -23 CURVE",
"88 -18 OFFCURVE",
"70 -6 OFFCURVE",
"55 3 CURVE",
"31 20 OFFCURVE",
"30 20 OFFCURVE",
"30 31 CURVE",
"29 46 OFFCURVE",
"33 49 OFFCURVE",
"62 46 CURVE",
"125 42 OFFCURVE",
"127 42 OFFCURVE",
"321 63 CURVE",
"466 79 OFFCURVE",
"544 88 OFFCURVE",
"656 104 CURVE",
"735 116 OFFCURVE",
"862 132 OFFCURVE",
"936 141 CURVE",
"1085 158 OFFCURVE",
"1086 158 OFFCURVE",
"1153 147 CURVE",
"1204 138 OFFCURVE",
"1290 113 OFFCURVE",
"1306 102 CURVE",
"1313 96 OFFCURVE",
"1325 74 OFFCURVE",
"1322 70 CURVE",
"1321 69 OFFCURVE",
"1317 68 OFFCURVE",
"1314 69 CURVE"
);
}
);
width = 1352;
}
);
unicode = 007A;
},
{
glyphname = Omega;
lastChange = "2017-11-08 04:36:21 +0000";
layers = (
{
layerId = "54030A0A-E51B-4EE4-A223-77D7BA97D65F";
paths = (
{
closed = 1;
nodes = (
"1235 61 OFFCURVE",
"1147 58 OFFCURVE",
"1054 53 CURVE",
"962 47 OFFCURVE",
"884 36 OFFCURVE",
"750 9 CURVE",
"572 -26 OFFCURVE",
"244 -54 OFFCURVE",
"153 -41 CURVE",
"129 -38 OFFCURVE",
"87 -16 OFFCURVE",
"54 11 CURVE",
"30 31 LINE",
"38 41 LINE",
"44 50 OFFCURVE",
"49 51 OFFCURVE",
"57 49 CURVE",
"63 47 OFFCURVE",
"90 45 OFFCURVE",
"115 43 CURVE",
"154 42 OFFCURVE",
"191 46 OFFCURVE",
"387 71 CURVE",
"511 86 OFFCURVE",
"705 111 OFFCURVE",
"818 125 CURVE",
"1024 151 LINE",
"1068 143 LINE",
"1155 129 OFFCURVE",
"1255 85 OFFCURVE",
"1251 64 CURVE",
"1249 57 OFFCURVE",
"1243 54 OFFCURVE",
"1239 57 CURVE"
);
},
{
closed = 1;
nodes = (
"790 -214 OFFCURVE",
"760 -205 OFFCURVE",
"739 -190 CURVE",
"726 -181 OFFCURVE",
"708 -146 OFFCURVE",
"695 -107 CURVE",
"687 -83 OFFCURVE",
"684 -79 OFFCURVE",
"673 -77 CURVE",
"666 -75 OFFCURVE",
"663 -73 OFFCURVE",
"663 -68 CURVE",
"663 -61 OFFCURVE",
"667 -61 OFFCURVE",
"701 -62 CURVE",
"760 -66 OFFCURVE",
"787 -71 OFFCURVE",
"804 -84 CURVE",
"833 -104 OFFCURVE",
"844 -122 OFFCURVE",
"857 -168 CURVE",
"863 -188 OFFCURVE",
"864 -188 OFFCURVE",
"890 -194 CURVE",
"907 -198 OFFCURVE",
"908 -198 OFFCURVE",
"908 -202 CURVE",
"908 -206 OFFCURVE",
"906 -208 OFFCURVE",
"896 -212 CURVE",
"884 -218 LINE",
"859 -219 LINE",
"846 -219 OFFCURVE",
"831 -219 OFFCURVE",
"828 -218 CURVE"
);
},
{
closed = 1;
nodes = (
"562 -205 OFFCURVE",
"526 -190 OFFCURVE",
"513 -173 CURVE",
"503 -160 OFFCURVE",
"491 -134 OFFCURVE",
"483 -107 CURVE",
"474 -82 OFFCURVE",
"474 -82 OFFCURVE",
"467 -78 CURVE",
"463 -76 OFFCURVE",
"458 -74 OFFCURVE",
"457 -74 CURVE",
"455 -74 OFFCURVE",
"453 -73 OFFCURVE",
"451 -71 CURVE",
"448 -67 OFFCURVE",
"448 -67 OFFCURVE",
"452 -64 CURVE",
"455 -61 OFFCURVE",
"458 -61 OFFCURVE",
"476 -62 CURVE",
"524 -64 OFFCURVE",
"562 -69 OFFCURVE",
"581 -76 CURVE",
"591 -80 OFFCURVE",
"607 -93 OFFCURVE",
"616 -104 CURVE",
"625 -116 OFFCURVE",
"635 -137 OFFCURVE",
"643 -160 CURVE",
"651 -183 OFFCURVE",
"652 -183 OFFCURVE",
"677 -189 CURVE",
"686 -190 OFFCURVE",
"694 -193 OFFCURVE",
"695 -194 CURVE",
"697 -197 OFFCURVE",
"694 -201 OFFCURVE",
"683 -206 CURVE",
"673 -212 OFFCURVE",
"673 -212 OFFCURVE",
"643 -212 CURVE",
"626 -212 OFFCURVE",
"608 -211 OFFCURVE",
"601 -211 CURVE"
);
}
);
width = 1281;
}
);
unicode = 03A9;
},
{
glyphname = zero;
lastChange = "2017-11-15 04:48:14 +0000";
layers = (
{
layerId = "54030A0A-E51B-4EE4-A223-77D7BA97D65F";
paths = (
{
closed = 1;
nodes = (
"1329 72 OFFCURVE",
"1308 71 OFFCURVE",
"1288 70 CURVE",
"1269 67 OFFCURVE",
"1216 65 OFFCURVE",
"1170 62 CURVE",
"1126 60 OFFCURVE",
"1066 54 OFFCURVE",
"1036 52 CURVE",
"975 44 OFFCURVE",
"860 25 OFFCURVE",
"818 15 CURVE",
"775 5 OFFCURVE",
"443 -34 OFFCURVE",
"367 -38 CURVE",
"224 -46 OFFCURVE",
"160 -44 OFFCURVE",
"140 -33 CURVE",
"137 -30 OFFCURVE",
"125 -25 OFFCURVE",
"117 -21 CURVE",
"107 -16 OFFCURVE",
"89 -4 OFFCURVE",
"74 5 CURVE",
"50 22 OFFCURVE",
"49 22 OFFCURVE",
"49 33 CURVE",
"48 48 OFFCURVE",
"52 51 OFFCURVE",
"81 48 CURVE",
"144 44 OFFCURVE",
"146 44 OFFCURVE",
"340 65 CURVE",
"485 81 OFFCURVE",
"563 90 OFFCURVE",
"674 106 CURVE",
"754 118 OFFCURVE",
"881 135 OFFCURVE",
"955 143 CURVE",
"1104 160 OFFCURVE",
"1105 160 OFFCURVE",
"1172 149 CURVE",
"1222 140 OFFCURVE",
"1309 115 OFFCURVE",
"1325 104 CURVE",
"1332 98 OFFCURVE",
"1344 76 OFFCURVE",
"1341 72 CURVE",
"1340 71 OFFCURVE",
"1336 71 OFFCURVE",
"1333 71 CURVE"
);
},
{
closed = 1;
nodes = (
"1011 213 OFFCURVE",
"941 217 OFFCURVE",
"841 213 CURVE",
"788 211 OFFCURVE",
"665 209 OFFCURVE",
"570 209 CURVE",
"428 209 OFFCURVE",
"391 211 OFFCURVE",
"355 217 CURVE",
"280 230 OFFCURVE",
"222 246 OFFCURVE",
"179 266 CURVE",
"80 311 OFFCURVE",
"21 362 OFFCURVE",
"21 400 CURVE",
"21 439 OFFCURVE",
"50 450 OFFCURVE",
"149 450 CURVE",
"228 449 OFFCURVE",
"265 442 OFFCURVE",
"318 417 CURVE",
"354 401 OFFCURVE",
"403 366 OFFCURVE",
"400 359 CURVE",
"398 354 OFFCURVE",
"370 353 OFFCURVE",
"274 356 CURVE",
"204 358 OFFCURVE",
"189 352 OFFCURVE",
"205 320 CURVE",
"211 306 OFFCURVE",
"224 301 OFFCURVE",
"282 287 CURVE",
"344 275 OFFCURVE",
"357 275 OFFCURVE",
"517 291 CURVE",
"589 298 OFFCURVE",
"698 306 OFFCURVE",
"758 308 CURVE",
"818 310 OFFCURVE",
"880 312 OFFCURVE",
"893 314 CURVE",
"951 319 OFFCURVE",
"1018 303 OFFCURVE",
"1100 264 CURVE",
"1156 237 OFFCURVE",
"1191 209 OFFCURVE",
"1186 197 CURVE",
"1183 189 OFFCURVE",
"1181 189 OFFCURVE",
"1127 196 CURVE"
);
}
);
width = 1348;
}
);
unicode = 0030;
},
{
glyphname = one;
lastChange = "2017-11-08 01:45:50 +0000";
layers = (
{
layerId = "54030A0A-E51B-4EE4-A223-77D7BA97D65F";
paths = (
{
closed = 1;
nodes = (
"1310 70 OFFCURVE",
"1290 70 OFFCURVE",
"1270 69 CURVE",
"1250 66 OFFCURVE",
"1197 64 OFFCURVE",
"1152 61 CURVE",
"1108 59 OFFCURVE",
"1047 53 OFFCURVE",
"1017 51 CURVE",
"957 43 OFFCURVE",
"841 24 OFFCURVE",
"799 14 CURVE",
"756 3 OFFCURVE",
"425 -35 OFFCURVE",
"348 -40 CURVE",
"205 -47 OFFCURVE",
"142 -45 OFFCURVE",
"122 -34 CURVE",
"119 -32 OFFCURVE",
"107 -26 OFFCURVE",
"98 -22 CURVE",
"89 -17 OFFCURVE",
"70 -5 OFFCURVE",
"56 4 CURVE",
"32 21 OFFCURVE",
"31 21 OFFCURVE",
"30 32 CURVE",
"30 47 OFFCURVE",
"33 50 OFFCURVE",
"63 47 CURVE",
"126 43 OFFCURVE",
"128 43 OFFCURVE",
"322 64 CURVE",
"467 80 OFFCURVE",
"544 89 OFFCURVE",
"656 105 CURVE",
"735 117 OFFCURVE",
"862 133 OFFCURVE",
"937 141 CURVE",
"1086 159 OFFCURVE",
"1087 159 OFFCURVE",
"1154 148 CURVE",
"1204 139 OFFCURVE",
"1291 113 OFFCURVE",
"1306 103 CURVE",
"1314 97 OFFCURVE",
"1326 74 OFFCURVE",
"1322 71 CURVE",
"1321 70 OFFCURVE",
"1317 69 OFFCURVE",
"1314 70 CURVE"
);
}
);
width = 1353;
}
);
unicode = 0031;
},
{
glyphname = two;
lastChange = "2017-11-08 04:37:08 +0000";
layers = (
{
layerId = "54030A0A-E51B-4EE4-A223-77D7BA97D65F";
paths = (
{
closed = 1;
nodes = (
"739 -206 OFFCURVE",
"703 -191 OFFCURVE",
"690 -174 CURVE",
"680 -161 OFFCURVE",
"668 -135 OFFCURVE",
"660 -108 CURVE",
"651 -83 OFFCURVE",
"651 -83 OFFCURVE",
"644 -79 CURVE",
"640 -77 OFFCURVE",
"635 -75 OFFCURVE",
"634 -75 CURVE",
"632 -75 OFFCURVE",
"630 -74 OFFCURVE",
"628 -72 CURVE",
"625 -68 OFFCURVE",
"625 -68 OFFCURVE",
"629 -65 CURVE",
"632 -62 OFFCURVE",
"635 -62 OFFCURVE",
"653 -63 CURVE",
"701 -65 OFFCURVE",
"739 -70 OFFCURVE",
"758 -77 CURVE",
"768 -81 OFFCURVE",
"784 -94 OFFCURVE",
"793 -105 CURVE",
"802 -117 OFFCURVE",
"812 -138 OFFCURVE",
"820 -161 CURVE",
"828 -184 OFFCURVE",
"829 -184 OFFCURVE",
"854 -190 CURVE",
"863 -191 OFFCURVE",
"871 -194 OFFCURVE",
"872 -195 CURVE",
"874 -198 OFFCURVE",
"871 -202 OFFCURVE",
"860 -207 CURVE",
"850 -213 OFFCURVE",
"850 -213 OFFCURVE",
"820 -213 CURVE",
"803 -213 OFFCURVE",
"785 -212 OFFCURVE",
"778 -212 CURVE"
);
},
{
closed = 1;
nodes = (
"1310 70 OFFCURVE",
"1290 69 OFFCURVE",
"1270 68 CURVE",
"1250 65 OFFCURVE",
"1197 63 OFFCURVE",
"1152 60 CURVE",
"1108 58 OFFCURVE",
"1047 52 OFFCURVE",
"1017 50 CURVE",
"956 42 OFFCURVE",
"841 23 OFFCURVE",
"799 13 CURVE",
"756 3 OFFCURVE",
"424 -36 OFFCURVE",
"348 -40 CURVE",
"205 -48 OFFCURVE",
"141 -46 OFFCURVE",
"122 -35 CURVE",
"118 -32 OFFCURVE",
"107 -27 OFFCURVE",
"98 -23 CURVE",
"88 -18 OFFCURVE",
"70 -6 OFFCURVE",
"56 3 CURVE",
"31 20 OFFCURVE",
"30 20 OFFCURVE",
"30 31 CURVE",
"29 46 OFFCURVE",
"33 49 OFFCURVE",
"62 46 CURVE",
"125 42 OFFCURVE",
"127 42 OFFCURVE",
"321 63 CURVE",
"466 79 OFFCURVE",
"544 88 OFFCURVE",
"656 104 CURVE",
"735 116 OFFCURVE",
"862 133 OFFCURVE",
"936 141 CURVE",
"1085 158 OFFCURVE",
"1086 158 OFFCURVE",
"1153 147 CURVE",
"1204 138 OFFCURVE",
"1290 113 OFFCURVE",
"1306 102 CURVE",
"1314 96 OFFCURVE",
"1325 74 OFFCURVE",
"1322 70 CURVE",
"1321 69 OFFCURVE",
"1317 69 OFFCURVE",
"1314 69 CURVE"
);
}
);
width = 1353;
}
);
unicode = 0032;
},
{
glyphname = three;
lastChange = "2017-11-08 04:37:14 +0000";
layers = (
{
layerId = "54030A0A-E51B-4EE4-A223-77D7BA97D65F";
paths = (
{
closed = 1;
nodes = (
"556 230 OFFCURVE",
"520 245 OFFCURVE",
"507 262 CURVE",
"497 275 OFFCURVE",
"485 301 OFFCURVE",
"477 328 CURVE",
"468 353 OFFCURVE",
"468 353 OFFCURVE",
"461 357 CURVE",
"457 359 OFFCURVE",
"452 361 OFFCURVE",
"451 361 CURVE",
"449 361 OFFCURVE",
"447 362 OFFCURVE",
"445 364 CURVE",
"442 368 OFFCURVE",
"442 368 OFFCURVE",
"446 371 CURVE",
"449 374 OFFCURVE",
"452 374 OFFCURVE",
"470 373 CURVE",
"518 371 OFFCURVE",
"556 366 OFFCURVE",
"575 359 CURVE",
"585 355 OFFCURVE",
"601 342 OFFCURVE",
"610 331 CURVE",
"619 319 OFFCURVE",
"629 298 OFFCURVE",
"637 275 CURVE",
"645 252 OFFCURVE",
"646 252 OFFCURVE",
"671 246 CURVE",
"680 245 OFFCURVE",
"688 242 OFFCURVE",
"689 241 CURVE",
"691 238 OFFCURVE",
"688 234 OFFCURVE",
"677 229 CURVE",
"667 223 OFFCURVE",
"667 223 OFFCURVE",
"637 223 CURVE",
"620 223 OFFCURVE",
"602 224 OFFCURVE",
"595 224 CURVE"
);
},
{
closed = 1;
nodes = (
"1310 71 OFFCURVE",
"1290 71 OFFCURVE",
"1270 69 CURVE",
"1250 67 OFFCURVE",
"1197 65 OFFCURVE",
"1152 62 CURVE",
"1108 60 OFFCURVE",
"1047 54 OFFCURVE",
"1017 52 CURVE",
"957 44 OFFCURVE",
"841 25 OFFCURVE",
"799 15 CURVE",
"756 4 OFFCURVE",
"424 -34 OFFCURVE",
"348 -39 CURVE",
"205 -46 OFFCURVE",
"142 -44 OFFCURVE",
"122 -33 CURVE",
"119 -31 OFFCURVE",
"107 -25 OFFCURVE",
"98 -21 CURVE",
"89 -16 OFFCURVE",
"70 -4 OFFCURVE",
"56 5 CURVE",
"32 22 OFFCURVE",
"31 22 OFFCURVE",
"30 33 CURVE",
"29 48 OFFCURVE",
"33 51 OFFCURVE",
"63 48 CURVE",
"126 44 OFFCURVE",
"128 44 OFFCURVE",
"322 65 CURVE",
"467 81 OFFCURVE",
"544 90 OFFCURVE",
"656 106 CURVE",
"735 118 OFFCURVE",
"862 134 OFFCURVE",
"937 142 CURVE",
"1086 160 OFFCURVE",
"1087 160 OFFCURVE",
"1154 149 CURVE",
"1204 140 OFFCURVE",
"1291 114 OFFCURVE",
"1306 104 CURVE",
"1314 98 OFFCURVE",
"1326 75 OFFCURVE",
"1322 72 CURVE",
"1321 71 OFFCURVE",
"1317 70 OFFCURVE",
"1314 71 CURVE"
);
}
);
width = 1353;
}
);
unicode = 0033;
},
{
glyphname = four;
lastChange = "2017-11-08 04:37:29 +0000";
layers = (
{
layerId = "54030A0A-E51B-4EE4-A223-77D7BA97D65F";
paths = (
{
closed = 1;
nodes = (
"1023 228 OFFCURVE",
"1003 236 OFFCURVE",
"955 260 CURVE",
"913 280 LINE",
"889 281 LINE",
"850 282 OFFCURVE",
"840 287 OFFCURVE",
"838 302 CURVE",
"837 321 OFFCURVE",
"850 334 OFFCURVE",
"883 344 CURVE",
"920 356 OFFCURVE",
"1003 398 OFFCURVE",
"1032 420 CURVE",
"1072 449 OFFCURVE",
"1116 530 OFFCURVE",
"1134 612 CURVE",
"1149 676 OFFCURVE",
"1167 742 OFFCURVE",
"1179 775 CURVE",
"1188 797 OFFCURVE",
"1197 808 OFFCURVE",
"1216 817 CURVE",
"1232 824 OFFCURVE",
"1249 827 OFFCURVE",
"1262 823 CURVE",
"1271 821 OFFCURVE",
"1283 810 OFFCURVE",
"1287 802 CURVE",
"1289 798 OFFCURVE",
"1289 796 OFFCURVE",
"1285 791 CURVE",
"1265 767 OFFCURVE",
"1256 746 OFFCURVE",
"1253 716 CURVE",
"1249 694 OFFCURVE",
"1240 651 OFFCURVE",
"1229 616 CURVE",
"1216 569 OFFCURVE",
"1204 543 OFFCURVE",
"1188 525 CURVE",
"1183 518 OFFCURVE",
"1172 503 OFFCURVE",
"1163 488 CURVE",
"1134 438 OFFCURVE",
"1100 396 OFFCURVE",
"1071 369 CURVE",
"1056 356 OFFCURVE",
"1052 353 OFFCURVE",
"1016 336 CURVE",
"995 326 OFFCURVE",
"975 318 OFFCURVE",
"971 317 CURVE",
"963 316 OFFCURVE",
"965 314 OFFCURVE",
"983 308 CURVE",
"1009 298 OFFCURVE",
"1027 290 OFFCURVE",
"1039 275 CURVE",
"1059 254 OFFCURVE",
"1070 223 OFFCURVE",
"1060 218 CURVE",
"1055 216 OFFCURVE",
"1056 216 OFFCURVE",
"1041 221 CURVE"
);
},
{
closed = 1;
nodes = (
"1310 71 OFFCURVE",
"1290 71 OFFCURVE",
"1270 70 CURVE",
"1250 67 OFFCURVE",
"1197 65 OFFCURVE",
"1152 62 CURVE",
"1108 60 OFFCURVE",
"1047 54 OFFCURVE",
"1017 52 CURVE",
"957 44 OFFCURVE",
"841 25 OFFCURVE",
"799 15 CURVE",
"756 4 OFFCURVE",
"424 -34 OFFCURVE",
"348 -39 CURVE",
"205 -46 OFFCURVE",
"141 -44 OFFCURVE",
"122 -33 CURVE",
"119 -31 OFFCURVE",
"107 -25 OFFCURVE",
"98 -21 CURVE",
"89 -16 OFFCURVE",
"70 -4 OFFCURVE",
"56 5 CURVE",
"31 22 OFFCURVE",
"30 22 OFFCURVE",
"30 33 CURVE",
"29 48 OFFCURVE",
"33 51 OFFCURVE",
"63 48 CURVE",
"126 44 OFFCURVE",
"128 44 OFFCURVE",
"321 65 CURVE",
"467 81 OFFCURVE",
"544 90 OFFCURVE",
"656 106 CURVE",
"735 118 OFFCURVE",
"862 134 OFFCURVE",
"937 142 CURVE",
"1086 160 OFFCURVE",
"1087 160 OFFCURVE",
"1153 149 CURVE",
"1204 140 OFFCURVE",
"1291 114 OFFCURVE",
"1306 104 CURVE",
"1314 98 OFFCURVE",
"1326 75 OFFCURVE",
"1322 72 CURVE",
"1321 71 OFFCURVE",
"1317 70 OFFCURVE",
"1314 71 CURVE"
);
}
);
width = 1353;
}
);
unicode = 0034;
},
{
glyphname = five;
lastChange = "2017-11-08 04:37:45 +0000";
layers = (
{
layerId = "54030A0A-E51B-4EE4-A223-77D7BA97D65F";
paths = (
{
closed = 1;
nodes = (
"249 135 OFFCURVE",
"229 143 OFFCURVE",
"181 167 CURVE",
"139 187 LINE",
"115 188 LINE",
"76 189 OFFCURVE",
"66 194 OFFCURVE",
"64 209 CURVE",
"63 228 OFFCURVE",
"76 241 OFFCURVE",
"109 251 CURVE",
"146 263 OFFCURVE",
"229 305 OFFCURVE",
"258 327 CURVE",
"298 356 OFFCURVE",
"342 437 OFFCURVE",
"360 519 CURVE",
"375 583 OFFCURVE",
"393 649 OFFCURVE",
"405 682 CURVE",
"414 704 OFFCURVE",
"423 715 OFFCURVE",
"442 724 CURVE",
"458 731 OFFCURVE",
"475 734 OFFCURVE",
"488 730 CURVE",
"497 728 OFFCURVE",
"509 717 OFFCURVE",
"513 709 CURVE",
"515 705 OFFCURVE",
"515 703 OFFCURVE",
"511 698 CURVE",
"491 674 OFFCURVE",
"482 653 OFFCURVE",
"479 623 CURVE",
"475 601 OFFCURVE",
"466 558 OFFCURVE",
"455 523 CURVE",
"442 476 OFFCURVE",
"430 450 OFFCURVE",
"414 432 CURVE",
"409 425 OFFCURVE",
"398 410 OFFCURVE",
"389 395 CURVE",
"360 345 OFFCURVE",
"326 303 OFFCURVE",
"297 276 CURVE",
"282 263 OFFCURVE",
"278 260 OFFCURVE",
"242 243 CURVE",
"221 233 OFFCURVE",
"201 225 OFFCURVE",
"197 224 CURVE",
"189 223 OFFCURVE",
"191 221 OFFCURVE",
"209 215 CURVE",
"235 205 OFFCURVE",
"253 197 OFFCURVE",
"265 182 CURVE",
"285 161 OFFCURVE",
"296 130 OFFCURVE",
"286 125 CURVE",
"281 123 OFFCURVE",
"282 123 OFFCURVE",
"267 128 CURVE"
);
},
{
closed = 1;
nodes = (
"1310 73 OFFCURVE",
"1290 72 OFFCURVE",
"1270 71 CURVE",
"1250 68 OFFCURVE",
"1197 66 OFFCURVE",
"1152 63 CURVE",
"1108 61 OFFCURVE",
"1047 56 OFFCURVE",
"1017 53 CURVE",
"957 46 OFFCURVE",
"841 26 OFFCURVE",
"799 16 CURVE",
"756 6 OFFCURVE",
"424 -33 OFFCURVE",
"348 -37 CURVE",
"205 -45 OFFCURVE",
"141 -42 OFFCURVE",
"122 -32 CURVE",
"118 -29 OFFCURVE",
"107 -24 OFFCURVE",
"98 -20 CURVE",
"88 -15 OFFCURVE",
"70 -3 OFFCURVE",
"56 6 CURVE",
"31 24 OFFCURVE",
"30 24 OFFCURVE",
"30 35 CURVE",
"29 50 OFFCURVE",
"33 52 OFFCURVE",
"62 50 CURVE",
"125 45 OFFCURVE",
"127 46 OFFCURVE",
"321 66 CURVE",
"466 82 OFFCURVE",
"544 92 OFFCURVE",
"656 107 CURVE",
"735 119 OFFCURVE",
"862 136 OFFCURVE",
"936 144 CURVE",
"1085 161 OFFCURVE",
"1086 161 OFFCURVE",
"1153 150 CURVE",
"1204 141 OFFCURVE",
"1291 116 OFFCURVE",
"1306 106 CURVE",
"1314 99 OFFCURVE",
"1326 77 OFFCURVE",
"1322 73 CURVE",
"1321 72 OFFCURVE",
"1317 72 OFFCURVE",
"1314 72 CURVE"
);
}
);
width = 1353;
}
);
unicode = 0035;
},
{
glyphname = six;
lastChange = "2017-11-15 02:39:43 +0000";
layers = (
{
layerId = "54030A0A-E51B-4EE4-A223-77D7BA97D65F";
paths = (
{
closed = 1;
nodes = (
"1310 73 OFFCURVE",
"1289 73 OFFCURVE",
"1269 71 CURVE",
"1250 69 OFFCURVE",
"1197 66 OFFCURVE",
"1151 64 CURVE",
"1107 61 OFFCURVE",
"1047 56 OFFCURVE",
"1017 53 CURVE",
"956 46 OFFCURVE",
"841 27 OFFCURVE",
"799 16 CURVE",
"756 6 OFFCURVE",
"424 -33 OFFCURVE",
"348 -37 CURVE",
"205 -44 OFFCURVE",
"141 -42 OFFCURVE",
"121 -32 CURVE",
"118 -29 OFFCURVE",
"106 -23 OFFCURVE",
"98 -19 CURVE",
"88 -14 OFFCURVE",
"70 -3 OFFCURVE",
"55 7 CURVE",
"31 24 OFFCURVE",
"30 24 OFFCURVE",
"30 35 CURVE",
"29 50 OFFCURVE",
"33 52 OFFCURVE",
"62 50 CURVE",
"125 45 OFFCURVE",
"127 46 OFFCURVE",
"321 67 CURVE",
"466 82 OFFCURVE",
"544 92 OFFCURVE",
"655 108 CURVE",
"735 119 OFFCURVE",
"862 136 OFFCURVE",
"936 144 CURVE",
"1085 161 OFFCURVE",
"1086 161 OFFCURVE",
"1153 151 CURVE",
"1203 142 OFFCURVE",
"1290 116 OFFCURVE",
"1306 106 CURVE",
"1313 100 OFFCURVE",
"1325 77 OFFCURVE",
"1322 74 CURVE",
"1321 72 OFFCURVE",
"1317 72 OFFCURVE",
"1314 73 CURVE"
);
},
{
closed = 1;
nodes = (
"556 230 OFFCURVE",
"520 245 OFFCURVE",
"507 262 CURVE",
"497 275 OFFCURVE",
"485 301 OFFCURVE",
"477 328 CURVE",
"468 353 OFFCURVE",
"468 353 OFFCURVE",
"461 357 CURVE",
"457 359 OFFCURVE",
"452 361 OFFCURVE",
"451 361 CURVE",
"449 361 OFFCURVE",
"447 362 OFFCURVE",
"445 364 CURVE",
"442 368 OFFCURVE",
"442 368 OFFCURVE",
"446 371 CURVE",
"449 374 OFFCURVE",
"452 374 OFFCURVE",
"470 373 CURVE",
"518 371 OFFCURVE",
"556 366 OFFCURVE",
"575 359 CURVE",
"585 355 OFFCURVE",
"601 342 OFFCURVE",
"610 331 CURVE",
"619 319 OFFCURVE",
"629 298 OFFCURVE",
"637 275 CURVE",
"645 252 OFFCURVE",
"646 252 OFFCURVE",
"671 246 CURVE",
"680 245 OFFCURVE",
"688 242 OFFCURVE",
"689 241 CURVE",
"691 238 OFFCURVE",
"688 234 OFFCURVE",
"677 229 CURVE",
"667 223 OFFCURVE",
"667 223 OFFCURVE",
"637 223 CURVE",
"620 223 OFFCURVE",
"602 224 OFFCURVE",
"595 224 CURVE"
);
},
{
closed = 1;
nodes = (
"1023 228 OFFCURVE",
"1003 236 OFFCURVE",
"955 260 CURVE",
"913 280 LINE",
"889 281 LINE",
"850 282 OFFCURVE",
"840 287 OFFCURVE",
"838 302 CURVE",
"837 321 OFFCURVE",
"850 334 OFFCURVE",
"883 344 CURVE",
"920 356 OFFCURVE",
"1003 398 OFFCURVE",
"1032 420 CURVE",
"1072 449 OFFCURVE",
"1116 530 OFFCURVE",
"1134 612 CURVE",
"1149 676 OFFCURVE",
"1167 742 OFFCURVE",
"1179 775 CURVE",
"1188 797 OFFCURVE",
"1197 808 OFFCURVE",
"1216 817 CURVE",
"1232 824 OFFCURVE",
"1249 827 OFFCURVE",
"1262 823 CURVE",
"1271 821 OFFCURVE",
"1283 810 OFFCURVE",
"1287 802 CURVE",
"1289 798 OFFCURVE",
"1289 796 OFFCURVE",
"1285 791 CURVE",
"1265 767 OFFCURVE",
"1256 746 OFFCURVE",
"1253 716 CURVE",
"1249 694 OFFCURVE",
"1240 651 OFFCURVE",
"1229 616 CURVE",
"1216 569 OFFCURVE",
"1204 543 OFFCURVE",
"1188 525 CURVE",
"1183 518 OFFCURVE",
"1172 503 OFFCURVE",
"1163 488 CURVE",
"1134 438 OFFCURVE",
"1100 396 OFFCURVE",
"1071 369 CURVE",
"1056 356 OFFCURVE",
"1052 353 OFFCURVE",
"1016 336 CURVE",
"995 326 OFFCURVE",
"975 318 OFFCURVE",
"971 317 CURVE",
"963 316 OFFCURVE",
"965 314 OFFCURVE",
"983 308 CURVE",
"1009 298 OFFCURVE",
"1027 290 OFFCURVE",
"1039 275 CURVE",
"1059 254 OFFCURVE",
"1070 223 OFFCURVE",
"1060 218 CURVE",
"1055 216 OFFCURVE",
"1056 216 OFFCURVE",
"1041 221 CURVE"
);
}
);
width = 1352;
}
);
unicode = 0036;
},
{
glyphname = seven;
lastChange = "2017-11-08 04:38:02 +0000";
layers = (
{
layerId = "54030A0A-E51B-4EE4-A223-77D7BA97D65F";
paths = (
{
closed = 1;
nodes = (
"515 241 OFFCURVE",
"479 256 OFFCURVE",
"466 273 CURVE",
"456 286 OFFCURVE",
"444 312 OFFCURVE",
"436 339 CURVE",
"427 364 OFFCURVE",
"427 364 OFFCURVE",
"420 368 CURVE",
"416 370 OFFCURVE",
"411 372 OFFCURVE",
"410 372 CURVE",
"408 372 OFFCURVE",
"406 373 OFFCURVE",
"404 375 CURVE",
"401 379 OFFCURVE",
"401 379 OFFCURVE",
"405 382 CURVE",
"408 385 OFFCURVE",
"411 385 OFFCURVE",
"429 384 CURVE",
"477 382 OFFCURVE",
"515 377 OFFCURVE",
"534 370 CURVE",
"544 366 OFFCURVE",
"560 353 OFFCURVE",
"569 342 CURVE",
"578 330 OFFCURVE",
"588 309 OFFCURVE",
"596 286 CURVE",
"604 263 OFFCURVE",
"605 263 OFFCURVE",
"630 257 CURVE",
"639 256 OFFCURVE",
"647 253 OFFCURVE",
"648 252 CURVE",
"650 249 OFFCURVE",
"647 245 OFFCURVE",
"636 240 CURVE",
"626 234 OFFCURVE",
"626 234 OFFCURVE",
"596 234 CURVE",
"579 234 OFFCURVE",
"561 235 OFFCURVE",
"554 235 CURVE"
);
},
{
closed = 1;
nodes = (
"587 417 OFFCURVE",
"567 425 OFFCURVE",
"519 449 CURVE",
"477 469 LINE",
"453 470 LINE",
"414 471 OFFCURVE",
"404 476 OFFCURVE",
"402 491 CURVE",
"401 510 OFFCURVE",
"414 523 OFFCURVE",
"447 533 CURVE",
"484 545 OFFCURVE",
"567 587 OFFCURVE",
"596 609 CURVE",
"636 638 OFFCURVE",
"680 719 OFFCURVE",
"698 801 CURVE",
"713 865 OFFCURVE",
"731 931 OFFCURVE",
"743 964 CURVE",
"752 986 OFFCURVE",
"761 997 OFFCURVE",
"780 1006 CURVE",
"796 1013 OFFCURVE",
"813 1016 OFFCURVE",
"826 1012 CURVE",
"835 1010 OFFCURVE",
"847 999 OFFCURVE",
"851 991 CURVE",
"853 987 OFFCURVE",
"853 985 OFFCURVE",
"849 980 CURVE",
"829 956 OFFCURVE",
"820 935 OFFCURVE",
"817 905 CURVE",
"813 883 OFFCURVE",
"804 840 OFFCURVE",
"793 805 CURVE",
"780 758 OFFCURVE",
"768 732 OFFCURVE",
"752 714 CURVE",
"747 707 OFFCURVE",
"736 692 OFFCURVE",
"727 677 CURVE",
"698 627 OFFCURVE",
"664 585 OFFCURVE",
"635 558 CURVE",
"620 545 OFFCURVE",
"616 542 OFFCURVE",
"580 525 CURVE",
"559 515 OFFCURVE",
"539 507 OFFCURVE",
"535 506 CURVE",
"527 505 OFFCURVE",
"529 503 OFFCURVE",
"547 497 CURVE",
"573 487 OFFCURVE",
"591 479 OFFCURVE",
"603 464 CURVE",
"623 443 OFFCURVE",
"634 412 OFFCURVE",
"624 407 CURVE",
"619 405 OFFCURVE",
"620 405 OFFCURVE",
"605 410 CURVE"
);
},
{
closed = 1;
nodes = (
"1310 74 OFFCURVE",
"1289 73 OFFCURVE",
"1269 72 CURVE",
"1250 69 OFFCURVE",
"1197 67 OFFCURVE",
"1152 64 CURVE",
"1107 62 OFFCURVE",
"1047 57 OFFCURVE",
"1017 54 CURVE",
"956 46 OFFCURVE",
"841 27 OFFCURVE",
"799 17 CURVE",
"756 7 OFFCURVE",
"424 -32 OFFCURVE",
"348 -36 CURVE",
"205 -44 OFFCURVE",
"141 -42 OFFCURVE",
"121 -31 CURVE",
"118 -28 OFFCURVE",
"106 -23 OFFCURVE",
"98 -19 CURVE",
"88 -14 OFFCURVE",
"70 -2 OFFCURVE",
"55 7 CURVE",
"31 25 OFFCURVE",
"30 24 OFFCURVE",
"30 35 CURVE",
"29 50 OFFCURVE",
"33 53 OFFCURVE",
"62 51 CURVE",
"125 46 OFFCURVE",
"127 46 OFFCURVE",
"321 67 CURVE",
"466 83 OFFCURVE",
"544 93 OFFCURVE",
"655 108 CURVE",
"735 120 OFFCURVE",
"862 137 OFFCURVE",
"936 145 CURVE",
"1085 162 OFFCURVE",
"1086 162 OFFCURVE",
"1153 151 CURVE",
"1203 142 OFFCURVE",
"1290 117 OFFCURVE",
"1306 106 CURVE",
"1313 100 OFFCURVE",
"1325 78 OFFCURVE",
"1322 74 CURVE",
"1321 73 OFFCURVE",
"1317 73 OFFCURVE",
"1314 73 CURVE"
);
}
);
width = 1352;
}
);
unicode = 0037;
},
{
glyphname = eight;
lastChange = "2017-11-15 02:39:56 +0000";
layers = (
{
layerId = "54030A0A-E51B-4EE4-A223-77D7BA97D65F";
paths = (
{
closed = 1;
nodes = (
"249 133 OFFCURVE",
"229 141 OFFCURVE",
"181 165 CURVE",
"139 185 LINE",
"115 186 LINE",
"76 187 OFFCURVE",
"66 192 OFFCURVE",
"64 207 CURVE",
"63 226 OFFCURVE",
"76 239 OFFCURVE",
"109 249 CURVE",
"146 261 OFFCURVE",
"229 303 OFFCURVE",
"258 325 CURVE",
"298 354 OFFCURVE",
"342 435 OFFCURVE",
"360 517 CURVE",
"375 581 OFFCURVE",
"393 647 OFFCURVE",
"405 680 CURVE",
"414 702 OFFCURVE",
"423 713 OFFCURVE",
"442 722 CURVE",
"458 729 OFFCURVE",
"475 732 OFFCURVE",
"488 728 CURVE",
"497 726 OFFCURVE",
"509 715 OFFCURVE",
"513 707 CURVE",
"515 703 OFFCURVE",
"515 701 OFFCURVE",
"511 696 CURVE",
"491 672 OFFCURVE",
"482 651 OFFCURVE",
"479 621 CURVE",
"475 599 OFFCURVE",
"466 556 OFFCURVE",
"455 521 CURVE",
"442 474 OFFCURVE",
"430 448 OFFCURVE",
"414 430 CURVE",
"409 423 OFFCURVE",
"398 408 OFFCURVE",
"389 393 CURVE",
"360 343 OFFCURVE",
"326 301 OFFCURVE",
"297 274 CURVE",
"282 261 OFFCURVE",
"278 258 OFFCURVE",
"242 241 CURVE",
"221 231 OFFCURVE",
"201 223 OFFCURVE",
"197 222 CURVE",
"189 221 OFFCURVE",
"191 219 OFFCURVE",
"209 213 CURVE",
"235 203 OFFCURVE",
"253 195 OFFCURVE",
"265 180 CURVE",
"285 159 OFFCURVE",
"296 128 OFFCURVE",
"286 123 CURVE",
"281 121 OFFCURVE",
"282 121 OFFCURVE",
"267 126 CURVE"
);
},
{
closed = 1;
nodes = (
"1310 71 OFFCURVE",
"1290 71 OFFCURVE",
"1270 70 CURVE",
"1250 67 OFFCURVE",
"1197 65 OFFCURVE",
"1152 62 CURVE",
"1108 60 OFFCURVE",
"1047 54 OFFCURVE",
"1017 52 CURVE",
"957 44 OFFCURVE",
"841 25 OFFCURVE",
"799 15 CURVE",
"756 4 OFFCURVE",
"424 -34 OFFCURVE",
"348 -39 CURVE",
"205 -46 OFFCURVE",
"141 -44 OFFCURVE",
"122 -33 CURVE",
"119 -31 OFFCURVE",
"107 -25 OFFCURVE",
"98 -21 CURVE",
"89 -16 OFFCURVE",
"70 -4 OFFCURVE",
"56 5 CURVE",
"31 22 OFFCURVE",
"30 22 OFFCURVE",
"30 33 CURVE",
"29 48 OFFCURVE",
"33 51 OFFCURVE",
"63 48 CURVE",
"126 44 OFFCURVE",
"128 44 OFFCURVE",
"321 65 CURVE",
"467 81 OFFCURVE",
"544 90 OFFCURVE",
"656 106 CURVE",
"735 118 OFFCURVE",
"862 134 OFFCURVE",
"937 142 CURVE",
"1086 160 OFFCURVE",
"1087 160 OFFCURVE",
"1153 149 CURVE",
"1204 140 OFFCURVE",
"1291 114 OFFCURVE",
"1306 104 CURVE",
"1314 98 OFFCURVE",
"1326 75 OFFCURVE",
"1322 72 CURVE",
"1321 71 OFFCURVE",
"1317 70 OFFCURVE",
"1314 71 CURVE"
);
},
{
closed = 1;
nodes = (
"1023 228 OFFCURVE",
"1003 236 OFFCURVE",
"955 260 CURVE",
"913 280 LINE",
"889 281 LINE",
"850 282 OFFCURVE",
"840 287 OFFCURVE",
"838 302 CURVE",
"837 321 OFFCURVE",
"850 334 OFFCURVE",
"883 344 CURVE",
"920 356 OFFCURVE",
"1003 398 OFFCURVE",
"1032 420 CURVE",
"1072 449 OFFCURVE",
"1116 530 OFFCURVE",
"1134 612 CURVE",
"1149 676 OFFCURVE",
"1167 742 OFFCURVE",
"1179 775 CURVE",
"1188 797 OFFCURVE",
"1197 808 OFFCURVE",
"1216 817 CURVE",
"1232 824 OFFCURVE",
"1249 827 OFFCURVE",
"1262 823 CURVE",
"1271 821 OFFCURVE",
"1283 810 OFFCURVE",
"1287 802 CURVE",
"1289 798 OFFCURVE",
"1289 796 OFFCURVE",
"1285 791 CURVE",
"1265 767 OFFCURVE",
"1256 746 OFFCURVE",
"1253 716 CURVE",
"1249 694 OFFCURVE",
"1240 651 OFFCURVE",
"1229 616 CURVE",
"1216 569 OFFCURVE",
"1204 543 OFFCURVE",
"1188 525 CURVE",
"1183 518 OFFCURVE",
"1172 503 OFFCURVE",
"1163 488 CURVE",
"1134 438 OFFCURVE",
"1100 396 OFFCURVE",
"1071 369 CURVE",
"1056 356 OFFCURVE",
"1052 353 OFFCURVE",
"1016 336 CURVE",
"995 326 OFFCURVE",
"975 318 OFFCURVE",
"971 317 CURVE",
"963 316 OFFCURVE",
"965 314 OFFCURVE",
"983 308 CURVE",
"1009 298 OFFCURVE",
"1027 290 OFFCURVE",
"1039 275 CURVE",
"1059 254 OFFCURVE",
"1070 223 OFFCURVE",
"1060 218 CURVE",
"1055 216 OFFCURVE",
"1056 216 OFFCURVE",
"1041 221 CURVE"
);
}
);
width = 1353;
}
);
unicode = 0038;
},
{
glyphname = nine;
lastChange = "2017-11-15 02:40:09 +0000";
layers = (
{
layerId = "54030A0A-E51B-4EE4-A223-77D7BA97D65F";
paths = (
{
closed = 1;
nodes = (
"517 267 OFFCURVE",
"481 282 OFFCURVE",
"468 299 CURVE",
"458 312 OFFCURVE",
"446 338 OFFCURVE",
"438 365 CURVE",
"429 390 OFFCURVE",
"429 390 OFFCURVE",
"422 394 CURVE",
"418 396 OFFCURVE",
"413 398 OFFCURVE",
"412 398 CURVE",
"410 398 OFFCURVE",
"408 399 OFFCURVE",
"406 401 CURVE",
"403 405 OFFCURVE",
"403 405 OFFCURVE",
"407 408 CURVE",
"410 411 OFFCURVE",
"413 411 OFFCURVE",
"431 410 CURVE",
"479 408 OFFCURVE",
"517 403 OFFCURVE",
"536 396 CURVE",
"546 392 OFFCURVE",
"562 379 OFFCURVE",
"571 368 CURVE",
"580 356 OFFCURVE",
"590 335 OFFCURVE",
"598 312 CURVE",
"606 289 OFFCURVE",
"607 289 OFFCURVE",
"632 283 CURVE",
"641 282 OFFCURVE",
"649 279 OFFCURVE",
"650 278 CURVE",
"652 275 OFFCURVE",
"649 271 OFFCURVE",
"638 266 CURVE",
"628 260 OFFCURVE",
"628 260 OFFCURVE",
"598 260 CURVE",
"581 260 OFFCURVE",
"563 261 OFFCURVE",
"556 261 CURVE"
);
},
{
closed = 1;
nodes = (
"589 443 OFFCURVE",
"569 451 OFFCURVE",
"521 475 CURVE",
"479 495 LINE",
"455 496 LINE",
"416 497 OFFCURVE",
"406 502 OFFCURVE",
"404 517 CURVE",
"403 536 OFFCURVE",
"416 549 OFFCURVE",
"449 559 CURVE",
"486 571 OFFCURVE",
"569 613 OFFCURVE",
"598 635 CURVE",
"638 664 OFFCURVE",
"682 745 OFFCURVE",
"700 827 CURVE",
"715 891 OFFCURVE",
"733 957 OFFCURVE",
"745 990 CURVE",
"754 1012 OFFCURVE",
"763 1023 OFFCURVE",
"782 1032 CURVE",
"798 1039 OFFCURVE",
"815 1042 OFFCURVE",
"828 1038 CURVE",
"837 1036 OFFCURVE",
"849 1025 OFFCURVE",
"853 1017 CURVE",
"855 1013 OFFCURVE",
"855 1011 OFFCURVE",
"851 1006 CURVE",
"831 982 OFFCURVE",
"822 961 OFFCURVE",
"819 931 CURVE",
"815 909 OFFCURVE",
"806 866 OFFCURVE",
"795 831 CURVE",
"782 784 OFFCURVE",
"770 758 OFFCURVE",
"754 740 CURVE",
"749 733 OFFCURVE",
"738 718 OFFCURVE",
"729 703 CURVE",
"700 653 OFFCURVE",
"666 611 OFFCURVE",
"637 584 CURVE",
"622 571 OFFCURVE",
"618 568 OFFCURVE",
"582 551 CURVE",
"561 541 OFFCURVE",
"541 533 OFFCURVE",
"537 532 CURVE",
"529 531 OFFCURVE",
"531 529 OFFCURVE",
"549 523 CURVE",
"575 513 OFFCURVE",
"593 505 OFFCURVE",
"605 490 CURVE",
"625 469 OFFCURVE",
"636 438 OFFCURVE",
"626 433 CURVE",
"621 431 OFFCURVE",
"622 431 OFFCURVE",
"607 436 CURVE"
);
},
{
closed = 1;
nodes = (
"1310 72 OFFCURVE",
"1290 72 OFFCURVE",
"1270 70 CURVE",
"1250 68 OFFCURVE",
"1197 65 OFFCURVE",
"1152 63 CURVE",
"1108 61 OFFCURVE",
"1047 55 OFFCURVE",
"1017 52 CURVE",
"956 45 OFFCURVE",
"841 26 OFFCURVE",
"799 16 CURVE",
"756 5 OFFCURVE",
"424 -33 OFFCURVE",
"348 -38 CURVE",
"205 -45 OFFCURVE",
"141 -43 OFFCURVE",
"122 -32 CURVE",
"118 -30 OFFCURVE",
"106 -24 OFFCURVE",
"98 -20 CURVE",
"88 -15 OFFCURVE",
"70 -3 OFFCURVE",
"55 6 CURVE",
"31 23 OFFCURVE",
"30 23 OFFCURVE",
"30 34 CURVE",
"29 49 OFFCURVE",
"33 52 OFFCURVE",
"62 49 CURVE",
"125 45 OFFCURVE",
"127 45 OFFCURVE",
"321 66 CURVE",
"466 82 OFFCURVE",
"544 91 OFFCURVE",
"656 107 CURVE",
"735 119 OFFCURVE",
"862 135 OFFCURVE",
"936 143 CURVE",
"1085 161 OFFCURVE",
"1086 161 OFFCURVE",
"1153 150 CURVE",
"1203 141 OFFCURVE",
"1290 115 OFFCURVE",
"1306 105 CURVE",
"1313 99 OFFCURVE",
"1325 76 OFFCURVE",
"1322 73 CURVE",
"1321 72 OFFCURVE",
"1317 71 OFFCURVE",
"1314 72 CURVE"
);
},
{
closed = 1;
nodes = (
"1023 228 OFFCURVE",
"1003 236 OFFCURVE",
"955 260 CURVE",
"913 280 LINE",
"889 281 LINE",
"850 282 OFFCURVE",
"840 287 OFFCURVE",
"838 302 CURVE",
"837 321 OFFCURVE",
"850 334 OFFCURVE",
"883 344 CURVE",
"920 356 OFFCURVE",
"1003 398 OFFCURVE",
"1032 420 CURVE",
"1072 449 OFFCURVE",
"1116 530 OFFCURVE",
"1134 612 CURVE",
"1149 676 OFFCURVE",
"1167 742 OFFCURVE",
"1179 775 CURVE",
"1188 797 OFFCURVE",
"1197 808 OFFCURVE",
"1216 817 CURVE",
"1232 824 OFFCURVE",
"1249 827 OFFCURVE",
"1262 823 CURVE",
"1271 821 OFFCURVE",
"1283 810 OFFCURVE",
"1287 802 CURVE",
"1289 798 OFFCURVE",
"1289 796 OFFCURVE",
"1285 791 CURVE",
"1265 767 OFFCURVE",
"1256 746 OFFCURVE",
"1253 716 CURVE",
"1249 694 OFFCURVE",
"1240 651 OFFCURVE",
"1229 616 CURVE",
"1216 569 OFFCURVE",
"1204 543 OFFCURVE",
"1188 525 CURVE",
"1183 518 OFFCURVE",
"1172 503 OFFCURVE",
"1163 488 CURVE",
"1134 438 OFFCURVE",
"1100 396 OFFCURVE",
"1071 369 CURVE",
"1056 356 OFFCURVE",
"1052 353 OFFCURVE",
"1016 336 CURVE",
"995 326 OFFCURVE",
"975 318 OFFCURVE",
"971 317 CURVE",
"963 316 OFFCURVE",
"965 314 OFFCURVE",
"983 308 CURVE",
"1009 298 OFFCURVE",
"1027 290 OFFCURVE",
"1039 275 CURVE",
"1059 254 OFFCURVE",
"1070 223 OFFCURVE",
"1060 218 CURVE",
"1055 216 OFFCURVE",
"1056 216 OFFCURVE",
"1041 221 CURVE"
);
}
);
width = 1352;
}
);
unicode = 0039;
},
{
glyphname = colon;
lastChange = "2017-11-07 01:44:14 +0000";
layers = (
{
layerId = "54030A0A-E51B-4EE4-A223-77D7BA97D65F";
paths = (
{
closed = 1;
nodes = (
"312 -426 OFFCURVE",
"282 -422 OFFCURVE",
"277 -418 CURVE",
"275 -416 OFFCURVE",
"275 -415 OFFCURVE",
"278 -411 CURVE",
"281 -408 OFFCURVE",
"290 -398 OFFCURVE",
"299 -390 CURVE",
"310 -378 OFFCURVE",
"319 -368 OFFCURVE",
"328 -356 CURVE",
"341 -338 LINE",
"287 -338 LINE",
"257 -338 OFFCURVE",
"188 -338 OFFCURVE",
"133 -339 CURVE",
"77 -341 OFFCURVE",
"-84 -343 OFFCURVE",
"-232 -343 CURVE",
"-430 -344 OFFCURVE",
"-502 -345 OFFCURVE",
"-519 -346 CURVE",
"-538 -347 OFFCURVE",
"-546 -347 OFFCURVE",
"-563 -346 CURVE",
"-596 -343 OFFCURVE",
"-613 -338 OFFCURVE",
"-613 -334 CURVE",
"-613 -332 OFFCURVE",
"-608 -328 OFFCURVE",
"-603 -322 CURVE",
"-594 -313 LINE",
"-572 -312 LINE",
"-560 -312 OFFCURVE",
"-495 -310 OFFCURVE",
"-428 -310 CURVE",
"-342 -309 OFFCURVE",
"-283 -308 OFFCURVE",
"-233 -305 CURVE",
"-180 -303 OFFCURVE",
"-80 -300 OFFCURVE",
"136 -297 CURVE",
"432 -291 LINE",
"526 -306 LINE",
"577 -313 OFFCURVE",
"621 -320 OFFCURVE",
"622 -320 CURVE",
"622 -321 OFFCURVE",
"623 -323 OFFCURVE",
"623 -324 CURVE",
"623 -330 OFFCURVE",
"507 -402 OFFCURVE",
"467 -422 CURVE",
"445 -433 LINE",
"423 -433 LINE",
"411 -433 OFFCURVE",
"392 -432 OFFCURVE",
"382 -431 CURVE"
);
}
);
width = 0;
}
);
unicode = 003A;
},
{
glyphname = exclam;
lastChange = "2017-11-15 04:46:38 +0000";
layers = (
{
layerId = "54030A0A-E51B-4EE4-A223-77D7BA97D65F";
paths = (
{
closed = 1;
nodes = (
"1310 70 OFFCURVE",
"1290 70 OFFCURVE",
"1270 69 CURVE",
"1250 66 OFFCURVE",
"1197 64 OFFCURVE",
"1152 61 CURVE",
"1108 59 OFFCURVE",
"1047 53 OFFCURVE",
"1017 51 CURVE",
"957 43 OFFCURVE",
"841 24 OFFCURVE",
"799 14 CURVE",
"756 3 OFFCURVE",
"425 -35 OFFCURVE",
"348 -40 CURVE",
"205 -47 OFFCURVE",
"142 -45 OFFCURVE",
"122 -34 CURVE",
"119 -32 OFFCURVE",
"107 -26 OFFCURVE",
"98 -22 CURVE",
"89 -17 OFFCURVE",
"70 -5 OFFCURVE",
"56 4 CURVE",
"32 21 OFFCURVE",
"31 21 OFFCURVE",
"30 32 CURVE",
"30 47 OFFCURVE",
"33 50 OFFCURVE",
"63 47 CURVE",
"126 43 OFFCURVE",
"128 43 OFFCURVE",
"322 64 CURVE",
"467 80 OFFCURVE",
"544 89 OFFCURVE",
"656 105 CURVE",
"735 117 OFFCURVE",
"862 133 OFFCURVE",
"937 141 CURVE",
"1086 159 OFFCURVE",
"1087 159 OFFCURVE",
"1154 148 CURVE",
"1204 139 OFFCURVE",
"1291 113 OFFCURVE",
"1306 103 CURVE",
"1314 97 OFFCURVE",
"1326 74 OFFCURVE",
"1322 71 CURVE",
"1321 70 OFFCURVE",
"1317 69 OFFCURVE",
"1314 70 CURVE"
);
},
{
closed = 1;
nodes = (
"688 190 OFFCURVE",
"650 195 OFFCURVE",
"627 199 CURVE",
"572 208 OFFCURVE",
"575 207 OFFCURVE",
"599 230 CURVE",
"624 255 OFFCURVE",
"634 266 OFFCURVE",
"631 283 CURVE",
"630 296 OFFCURVE",
"623 310 OFFCURVE",
"612 320 CURVE",
"590 341 OFFCURVE",
"530 366 OFFCURVE",
"456 381 CURVE",
"441 384 OFFCURVE",
"423 390 OFFCURVE",
"412 392 CURVE",
"390 396 OFFCURVE",
"335 406 OFFCURVE",
"264 415 CURVE",
"230 420 OFFCURVE",
"193 425 OFFCURVE",
"176 428 CURVE",
"157 430 OFFCURVE",
"133 433 OFFCURVE",
"121 435 CURVE",
"108 436 OFFCURVE",
"95 437 OFFCURVE",
"94 438 CURVE",
"86 445 OFFCURVE",
"96 454 OFFCURVE",
"116 459 CURVE",
"148 470 OFFCURVE",
"200 474 OFFCURVE",
"293 474 CURVE",
"360 474 OFFCURVE",
"376 474 OFFCURVE",
"394 470 CURVE",
"492 456 OFFCURVE",
"625 423 OFFCURVE",
"685 396 CURVE",
"789 352 OFFCURVE",
"841 300 OFFCURVE",
"841 239 CURVE",
"841 218 OFFCURVE",
"835 204 OFFCURVE",
"825 194 CURVE",
"812 180 OFFCURVE",
"804 177 OFFCURVE",
"778 177 CURVE",
"759 176 OFFCURVE",
"750 178 OFFCURVE",
"712 184 CURVE"
);
}
);
width = 1353;
}
);
unicode = 0021;
},
{
glyphname = numbersign;
lastChange = "2017-11-15 04:53:01 +0000";
layers = (
{
layerId = "54030A0A-E51B-4EE4-A223-77D7BA97D65F";
paths = (
{
closed = 1;
nodes = (
"1310 72 OFFCURVE",
"1290 72 OFFCURVE",
"1270 70 CURVE",
"1250 68 OFFCURVE",
"1197 65 OFFCURVE",
"1152 63 CURVE",
"1108 60 OFFCURVE",
"1047 55 OFFCURVE",
"1017 52 CURVE",
"956 45 OFFCURVE",
"841 26 OFFCURVE",
"799 15 CURVE",
"756 5 OFFCURVE",
"424 -34 OFFCURVE",
"348 -38 CURVE",
"205 -46 OFFCURVE",
"141 -43 OFFCURVE",
"122 -33 CURVE",
"118 -30 OFFCURVE",
"106 -24 OFFCURVE",
"98 -20 CURVE",
"88 -15 OFFCURVE",
"70 -4 OFFCURVE",
"55 6 CURVE",
"31 23 OFFCURVE",
"30 23 OFFCURVE",
"30 34 CURVE",
"29 49 OFFCURVE",
"33 51 OFFCURVE",
"62 49 CURVE",
"125 44 OFFCURVE",
"127 45 OFFCURVE",
"321 65 CURVE",
"466 81 OFFCURVE",
"544 91 OFFCURVE",
"656 107 CURVE",
"735 118 OFFCURVE",
"862 135 OFFCURVE",
"936 143 CURVE",
"1085 160 OFFCURVE",
"1086 160 OFFCURVE",
"1153 150 CURVE",
"1203 141 OFFCURVE",
"1290 115 OFFCURVE",
"1306 105 CURVE",
"1313 99 OFFCURVE",
"1325 76 OFFCURVE",
"1322 72 CURVE",
"1321 71 OFFCURVE",
"1317 71 OFFCURVE",
"1314 72 CURVE"
);
},
{
closed = 1;
nodes = (
"628 190 OFFCURVE",
"621 192 OFFCURVE",
"621 196 CURVE",
"621 197 OFFCURVE",
"625 203 OFFCURVE",
"630 210 CURVE",
"652 236 OFFCURVE",
"656 256 OFFCURVE",
"647 276 CURVE",
"634 304 OFFCURVE",
"602 325 OFFCURVE",
"540 344 CURVE",
"497 357 OFFCURVE",
"460 365 OFFCURVE",
"338 388 CURVE",
"322 390 OFFCURVE",
"320 394 OFFCURVE",
"329 402 CURVE",
"336 410 OFFCURVE",
"349 414 OFFCURVE",
"373 419 CURVE",
"399 424 OFFCURVE",
"491 424 OFFCURVE",
"513 419 CURVE",
"551 411 OFFCURVE",
"596 396 OFFCURVE",
"641 376 CURVE",
"679 360 OFFCURVE",
"712 338 OFFCURVE",
"736 313 CURVE",
"767 281 OFFCURVE",
"779 256 OFFCURVE",
"779 218 CURVE",
"779 190 OFFCURVE",
"772 175 OFFCURVE",
"755 167 CURVE",
"743 161 OFFCURVE",
"732 162 OFFCURVE",
"676 177 CURVE"
);
},
{
closed = 1;
nodes = (
"882 260 OFFCURVE",
"838 268 OFFCURVE",
"829 279 CURVE",
"826 281 OFFCURVE",
"825 287 OFFCURVE",
"823 295 CURVE",
"818 323 OFFCURVE",
"805 345 OFFCURVE",
"777 374 CURVE",
"759 392 LINE",
"720 412 LINE",
"646 448 OFFCURVE",
"578 471 OFFCURVE",
"515 482 CURVE",
"476 489 OFFCURVE",
"401 495 OFFCURVE",
"380 494 CURVE",
"334 491 OFFCURVE",
"287 480 OFFCURVE",
"266 465 CURVE",
"259 460 OFFCURVE",
"246 441 OFFCURVE",
"242 432 CURVE",
"240 423 OFFCURVE",
"241 404 OFFCURVE",
"243 398 CURVE",
"250 385 OFFCURVE",
"271 366 OFFCURVE",
"302 343 CURVE",
"314 335 OFFCURVE",
"323 327 OFFCURVE",
"322 326 CURVE",
"322 326 OFFCURVE",
"307 325 OFFCURVE",
"289 325 CURVE",
"261 325 OFFCURVE",
"254 326 OFFCURVE",
"228 330 CURVE",
"196 336 OFFCURVE",
"157 345 OFFCURVE",
"142 351 CURVE",
"135 354 OFFCURVE",
"127 359 OFFCURVE",
"122 364 CURVE",
"117 369 OFFCURVE",
"108 377 OFFCURVE",
"101 383 CURVE",
"81 402 OFFCURVE",
"70 423 OFFCURVE",
"68 450 CURVE",
"63 502 OFFCURVE",
"91 530 OFFCURVE",
"163 546 CURVE",
"175 548 OFFCURVE",
"190 552 OFFCURVE",
"197 554 CURVE",
"209 557 OFFCURVE",
"215 557 OFFCURVE",
"276 557 CURVE",
"358 557 OFFCURVE",
"385 555 OFFCURVE",
"463 541 CURVE",
"509 535 OFFCURVE",
"590 518 OFFCURVE",
"631 509 CURVE",
"687 496 OFFCURVE",
"786 455 OFFCURVE",
"827 428 CURVE",
"834 424 OFFCURVE",
"852 413 OFFCURVE",
"869 403 CURVE",
"967 346 OFFCURVE",
"1023 298 OFFCURVE",
"1023 270 CURVE",
"1023 262 OFFCURVE",
"1019 259 OFFCURVE",
"1008 256 CURVE",
"999 253 OFFCURVE",
"994 253 OFFCURVE",
"958 255 CURVE"
);
}
);
width = 1352;
}
);
unicode = 0023;
},
{
glyphname = quotedbl;
lastChange = "2017-11-07 01:44:14 +0000";
layers = (
{
layerId = "54030A0A-E51B-4EE4-A223-77D7BA97D65F";
paths = (
{
closed = 1;
nodes = (
"-248 -426 OFFCURVE",
"-278 -422 OFFCURVE",
"-283 -418 CURVE",
"-285 -416 OFFCURVE",
"-285 -415 OFFCURVE",
"-282 -411 CURVE",
"-279 -408 OFFCURVE",
"-270 -398 OFFCURVE",
"-261 -390 CURVE",
"-250 -378 OFFCURVE",
"-241 -368 OFFCURVE",
"-232 -356 CURVE",
"-219 -338 LINE",
"-273 -338 LINE",
"-303 -338 OFFCURVE",
"-372 -338 OFFCURVE",
"-427 -339 CURVE",
"-483 -341 OFFCURVE",
"-644 -343 OFFCURVE",
"-792 -343 CURVE",
"-990 -344 OFFCURVE",
"-1062 -345 OFFCURVE",
"-1079 -346 CURVE",
"-1098 -347 OFFCURVE",
"-1106 -347 OFFCURVE",
"-1123 -346 CURVE",
"-1156 -343 OFFCURVE",
"-1173 -338 OFFCURVE",
"-1173 -334 CURVE",
"-1173 -332 OFFCURVE",
"-1168 -328 OFFCURVE",
"-1163 -322 CURVE",
"-1154 -313 LINE",
"-1132 -312 LINE",
"-1120 -312 OFFCURVE",
"-1055 -310 OFFCURVE",
"-988 -310 CURVE",
"-902 -309 OFFCURVE",
"-843 -308 OFFCURVE",
"-793 -305 CURVE",
"-740 -303 OFFCURVE",
"-640 -300 OFFCURVE",
"-424 -297 CURVE",
"-128 -291 LINE",
"-34 -306 LINE",
"17 -313 OFFCURVE",
"61 -320 OFFCURVE",
"62 -320 CURVE",
"62 -321 OFFCURVE",
"63 -323 OFFCURVE",
"63 -324 CURVE",
"63 -330 OFFCURVE",
"-53 -402 OFFCURVE",
"-93 -422 CURVE",
"-115 -433 LINE",
"-137 -433 LINE",
"-149 -433 OFFCURVE",
"-168 -432 OFFCURVE",
"-178 -431 CURVE"
);
}
);
width = 0;
}
);
unicode = 0022;
},
{
glyphname = quotesingle;
lastChange = "2017-11-07 01:44:14 +0000";
layers = (
{
layerId = "54030A0A-E51B-4EE4-A223-77D7BA97D65F";
paths = (
{
closed = 1;
nodes = (
"-248 -306 OFFCURVE",
"-278 -302 OFFCURVE",
"-283 -298 CURVE",
"-285 -296 OFFCURVE",
"-285 -295 OFFCURVE",
"-282 -291 CURVE",
"-279 -288 OFFCURVE",
"-270 -278 OFFCURVE",
"-261 -270 CURVE",
"-250 -258 OFFCURVE",
"-241 -248 OFFCURVE",
"-232 -236 CURVE",
"-219 -218 LINE",
"-273 -218 LINE",
"-303 -218 OFFCURVE",
"-372 -218 OFFCURVE",
"-427 -219 CURVE",
"-483 -221 OFFCURVE",
"-644 -223 OFFCURVE",
"-792 -223 CURVE",
"-990 -224 OFFCURVE",
"-1062 -225 OFFCURVE",
"-1079 -226 CURVE",
"-1098 -227 OFFCURVE",
"-1106 -227 OFFCURVE",
"-1123 -226 CURVE",
"-1156 -223 OFFCURVE",
"-1173 -218 OFFCURVE",
"-1173 -214 CURVE",
"-1173 -212 OFFCURVE",
"-1168 -208 OFFCURVE",
"-1163 -202 CURVE",
"-1154 -193 LINE",
"-1132 -192 LINE",
"-1120 -192 OFFCURVE",
"-1055 -190 OFFCURVE",
"-988 -190 CURVE",
"-902 -189 OFFCURVE",
"-843 -188 OFFCURVE",
"-793 -185 CURVE",
"-740 -183 OFFCURVE",
"-640 -180 OFFCURVE",
"-424 -177 CURVE",
"-128 -171 LINE",
"-34 -186 LINE",
"17 -193 OFFCURVE",
"61 -200 OFFCURVE",
"62 -200 CURVE",
"62 -201 OFFCURVE",
"63 -203 OFFCURVE",
"63 -204 CURVE",
"63 -210 OFFCURVE",
"-53 -282 OFFCURVE",
"-93 -302 CURVE",
"-115 -313 LINE",
"-137 -313 LINE",
"-149 -313 OFFCURVE",
"-168 -312 OFFCURVE",
"-178 -311 CURVE"
);
}
);
width = 0;
}
);
unicode = 0027;
},
{
glyphname = semicolon;
lastChange = "2017-11-07 01:44:14 +0000";
layers = (
{
layerId = "54030A0A-E51B-4EE4-A223-77D7BA97D65F";
paths = (
{
closed = 1;
nodes = (
"312 -306 OFFCURVE",
"282 -302 OFFCURVE",
"277 -298 CURVE",
"275 -296 OFFCURVE",
"275 -295 OFFCURVE",
"278 -291 CURVE",
"281 -288 OFFCURVE",
"290 -278 OFFCURVE",
"299 -270 CURVE",
"310 -258 OFFCURVE",
"319 -248 OFFCURVE",
"328 -236 CURVE",
"341 -218 LINE",
"287 -218 LINE",
"257 -218 OFFCURVE",
"188 -218 OFFCURVE",
"133 -219 CURVE",
"77 -221 OFFCURVE",
"-84 -223 OFFCURVE",
"-232 -223 CURVE",
"-430 -224 OFFCURVE",
"-502 -225 OFFCURVE",
"-519 -226 CURVE",
"-538 -227 OFFCURVE",
"-546 -227 OFFCURVE",
"-563 -226 CURVE",
"-596 -223 OFFCURVE",
"-613 -218 OFFCURVE",
"-613 -214 CURVE",
"-613 -212 OFFCURVE",
"-608 -208 OFFCURVE",
"-603 -202 CURVE",
"-594 -193 LINE",
"-572 -192 LINE",
"-560 -192 OFFCURVE",
"-495 -190 OFFCURVE",
"-428 -190 CURVE",
"-342 -189 OFFCURVE",
"-283 -188 OFFCURVE",
"-233 -185 CURVE",
"-180 -183 OFFCURVE",
"-80 -180 OFFCURVE",
"136 -177 CURVE",
"432 -171 LINE",
"526 -186 LINE",
"577 -193 OFFCURVE",
"621 -200 OFFCURVE",
"622 -200 CURVE",
"622 -201 OFFCURVE",
"623 -203 OFFCURVE",
"623 -204 CURVE",
"623 -210 OFFCURVE",
"507 -282 OFFCURVE",
"467 -302 CURVE",
"445 -313 LINE",
"423 -313 LINE",
"411 -313 OFFCURVE",
"392 -312 OFFCURVE",
"382 -311 CURVE"
);
}
);
width = 0;
}
);
unicode = 003B;
},
{
glyphname = braceleft;
lastChange = "2017-11-07 01:44:14 +0000";
layers = (
{
layerId = "54030A0A-E51B-4EE4-A223-77D7BA97D65F";
paths = (
{
closed = 1;
nodes = (
"295 -439 OFFCURVE",
"243 -425 OFFCURVE",
"209 -413 CURVE",
"169 -399 OFFCURVE",
"95 -366 OFFCURVE",
"69 -351 CURVE",
"25 -325 OFFCURVE",
"-16 -316 OFFCURVE",
"-87 -316 CURVE",
"-201 -318 OFFCURVE",
"-341 -348 OFFCURVE",
"-543 -416 CURVE",
"-586 -431 OFFCURVE",
"-621 -443 OFFCURVE",
"-622 -441 CURVE",
"-622 -440 OFFCURVE",
"-617 -423 OFFCURVE",
"-610 -404 CURVE",
"-597 -371 OFFCURVE",
"-596 -366 OFFCURVE",
"-593 -329 CURVE",
"-590 -288 OFFCURVE",
"-588 -283 OFFCURVE",
"-573 -271 CURVE",
"-565 -265 OFFCURVE",
"-533 -256 OFFCURVE",
"-511 -254 CURVE",
"-497 -251 OFFCURVE",
"-495 -253 OFFCURVE",
"-483 -260 CURVE",
"-471 -269 OFFCURVE",
"-470 -270 OFFCURVE",
"-468 -281 CURVE",
"-468 -286 OFFCURVE",
"-470 -300 OFFCURVE",
"-471 -309 CURVE",
"-472 -319 OFFCURVE",
"-473 -328 OFFCURVE",
"-472 -328 CURVE",
"-472 -328 OFFCURVE",
"-463 -325 OFFCURVE",
"-453 -321 CURVE",
"-418 -309 OFFCURVE",
"-336 -294 OFFCURVE",
"-201 -278 CURVE",
"-130 -269 OFFCURVE",
"-122 -268 OFFCURVE",
"-71 -270 CURVE",
"72 -274 OFFCURVE",
"204 -309 OFFCURVE",
"282 -363 CURVE",
"315 -385 OFFCURVE",
"355 -396 OFFCURVE",
"423 -404 CURVE",
"482 -410 OFFCURVE",
"579 -394 OFFCURVE",
"694 -358 CURVE",
"735 -345 OFFCURVE",
"742 -344 OFFCURVE",
"749 -346 CURVE",
"763 -351 OFFCURVE",
"763 -353 OFFCURVE",
"753 -363 CURVE",
"727 -385 OFFCURVE",
"644 -414 OFFCURVE",
"535 -438 CURVE",
"507 -444 OFFCURVE",
"499 -444 OFFCURVE",
"422 -445 CURVE",
"377 -445 OFFCURVE",
"332 -445 OFFCURVE",
"323 -444 CURVE"
);
}
);
width = 0;
}
);
unicode = 007B;
},
{
glyphname = braceright;
lastChange = "2017-11-07 01:44:14 +0000";
layers = (
{
layerId = "54030A0A-E51B-4EE4-A223-77D7BA97D65F";
paths = (
{
closed = 1;
nodes = (
"-1060 180 OFFCURVE",
"-1062 198 OFFCURVE",
"-1064 234 CURVE",
"-1065 260 LINE",
"-1065 308 LINE",
"-1063 335 LINE",
"-1062 367 OFFCURVE",
"-1061 385 OFFCURVE",
"-1057 389 CURVE",
"-1057 391 OFFCURVE",
"-1053 392 OFFCURVE",
"-1049 393 CURVE",
"-1037 395 OFFCURVE",
"-1035 395 OFFCURVE",
"-1029 391 CURVE",
"-1019 382 OFFCURVE",
"-1015 367 OFFCURVE",
"-1014 331 CURVE",
"-1013 307 LINE",
"-1013 263 LINE",
"-1013 263 OFFCURVE",
"-1013 245 OFFCURVE",
"-1013 225 CURVE",
"-1013 185 OFFCURVE",
"-1014 182 OFFCURVE",
"-1021 177 CURVE",
"-1027 173 OFFCURVE",
"-1041 168 OFFCURVE",
"-1047 168 CURVE",
"-1050 168 OFFCURVE",
"-1052 170 OFFCURVE",
"-1053 171 CURVE"
);
}
);
width = 0;
}
);
unicode = 007D;
},
{
glyphname = bracketleft;
lastChange = "2017-11-07 01:44:14 +0000";
layers = (
{
layerId = "54030A0A-E51B-4EE4-A223-77D7BA97D65F";
paths = (
{
closed = 1;
nodes = (
"295 -329 OFFCURVE",
"243 -315 OFFCURVE",
"209 -303 CURVE",
"169 -289 OFFCURVE",
"95 -256 OFFCURVE",
"69 -241 CURVE",
"25 -215 OFFCURVE",
"-16 -206 OFFCURVE",
"-87 -206 CURVE",
"-201 -208 OFFCURVE",
"-341 -238 OFFCURVE",
"-543 -306 CURVE",
"-586 -321 OFFCURVE",
"-621 -333 OFFCURVE",
"-622 -331 CURVE",
"-622 -330 OFFCURVE",
"-617 -313 OFFCURVE",
"-610 -294 CURVE",
"-597 -261 OFFCURVE",
"-596 -256 OFFCURVE",
"-593 -219 CURVE",
"-590 -178 OFFCURVE",
"-588 -173 OFFCURVE",
"-573 -161 CURVE",
"-565 -155 OFFCURVE",
"-533 -146 OFFCURVE",
"-511 -144 CURVE",
"-497 -141 OFFCURVE",
"-495 -143 OFFCURVE",
"-483 -150 CURVE",
"-471 -159 OFFCURVE",
"-470 -160 OFFCURVE",
"-468 -171 CURVE",
"-468 -176 OFFCURVE",
"-470 -190 OFFCURVE",
"-471 -199 CURVE",
"-472 -209 OFFCURVE",
"-473 -218 OFFCURVE",
"-472 -218 CURVE",
"-472 -218 OFFCURVE",
"-463 -215 OFFCURVE",
"-453 -211 CURVE",
"-418 -199 OFFCURVE",
"-336 -184 OFFCURVE",
"-201 -168 CURVE",
"-130 -159 OFFCURVE",
"-122 -158 OFFCURVE",
"-71 -160 CURVE",
"72 -164 OFFCURVE",
"204 -199 OFFCURVE",
"282 -253 CURVE",
"315 -275 OFFCURVE",
"355 -286 OFFCURVE",
"423 -294 CURVE",
"482 -300 OFFCURVE",
"579 -284 OFFCURVE",
"694 -248 CURVE",
"735 -235 OFFCURVE",
"742 -234 OFFCURVE",
"749 -236 CURVE",
"763 -241 OFFCURVE",
"763 -243 OFFCURVE",
"753 -253 CURVE",
"727 -275 OFFCURVE",
"644 -304 OFFCURVE",
"535 -328 CURVE",
"507 -334 OFFCURVE",
"499 -334 OFFCURVE",
"422 -335 CURVE",
"377 -335 OFFCURVE",
"332 -335 OFFCURVE",
"323 -334 CURVE"
);
}
);
width = 0;
}
);
unicode = 005B;
},
{
glyphname = bracketright;
lastChange = "2017-11-07 11:50:43 +0000";
layers = (
{
layerId = "54030A0A-E51B-4EE4-A223-77D7BA97D65F";
paths = (
{
closed = 1;
nodes = (
"-650 -388 OFFCURVE",
"-648 -384 OFFCURVE",
"-645 -379 CURVE",
"-629 -357 OFFCURVE",
"-626 -345 OFFCURVE",
"-629 -306 CURVE",
"-629 -290 OFFCURVE",
"-631 -273 OFFCURVE",
"-631 -268 CURVE",
"-632 -259 OFFCURVE",
"-631 -259 OFFCURVE",
"-626 -253 CURVE",
"-618 -246 OFFCURVE",
"-601 -236 OFFCURVE",
"-582 -228 CURVE",
"-559 -218 OFFCURVE",
"-508 -201 OFFCURVE",
"-501 -201 CURVE",
"-491 -201 OFFCURVE",
"-489 -205 OFFCURVE",
"-489 -242 CURVE",
"-489 -261 OFFCURVE",
"-489 -273 OFFCURVE",
"-488 -273 CURVE",
"-487 -273 OFFCURVE",
"-473 -270 OFFCURVE",
"-457 -266 CURVE",
"-283 -225 OFFCURVE",
"-159 -202 OFFCURVE",
"-98 -198 CURVE",
"-86 -197 OFFCURVE",
"-74 -195 OFFCURVE",
"-72 -194 CURVE",
"-66 -191 OFFCURVE",
"-52 -175 OFFCURVE",
"-41 -158 CURVE",
"-30 -142 OFFCURVE",
"-23 -135 OFFCURVE",
"0 -120 CURVE",
"24 -104 OFFCURVE",
"49 -93 OFFCURVE",
"75 -88 CURVE",
"92 -84 OFFCURVE",
"150 -84 OFFCURVE",
"168 -88 CURVE",
"202 -95 OFFCURVE",
"230 -113 OFFCURVE",
"241 -136 CURVE",
"249 -152 OFFCURVE",
"250 -163 OFFCURVE",
"250 -199 CURVE",
"250 -216 OFFCURVE",
"251 -231 OFFCURVE",
"251 -231 CURVE",
"251 -231 OFFCURVE",
"323 -252 OFFCURVE",
"411 -277 CURVE",
"498 -303 OFFCURVE",
"572 -324 OFFCURVE",
"575 -324 CURVE",
"577 -324 OFFCURVE",
"584 -322 OFFCURVE",
"590 -319 CURVE",
"603 -312 OFFCURVE",
"604 -310 OFFCURVE",
"601 -291 CURVE",
"599 -278 OFFCURVE",
"599 -276 OFFCURVE",
"602 -270 CURVE",
"610 -254 OFFCURVE",
"624 -250 OFFCURVE",
"667 -250 CURVE",
"711 -250 OFFCURVE",
"730 -254 OFFCURVE",
"744 -266 CURVE",
"752 -274 OFFCURVE",
"754 -280 OFFCURVE",
"753 -298 CURVE",
"751 -335 OFFCURVE",
"727 -359 OFFCURVE",
"679 -371 CURVE",
"663 -375 OFFCURVE",
"661 -376 OFFCURVE",
"629 -375 CURVE",
"600 -374 OFFCURVE",
"592 -373 OFFCURVE",
"571 -369 CURVE",
"535 -361 OFFCURVE",
"488 -347 OFFCURVE",
"439 -330 CURVE",
"416 -322 OFFCURVE",
"391 -312 OFFCURVE",
"384 -310 CURVE",
"352 -298 OFFCURVE",
"281 -281 OFFCURVE",
"246 -276 CURVE",
"229 -273 LINE",
"215 -287 LINE",
"187 -313 OFFCURVE",
"147 -337 OFFCURVE",
"109 -349 CURVE",
"91 -355 OFFCURVE",
"91 -355 OFFCURVE",
"60 -355 CURVE",
"25 -355 OFFCURVE",
"17 -354 OFFCURVE",
"-1 -346 CURVE",
"-18 -338 OFFCURVE",
"-26 -332 OFFCURVE",
"-46 -313 CURVE",
"-63 -297 OFFCURVE",
"-63 -297 OFFCURVE",
"-71 -277 CURVE",
"-79 -258 OFFCURVE",
"-79 -257 OFFCURVE",
"-83 -257 CURVE",
"-165 -272 OFFCURVE",
"-214 -282 OFFCURVE",
"-301 -302 CURVE",
"-370 -317 OFFCURVE",
"-541 -361 OFFCURVE",
"-554 -365 CURVE",
"-614 -387 OFFCURVE",
"-647 -396 OFFCURVE",
"-650 -390 CURVE"
);
},
{
closed = 1;
nodes = (
"102 -304 OFFCURVE",
"112 -299 OFFCURVE",
"121 -290 CURVE",
"129 -284 OFFCURVE",
"145 -261 OFFCURVE",
"145 -257 CURVE",
"145 -252 OFFCURVE",
"97 -247 OFFCURVE",
"20 -246 CURVE",
"4 -245 OFFCURVE",
"4 -246 OFFCURVE",
"4 -261 CURVE",
"4 -283 OFFCURVE",
"12 -293 OFFCURVE",
"39 -304 CURVE",
"50 -309 OFFCURVE",
"54 -310 OFFCURVE",
"66 -310 CURVE",
"74 -310 OFFCURVE",
"85 -309 OFFCURVE",
"90 -307 CURVE"
);
},
{
closed = 1;
nodes = (
"181 -191 OFFCURVE",
"182 -186 OFFCURVE",
"182 -176 CURVE",
"182 -165 OFFCURVE",
"181 -164 OFFCURVE",
"173 -152 CURVE",
"164 -138 OFFCURVE",
"158 -132 OFFCURVE",
"145 -127 CURVE",
"138 -123 OFFCURVE",
"134 -123 OFFCURVE",
"114 -123 CURVE",
"90 -123 LINE",
"72 -132 LINE",
"62 -136 OFFCURVE",
"49 -144 OFFCURVE",
"43 -148 CURVE",
"33 -155 OFFCURVE",
"21 -169 OFFCURVE",
"21 -173 CURVE",
"21 -174 OFFCURVE",
"19 -177 OFFCURVE",
"16 -180 CURVE",
"14 -184 OFFCURVE",
"12 -188 OFFCURVE",
"12 -190 CURVE",
"12 -194 OFFCURVE",
"14 -194 OFFCURVE",
"70 -199 CURVE",
"101 -202 OFFCURVE",
"136 -206 OFFCURVE",
"146 -207 CURVE",
"157 -208 OFFCURVE",
"167 -209 OFFCURVE",
"169 -209 CURVE",
"172 -209 OFFCURVE",
"174 -207 OFFCURVE",
"177 -199 CURVE"
);
}
);
width = 0;
}
);
unicode = 005D;
},
{
glyphname = dollar;
lastChange = "2017-11-15 04:53:59 +0000";
layers = (
{
layerId = "54030A0A-E51B-4EE4-A223-77D7BA97D65F";
paths = (
{
closed = 1;
nodes = (
"1310 72 OFFCURVE",
"1290 72 OFFCURVE",
"1270 70 CURVE",
"1250 68 OFFCURVE",
"1197 65 OFFCURVE",
"1152 63 CURVE",
"1108 60 OFFCURVE",
"1047 55 OFFCURVE",
"1018 52 CURVE",
"957 45 OFFCURVE",
"842 26 OFFCURVE",
"799 15 CURVE",
"756 5 OFFCURVE",
"425 -34 OFFCURVE",
"349 -38 CURVE",
"205 -45 OFFCURVE",
"142 -43 OFFCURVE",
"122 -32 CURVE",
"119 -30 OFFCURVE",
"107 -24 OFFCURVE",
"99 -20 CURVE",
"89 -15 OFFCURVE",
"70 -4 OFFCURVE",
"56 6 CURVE",
"32 23 OFFCURVE",
"31 23 OFFCURVE",
"30 34 CURVE",
"30 49 OFFCURVE",
"33 51 OFFCURVE",
"63 49 CURVE",
"126 45 OFFCURVE",
"128 45 OFFCURVE",
"322 66 CURVE",
"467 81 OFFCURVE",
"544 91 OFFCURVE",
"656 107 CURVE",
"735 118 OFFCURVE",
"862 135 OFFCURVE",
"937 143 CURVE",
"1086 160 OFFCURVE",
"1087 161 OFFCURVE",
"1154 150 CURVE",
"1204 141 OFFCURVE",
"1291 115 OFFCURVE",
"1306 105 CURVE",
"1314 99 OFFCURVE",
"1326 76 OFFCURVE",
"1322 73 CURVE",
"1322 72 OFFCURVE",
"1318 71 OFFCURVE",
"1314 72 CURVE"
);
},
{
closed = 1;
nodes = (
"509 163 OFFCURVE",
"508 165 OFFCURVE",
"508 169 CURVE",
"509 170 OFFCURVE",
"515 188 OFFCURVE",
"524 208 CURVE",
"533 227 OFFCURVE",
"540 245 OFFCURVE",
"540 248 CURVE",
"540 251 LINE",
"513 254 LINE",
"451 261 OFFCURVE",
"384 272 OFFCURVE",
"341 284 CURVE",
"297 296 OFFCURVE",
"260 319 OFFCURVE",
"211 363 CURVE",
"157 411 OFFCURVE",
"118 466 OFFCURVE",
"112 502 CURVE",
"111 509 OFFCURVE",
"108 521 OFFCURVE",
"105 531 CURVE",
"100 554 OFFCURVE",
"96 591 OFFCURVE",
"99 592 CURVE",
"106 595 OFFCURVE",
"144 600 OFFCURVE",
"170 602 CURVE",
"225 605 OFFCURVE",
"253 601 OFFCURVE",
"264 589 CURVE",
"274 579 OFFCURVE",
"274 577 OFFCURVE",
"272 540 CURVE",
"270 508 LINE",
"277 495 LINE",
"303 451 OFFCURVE",
"338 417 OFFCURVE",
"380 394 CURVE",
"389 390 OFFCURVE",
"401 383 OFFCURVE",
"408 379 CURVE",
"433 364 OFFCURVE",
"510 336 OFFCURVE",
"537 333 CURVE",
"546 332 OFFCURVE",
"554 331 OFFCURVE",
"556 331 CURVE",
"560 330 OFFCURVE",
"561 331 OFFCURVE",
"563 339 CURVE",
"570 357 OFFCURVE",
"580 377 OFFCURVE",
"589 385 CURVE",
"593 389 OFFCURVE",
"598 392 OFFCURVE",
"600 392 CURVE",
"603 393 OFFCURVE",
"622 392 OFFCURVE",
"644 390 CURVE",
"687 387 OFFCURVE",
"695 385 OFFCURVE",
"700 378 CURVE",
"702 374 OFFCURVE",
"702 373 OFFCURVE",
"697 359 CURVE",
"693 345 OFFCURVE",
"688 324 OFFCURVE",
"688 316 CURVE",
"688 312 OFFCURVE",
"688 312 OFFCURVE",
"710 312 CURVE",
"788 312 OFFCURVE",
"883 305 OFFCURVE",
"942 293 CURVE",
"992 283 OFFCURVE",
"1012 276 OFFCURVE",
"1024 265 CURVE",
"1030 261 OFFCURVE",
"1031 259 OFFCURVE",
"1030 254 CURVE",
"1030 249 LINE",
"975 248 LINE",
"942 248 OFFCURVE",
"897 248 OFFCURVE",
"860 249 CURVE",
"828 250 OFFCURVE",
"774 251 OFFCURVE",
"740 251 CURVE",
"671 251 OFFCURVE",
"673 251 OFFCURVE",
"666 237 CURVE",
"663 232 OFFCURVE",
"662 228 OFFCURVE",
"662 227 CURVE",
"662 226 OFFCURVE",
"656 217 OFFCURVE",
"651 208 CURVE",
"637 188 OFFCURVE",
"617 167 OFFCURVE",
"604 161 CURVE",
"594 156 LINE",
"554 155 LINE",
"514 155 LINE",
"511 159 LINE"
);
}
);
width = 1353;
}
);
unicode = 0024;
},
{
glyphname = asciitilde;
lastChange = "2017-11-15 04:50:09 +0000";
layers = (
{
layerId = "54030A0A-E51B-4EE4-A223-77D7BA97D65F";
paths = (
{
closed = 1;
nodes = (
"62 80 OFFCURVE",
"25 91 OFFCURVE",
"10 106 CURVE",
"-2 118 OFFCURVE",
"-17 142 OFFCURVE",
"-28 168 CURVE",
"-40 192 OFFCURVE",
"-40 192 OFFCURVE",
"-47 195 CURVE",
"-52 196 OFFCURVE",
"-57 198 OFFCURVE",
"-58 197 CURVE",
"-60 197 OFFCURVE",
"-62 198 OFFCURVE",
"-64 200 CURVE",
"-68 203 OFFCURVE",
"-68 203 OFFCURVE",
"-64 207 CURVE",
"-61 210 OFFCURVE",
"-58 211 OFFCURVE",
"-40 212 CURVE",
"7 216 OFFCURVE",
"46 215 OFFCURVE",
"66 211 CURVE",
"76 208 OFFCURVE",
"93 197 OFFCURVE",
"104 187 CURVE",
"114 176 OFFCURVE",
"127 157 OFFCURVE",
"137 135 CURVE",
"148 113 OFFCURVE",
"149 113 OFFCURVE",
"175 110 CURVE",
"184 110 OFFCURVE",
"192 108 OFFCURVE",
"193 107 CURVE",
"195 105 OFFCURVE",
"193 100 OFFCURVE",
"183 94 CURVE",
"173 87 OFFCURVE",
"173 87 OFFCURVE",
"144 83 CURVE",
"127 81 OFFCURVE",
"109 80 OFFCURVE",
"102 79 CURVE"
);
}
);
width = 258;
}
);
unicode = 007E;
},
{
glyphname = at;
lastChange = "2017-11-15 04:52:08 +0000";
layers = (
{
layerId = "54030A0A-E51B-4EE4-A223-77D7BA97D65F";
paths = (
{
closed = 1;
nodes = (
"1318 72 OFFCURVE",
"1298 71 OFFCURVE",
"1278 70 CURVE",
"1258 67 OFFCURVE",
"1205 65 OFFCURVE",
"1160 62 CURVE",
"1116 60 OFFCURVE",
"1055 55 OFFCURVE",
"1025 52 CURVE",
"964 45 OFFCURVE",
"849 25 OFFCURVE",
"807 15 CURVE",
"764 5 OFFCURVE",
"432 -34 OFFCURVE",
"356 -38 CURVE",
"213 -46 OFFCURVE",
"149 -44 OFFCURVE",
"130 -33 CURVE",
"126 -30 OFFCURVE",
"115 -25 OFFCURVE",
"106 -21 CURVE",
"96 -16 OFFCURVE",
"78 -4 OFFCURVE",
"64 5 CURVE",
"39 23 OFFCURVE",
"38 22 OFFCURVE",
"38 34 CURVE",
"37 49 OFFCURVE",
"41 51 OFFCURVE",
"70 49 CURVE",
"133 44 OFFCURVE",
"135 44 OFFCURVE",
"329 65 CURVE",
"474 81 OFFCURVE",
"552 91 OFFCURVE",
"664 106 CURVE",
"743 118 OFFCURVE",
"870 135 OFFCURVE",
"944 143 CURVE",
"1093 160 OFFCURVE",
"1094 160 OFFCURVE",
"1161 149 CURVE",
"1212 140 OFFCURVE",
"1298 115 OFFCURVE",
"1314 105 CURVE",
"1322 98 OFFCURVE",
"1333 76 OFFCURVE",
"1330 72 CURVE",
"1329 71 OFFCURVE",
"1325 71 OFFCURVE",
"1322 71 CURVE"
);
},
{
closed = 1;
nodes = (
"926 193 OFFCURVE",
"883 198 OFFCURVE",
"863 201 CURVE",
"826 207 OFFCURVE",
"812 213 OFFCURVE",
"812 222 CURVE",
"812 242 OFFCURVE",
"799 273 OFFCURVE",
"782 294 CURVE",
"761 321 OFFCURVE",
"744 332 OFFCURVE",
"683 361 CURVE",
"587 406 OFFCURVE",
"486 430 OFFCURVE",
"390 430 CURVE",
"335 430 OFFCURVE",
"282 419 OFFCURVE",
"259 404 CURVE",
"248 396 OFFCURVE",
"235 381 OFFCURVE",
"231 370 CURVE",
"228 361 OFFCURVE",
"228 342 OFFCURVE",
"231 335 CURVE",
"238 321 OFFCURVE",
"263 299 OFFCURVE",
"297 277 CURVE",
"307 271 OFFCURVE",
"312 266 OFFCURVE",
"311 265 CURVE",
"310 264 OFFCURVE",
"293 263 OFFCURVE",
"270 264 CURVE",
"234 265 OFFCURVE",
"229 265 OFFCURVE",
"200 271 CURVE",
"164 279 OFFCURVE",
"139 285 OFFCURVE",
"127 290 CURVE",
"114 296 OFFCURVE",
"83 324 OFFCURVE",
"73 339 CURVE",
"62 356 OFFCURVE",
"59 369 OFFCURVE",
"59 396 CURVE",
"59 417 OFFCURVE",
"59 419 OFFCURVE",
"64 429 CURVE",
"69 441 OFFCURVE",
"83 455 OFFCURVE",
"96 462 CURVE",
"113 472 OFFCURVE",
"133 479 OFFCURVE",
"172 487 CURVE",
"197 493 LINE",
"269 493 LINE",
"348 493 OFFCURVE",
"373 491 OFFCURVE",
"436 482 CURVE",
"518 470 OFFCURVE",
"626 446 OFFCURVE",
"671 431 CURVE",
"730 410 OFFCURVE",
"782 387 OFFCURVE",
"811 368 CURVE",
"820 362 OFFCURVE",
"839 350 OFFCURVE",
"853 342 CURVE",
"915 307 OFFCURVE",
"954 280 OFFCURVE",
"983 250 CURVE",
"1019 215 OFFCURVE",
"1022 196 OFFCURVE",
"994 190 CURVE",
"990 189 OFFCURVE",
"985 188 OFFCURVE",
"984 188 CURVE",
"983 189 OFFCURVE",
"974 189 OFFCURVE",
"963 190 CURVE"
);
}
);
width = 1361;
}
);
unicode = 0040;
},
{
glyphname = trademark;
lastChange = "2017-11-08 04:36:45 +0000";
layers = (
{
layerId = "54030A0A-E51B-4EE4-A223-77D7BA97D65F";
paths = (
{
closed = 1;
nodes = (
"1007 -168 OFFCURVE",
"971 -153 OFFCURVE",
"958 -136 CURVE",
"948 -123 OFFCURVE",
"936 -97 OFFCURVE",
"928 -70 CURVE",
"919 -45 OFFCURVE",
"919 -45 OFFCURVE",
"912 -41 CURVE",
"908 -39 OFFCURVE",
"903 -37 OFFCURVE",
"902 -37 CURVE",
"900 -37 OFFCURVE",
"898 -36 OFFCURVE",
"896 -34 CURVE",
"893 -30 OFFCURVE",
"893 -30 OFFCURVE",
"897 -27 CURVE",
"900 -24 OFFCURVE",
"903 -24 OFFCURVE",
"921 -25 CURVE",
"969 -27 OFFCURVE",
"1007 -32 OFFCURVE",
"1026 -39 CURVE",
"1036 -43 OFFCURVE",
"1052 -56 OFFCURVE",
"1061 -67 CURVE",
"1070 -79 OFFCURVE",
"1080 -100 OFFCURVE",
"1088 -123 CURVE",
"1096 -146 OFFCURVE",
"1097 -146 OFFCURVE",
"1122 -152 CURVE",
"1131 -153 OFFCURVE",
"1139 -156 OFFCURVE",
"1140 -157 CURVE",
"1142 -160 OFFCURVE",
"1139 -164 OFFCURVE",
"1128 -169 CURVE",
"1118 -175 OFFCURVE",
"1118 -175 OFFCURVE",
"1088 -175 CURVE",
"1071 -175 OFFCURVE",
"1053 -174 OFFCURVE",
"1046 -174 CURVE"
);
},
{
closed = 1;
nodes = (
"1310 70 OFFCURVE",
"1290 69 OFFCURVE",
"1270 68 CURVE",
"1250 65 OFFCURVE",
"1197 63 OFFCURVE",
"1152 60 CURVE",
"1108 58 OFFCURVE",
"1047 52 OFFCURVE",
"1017 50 CURVE",
"956 42 OFFCURVE",
"841 23 OFFCURVE",
"799 13 CURVE",
"756 3 OFFCURVE",
"424 -36 OFFCURVE",
"348 -40 CURVE",
"205 -48 OFFCURVE",
"141 -46 OFFCURVE",
"122 -35 CURVE",
"118 -32 OFFCURVE",
"107 -27 OFFCURVE",
"98 -23 CURVE",
"88 -18 OFFCURVE",
"70 -6 OFFCURVE",
"56 3 CURVE",
"31 20 OFFCURVE",
"30 20 OFFCURVE",
"30 31 CURVE",
"29 46 OFFCURVE",
"33 49 OFFCURVE",
"62 46 CURVE",
"125 42 OFFCURVE",
"127 42 OFFCURVE",
"321 63 CURVE",
"466 79 OFFCURVE",
"544 88 OFFCURVE",
"656 104 CURVE",
"735 116 OFFCURVE",
"862 133 OFFCURVE",
"936 141 CURVE",
"1085 158 OFFCURVE",
"1086 158 OFFCURVE",
"1153 147 CURVE",
"1204 138 OFFCURVE",
"1290 113 OFFCURVE",
"1306 102 CURVE",
"1314 96 OFFCURVE",
"1325 74 OFFCURVE",
"1322 70 CURVE",
"1321 69 OFFCURVE",
"1317 69 OFFCURVE",
"1314 69 CURVE"
);
}
);
width = 1353;
}
);
unicode = 2122;
},
{
glyphname = grave;
lastChange = "2017-11-07 01:44:14 +0000";
layers = (
{
layerId = "54030A0A-E51B-4EE4-A223-77D7BA97D65F";
paths = (
{
closed = 1;
nodes = (
"371 -38 OFFCURVE",
"341 -29 OFFCURVE",
"320 -14 CURVE",
"307 -5 OFFCURVE",
"289 30 OFFCURVE",
"276 69 CURVE",
"268 93 OFFCURVE",
"265 97 OFFCURVE",
"254 99 CURVE",
"247 101 OFFCURVE",
"244 103 OFFCURVE",
"244 108 CURVE",
"244 115 OFFCURVE",
"248 115 OFFCURVE",
"282 114 CURVE",
"341 110 OFFCURVE",
"368 105 OFFCURVE",
"385 92 CURVE",
"414 72 OFFCURVE",
"425 54 OFFCURVE",
"438 8 CURVE",
"444 -12 OFFCURVE",
"445 -12 OFFCURVE",
"471 -18 CURVE",
"488 -22 OFFCURVE",
"489 -22 OFFCURVE",
"489 -26 CURVE",
"489 -30 OFFCURVE",
"487 -32 OFFCURVE",
"477 -36 CURVE",
"465 -42 LINE",
"440 -43 LINE",
"427 -43 OFFCURVE",
"412 -43 OFFCURVE",
"409 -42 CURVE"
);
},
{
closed = 1;
nodes = (
"143 -29 OFFCURVE",
"107 -14 OFFCURVE",
"94 3 CURVE",
"84 16 OFFCURVE",
"72 42 OFFCURVE",
"64 69 CURVE",
"55 94 OFFCURVE",
"55 94 OFFCURVE",
"48 98 CURVE",
"44 100 OFFCURVE",
"39 102 OFFCURVE",
"38 102 CURVE",
"36 102 OFFCURVE",
"34 103 OFFCURVE",
"32 105 CURVE",
"29 109 OFFCURVE",
"29 109 OFFCURVE",
"33 112 CURVE",
"36 115 OFFCURVE",
"39 115 OFFCURVE",
"57 114 CURVE",
"105 112 OFFCURVE",
"143 107 OFFCURVE",
"162 100 CURVE",
"172 96 OFFCURVE",
"188 83 OFFCURVE",
"197 72 CURVE",
"206 60 OFFCURVE",
"216 39 OFFCURVE",
"224 16 CURVE",
"232 -7 OFFCURVE",
"233 -7 OFFCURVE",
"258 -13 CURVE",
"267 -14 OFFCURVE",
"275 -17 OFFCURVE",
"276 -18 CURVE",
"278 -21 OFFCURVE",
"275 -25 OFFCURVE",
"264 -30 CURVE",
"254 -36 OFFCURVE",
"254 -36 OFFCURVE",
"224 -36 CURVE",
"207 -36 OFFCURVE",
"189 -35 OFFCURVE",
"182 -35 CURVE"
);
}
);
width = 519;
}
);
unicode = 0060;
},
{
glyphname = tie;
lastChange = "2017-11-07 01:44:14 +0000";
layers = (
{
layerId = "54030A0A-E51B-4EE4-A223-77D7BA97D65F";
paths = (
{
closed = 1;
nodes = (
"-656 703 OFFCURVE",
"-656 705 OFFCURVE",
"-654 707 CURVE",
"-648 711 OFFCURVE",
"-619 725 OFFCURVE",
"-590 738 CURVE",
"-576 744 OFFCURVE",
"-556 752 OFFCURVE",
"-545 758 CURVE",
"-492 779 OFFCURVE",
"-437 797 OFFCURVE",
"-363 815 CURVE",
"-318 824 OFFCURVE",
"-293 828 OFFCURVE",
"-261 830 CURVE",
"-250 832 OFFCURVE",
"-236 834 OFFCURVE",
"-228 836 CURVE",
"-189 842 OFFCURVE",
"-72 842 OFFCURVE",
"-2 836 CURVE",
"118 826 OFFCURVE",
"233 797 OFFCURVE",
"332 754 CURVE",
"346 748 OFFCURVE",
"366 738 OFFCURVE",
"377 734 CURVE",
"401 725 OFFCURVE",
"418 715 OFFCURVE",
"428 709 CURVE",
"434 705 OFFCURVE",
"434 703 OFFCURVE",
"434 701 CURVE",
"432 701 OFFCURVE",
"428 699 OFFCURVE",
"416 701 CURVE",
"385 703 OFFCURVE",
"369 707 OFFCURVE",
"327 725 CURVE",
"297 736 OFFCURVE",
"289 738 OFFCURVE",
"246 750 CURVE",
"180 768 OFFCURVE",
"114 779 OFFCURVE",
"34 787 CURVE",
"-35 795 OFFCURVE",
"-54 795 OFFCURVE",
"-132 795 CURVE",
"-222 795 OFFCURVE",
"-254 793 OFFCURVE",
"-312 781 CURVE",
"-326 779 OFFCURVE",
"-347 776 OFFCURVE",
"-359 774 CURVE",
"-386 768 OFFCURVE",
"-422 760 OFFCURVE",
"-449 752 CURVE",
"-470 746 OFFCURVE",
"-480 744 OFFCURVE",
"-549 723 CURVE",
"-572 715 OFFCURVE",
"-597 707 OFFCURVE",
"-607 705 CURVE",
"-627 701 OFFCURVE",
"-654 699 OFFCURVE",
"-656 701 CURVE"
);
}
